<svg xmlns="http://www.w3.org/2000/svg" xmlns:xlink="http://www.w3.org/1999/xlink" viewBox="0 0 71.71 82.6"><defs><style>.cls-1{fill:none;}.cls-2{isolation:isolate;}.cls-3{clip-path:url(#clip-path);}.cls-4{fill:#fff;}.cls-5{clip-path:url(#clip-path-2);}.cls-6{clip-path:url(#clip-path-3);}</style><clipPath id="clip-path"><polygon class="cls-1" points="0 61.89 0.12 20.67 35.99 41.38 35.88 82.6 0 61.89"/></clipPath><clipPath id="clip-path-2"><polygon class="cls-1" points="35.84 82.6 35.72 41.38 71.6 20.67 71.71 61.89 35.84 82.6"/></clipPath><clipPath id="clip-path-3"><polygon class="cls-1" points="0.08 20.72 35.73 0 71.61 20.71 35.96 41.43 0.08 20.72"/></clipPath></defs><g id="Camada_2" data-name="Camada 2"><g id="Camada_1-2" data-name="Camada 1"><g class="cls-2"><g class="cls-3"><polyline class="cls-4" points="35.28 41.78 0.82 21.89 0.71 61.48 35.17 81.38 35.28 41.78"/><path d="M.71,61.48.82,21.89,35.28,41.78l-.11,39.6L.71,61.48M36,41.38.12,20.67,0,61.89,35.88,82.6,36,41.38"/></g></g><g class="cls-2"><g class="cls-5"><polyline class="cls-4" points="70.89 21.89 36.43 41.78 36.54 81.38 71 61.48 70.89 21.89"/><path d="M36.54,81.38l-.11-39.6L70.89,21.89,71,61.48,36.54,81.38M71.6,20.67,35.72,41.38l.12,41.22L71.71,61.89,71.6,20.67"/></g></g><g class="cls-2"><g class="cls-6"><polyline class="cls-4" points="70.19 20.71 35.73 0.82 1.5 20.71 35.96 40.61 70.19 20.71"/><path d="M1.5,20.71,35.73.82,70.19,20.71,36,40.61,1.5,20.71m70.11,0L35.73,0,.08,20.72,36,41.43,71.61,20.71"/></g></g></g></g></svg>