<svg id="Camada_1" data-name="Camada 1" xmlns="http://www.w3.org/2000/svg" xmlns:xlink="http://www.w3.org/1999/xlink" viewBox="0 0 574.21 574.14"><defs><style>.cls-1{fill:none;}.cls-1,.cls-3,.cls-4{stroke:#969696;stroke-miterlimit:10;}.cls-2{clip-path:url(#clip-path);}.cls-3{fill:#fff;}.cls-5{clip-path:url(#clip-path-2);}.cls-6{clip-path:url(#clip-path-3);}.cls-7{clip-path:url(#clip-path-4);}.cls-8{clip-path:url(#clip-path-5);}.cls-9{clip-path:url(#clip-path-6);}.cls-10{clip-path:url(#clip-path-7);}.cls-11{clip-path:url(#clip-path-8);}.cls-12{clip-path:url(#clip-path-9);}.cls-13{clip-path:url(#clip-path-10);}.cls-14{clip-path:url(#clip-path-11);}.cls-15{clip-path:url(#clip-path-12);}.cls-16{clip-path:url(#clip-path-13);}.cls-17{clip-path:url(#clip-path-14);}.cls-18{clip-path:url(#clip-path-15);}.cls-19{clip-path:url(#clip-path-16);}.cls-20{clip-path:url(#clip-path-17);}.cls-21{clip-path:url(#clip-path-18);}.cls-22{clip-path:url(#clip-path-19);}.cls-23{clip-path:url(#clip-path-20);}.cls-24{clip-path:url(#clip-path-21);}.cls-25{clip-path:url(#clip-path-22);}.cls-26{clip-path:url(#clip-path-23);}.cls-27{clip-path:url(#clip-path-24);}.cls-28{clip-path:url(#clip-path-25);}.cls-29{clip-path:url(#clip-path-26);}.cls-30{clip-path:url(#clip-path-27);}.cls-31{clip-path:url(#clip-path-28);}.cls-32{clip-path:url(#clip-path-29);}.cls-33{clip-path:url(#clip-path-30);}.cls-34{clip-path:url(#clip-path-31);}.cls-35{clip-path:url(#clip-path-32);}.cls-36{clip-path:url(#clip-path-33);}.cls-37{clip-path:url(#clip-path-34);}.cls-38{clip-path:url(#clip-path-35);}.cls-39{clip-path:url(#clip-path-36);}.cls-40{clip-path:url(#clip-path-37);}.cls-41{clip-path:url(#clip-path-38);}.cls-42{clip-path:url(#clip-path-39);}.cls-43{clip-path:url(#clip-path-40);}.cls-44{clip-path:url(#clip-path-41);}.cls-45{clip-path:url(#clip-path-42);}.cls-46{clip-path:url(#clip-path-43);}.cls-47{clip-path:url(#clip-path-44);}.cls-48{clip-path:url(#clip-path-45);}.cls-49{clip-path:url(#clip-path-46);}.cls-50{clip-path:url(#clip-path-47);}.cls-51{clip-path:url(#clip-path-48);}.cls-52{clip-path:url(#clip-path-49);}.cls-53{clip-path:url(#clip-path-50);}.cls-54{clip-path:url(#clip-path-51);}.cls-55{clip-path:url(#clip-path-52);}.cls-56{clip-path:url(#clip-path-53);}.cls-57{clip-path:url(#clip-path-54);}.cls-58{clip-path:url(#clip-path-55);}.cls-59{clip-path:url(#clip-path-56);}.cls-60{clip-path:url(#clip-path-57);}.cls-61{clip-path:url(#clip-path-58);}.cls-62{clip-path:url(#clip-path-59);}.cls-63{clip-path:url(#clip-path-60);}.cls-64{clip-path:url(#clip-path-61);}.cls-65{clip-path:url(#clip-path-62);}.cls-66{clip-path:url(#clip-path-63);}.cls-67{clip-path:url(#clip-path-64);}.cls-68{clip-path:url(#clip-path-65);}.cls-69{clip-path:url(#clip-path-66);}.cls-70{clip-path:url(#clip-path-67);}.cls-71{clip-path:url(#clip-path-68);}.cls-72{clip-path:url(#clip-path-69);}.cls-73{clip-path:url(#clip-path-70);}.cls-74{clip-path:url(#clip-path-71);}.cls-75{clip-path:url(#clip-path-72);}.cls-76{clip-path:url(#clip-path-73);}.cls-77{clip-path:url(#clip-path-74);}.cls-78{clip-path:url(#clip-path-75);}.cls-79{clip-path:url(#clip-path-76);}.cls-80{clip-path:url(#clip-path-77);}.cls-81{clip-path:url(#clip-path-78);}.cls-82{clip-path:url(#clip-path-79);}.cls-83{clip-path:url(#clip-path-80);}.cls-84{clip-path:url(#clip-path-81);}.cls-85{clip-path:url(#clip-path-82);}.cls-86{clip-path:url(#clip-path-83);}.cls-87{clip-path:url(#clip-path-84);}.cls-88{clip-path:url(#clip-path-85);}.cls-89{clip-path:url(#clip-path-86);}.cls-90{clip-path:url(#clip-path-87);}.cls-91{clip-path:url(#clip-path-88);}.cls-92{clip-path:url(#clip-path-89);}.cls-93{clip-path:url(#clip-path-90);}.cls-94{clip-path:url(#clip-path-91);}.cls-95{clip-path:url(#clip-path-92);}.cls-96{clip-path:url(#clip-path-93);}.cls-97{clip-path:url(#clip-path-94);}.cls-98{clip-path:url(#clip-path-95);}.cls-99{clip-path:url(#clip-path-96);}.cls-100{clip-path:url(#clip-path-97);}.cls-101{clip-path:url(#clip-path-98);}.cls-102{clip-path:url(#clip-path-99);}.cls-103{clip-path:url(#clip-path-100);}.cls-104{clip-path:url(#clip-path-101);}.cls-105{clip-path:url(#clip-path-102);}.cls-106{clip-path:url(#clip-path-103);}.cls-107{clip-path:url(#clip-path-104);}.cls-108{clip-path:url(#clip-path-105);}.cls-109{clip-path:url(#clip-path-106);}.cls-110{clip-path:url(#clip-path-107);}.cls-111{clip-path:url(#clip-path-108);}.cls-112{clip-path:url(#clip-path-109);}.cls-113{clip-path:url(#clip-path-110);}.cls-114{clip-path:url(#clip-path-111);}.cls-115{clip-path:url(#clip-path-112);}.cls-116{clip-path:url(#clip-path-113);}.cls-117{clip-path:url(#clip-path-114);}.cls-118{clip-path:url(#clip-path-115);}.cls-119{clip-path:url(#clip-path-116);}.cls-120{clip-path:url(#clip-path-117);}.cls-121{clip-path:url(#clip-path-118);}.cls-122{clip-path:url(#clip-path-119);}.cls-123{clip-path:url(#clip-path-120);}.cls-124{clip-path:url(#clip-path-121);}.cls-125{clip-path:url(#clip-path-122);}.cls-126{clip-path:url(#clip-path-123);}.cls-127{clip-path:url(#clip-path-124);}.cls-128{clip-path:url(#clip-path-125);}.cls-129{clip-path:url(#clip-path-126);}.cls-130{clip-path:url(#clip-path-127);}.cls-131{clip-path:url(#clip-path-128);}.cls-132{clip-path:url(#clip-path-129);}.cls-133{clip-path:url(#clip-path-130);}.cls-134{clip-path:url(#clip-path-131);}.cls-135{clip-path:url(#clip-path-132);}.cls-136{clip-path:url(#clip-path-133);}.cls-137{clip-path:url(#clip-path-134);}.cls-138{clip-path:url(#clip-path-135);}.cls-139{clip-path:url(#clip-path-136);}.cls-140{clip-path:url(#clip-path-137);}.cls-141{clip-path:url(#clip-path-138);}.cls-142{clip-path:url(#clip-path-139);}.cls-143{clip-path:url(#clip-path-140);}.cls-144{clip-path:url(#clip-path-141);}.cls-145{clip-path:url(#clip-path-142);}.cls-146{clip-path:url(#clip-path-143);}.cls-147{clip-path:url(#clip-path-144);}.cls-148{clip-path:url(#clip-path-145);}.cls-149{clip-path:url(#clip-path-146);}.cls-150{clip-path:url(#clip-path-147);}</style><clipPath id="clip-path" transform="translate(-750.96 -247)"><polygon class="cls-1" points="751.88 616.21 752 574.99 787.87 595.7 787.76 636.91 751.88 616.21"/></clipPath><clipPath id="clip-path-2" transform="translate(-750.96 -247)"><polygon class="cls-1" points="787.72 636.91 787.6 595.7 823.48 574.99 823.59 616.21 787.72 636.91"/></clipPath><clipPath id="clip-path-3" transform="translate(-750.96 -247)"><polygon class="cls-1" points="751.96 575.03 787.61 554.32 823.49 575.02 787.84 595.75 751.96 575.03"/></clipPath><clipPath id="clip-path-4" transform="translate(-750.96 -247)"><polygon class="cls-1" points="787.73 554.45 787.85 513.23 823.72 533.94 823.61 575.16 787.73 554.45"/></clipPath><clipPath id="clip-path-5" transform="translate(-750.96 -247)"><polygon class="cls-1" points="823.57 575.16 823.45 533.94 859.33 513.23 859.44 554.45 823.57 575.16"/></clipPath><clipPath id="clip-path-6" transform="translate(-750.96 -247)"><polygon class="cls-1" points="787.81 513.28 823.46 492.56 859.34 513.27 823.69 533.99 787.81 513.28"/></clipPath><clipPath id="clip-path-7" transform="translate(-750.96 -247)"><polygon class="cls-1" points="823.49 616.34 823.61 575.12 859.48 595.83 859.37 637.04 823.49 616.34"/></clipPath><clipPath id="clip-path-8" transform="translate(-750.96 -247)"><polygon class="cls-1" points="859.33 637.04 859.21 595.83 895.09 575.12 895.2 616.34 859.33 637.04"/></clipPath><clipPath id="clip-path-9" transform="translate(-750.96 -247)"><polygon class="cls-1" points="823.57 575.16 859.22 554.45 895.1 575.15 859.45 595.88 823.57 575.16"/></clipPath><clipPath id="clip-path-10" transform="translate(-750.96 -247)"><polygon class="cls-1" points="787.6 676.94 787.72 635.72 823.59 656.43 823.48 697.65 787.6 676.94"/></clipPath><clipPath id="clip-path-11" transform="translate(-750.96 -247)"><polygon class="cls-1" points="823.44 697.65 823.32 656.43 859.2 635.72 859.31 676.94 823.44 697.65"/></clipPath><clipPath id="clip-path-12" transform="translate(-750.96 -247)"><polygon class="cls-1" points="787.68 635.77 823.33 615.05 859.21 635.76 823.56 656.48 787.68 635.77"/></clipPath><clipPath id="clip-path-13" transform="translate(-750.96 -247)"><polygon class="cls-1" points="859.24 556.9 859.36 515.68 895.23 536.39 895.12 577.61 859.24 556.9"/></clipPath><clipPath id="clip-path-14" transform="translate(-750.96 -247)"><polygon class="cls-1" points="895.08 577.61 894.96 536.39 930.84 515.68 930.95 556.9 895.08 577.61"/></clipPath><clipPath id="clip-path-15" transform="translate(-750.96 -247)"><polygon class="cls-1" points="859.32 515.73 894.97 495.01 930.85 515.72 895.2 536.44 859.32 515.73"/></clipPath><clipPath id="clip-path-16" transform="translate(-750.96 -247)"><polygon class="cls-1" points="859.11 677.07 859.23 635.85 895.1 656.56 894.99 697.78 859.11 677.07"/></clipPath><clipPath id="clip-path-17" transform="translate(-750.96 -247)"><polygon class="cls-1" points="894.95 697.78 894.83 656.56 930.71 635.85 930.82 677.07 894.95 697.78"/></clipPath><clipPath id="clip-path-18" transform="translate(-750.96 -247)"><polygon class="cls-1" points="859.19 635.9 894.84 615.18 930.72 635.89 895.07 656.61 859.19 635.9"/></clipPath><clipPath id="clip-path-19" transform="translate(-750.96 -247)"><polygon class="cls-1" points="895 616.34 895.12 575.12 930.99 595.83 930.88 637.04 895 616.34"/></clipPath><clipPath id="clip-path-20" transform="translate(-750.96 -247)"><polygon class="cls-1" points="930.84 637.04 930.72 595.83 966.6 575.12 966.71 616.34 930.84 637.04"/></clipPath><clipPath id="clip-path-21" transform="translate(-750.96 -247)"><polygon class="cls-1" points="895.08 575.16 930.73 554.45 966.61 575.15 930.96 595.88 895.08 575.16"/></clipPath><clipPath id="clip-path-22" transform="translate(-750.96 -247)"><polygon class="cls-1" points="930.36 555.02 930.48 513.8 966.35 534.51 966.24 575.73 930.36 555.02"/></clipPath><clipPath id="clip-path-23" transform="translate(-750.96 -247)"><polygon class="cls-1" points="966.2 575.73 966.08 534.51 1001.96 513.8 1002.07 555.02 966.2 575.73"/></clipPath><clipPath id="clip-path-24" transform="translate(-750.96 -247)"><polygon class="cls-1" points="930.44 513.85 966.09 493.13 1001.97 513.84 966.32 534.56 930.44 513.85"/></clipPath><clipPath id="clip-path-25" transform="translate(-750.96 -247)"><polygon class="cls-1" points="966.22 493.27 966.34 452.05 1002.21 472.76 1002.1 513.98 966.22 493.27"/></clipPath><clipPath id="clip-path-26" transform="translate(-750.96 -247)"><polygon class="cls-1" points="1002.06 513.98 1001.94 472.76 1037.82 452.05 1037.93 493.27 1002.06 513.98"/></clipPath><clipPath id="clip-path-27" transform="translate(-750.96 -247)"><polygon class="cls-1" points="966.3 452.1 1001.95 431.38 1037.83 452.09 1002.18 472.81 966.3 452.1"/></clipPath><clipPath id="clip-path-28" transform="translate(-750.96 -247)"><polygon class="cls-1" points="1001.97 555.15 1002.09 513.93 1037.96 534.64 1037.85 575.86 1001.97 555.15"/></clipPath><clipPath id="clip-path-29" transform="translate(-750.96 -247)"><polygon class="cls-1" points="1037.81 575.86 1037.69 534.64 1073.57 513.93 1073.68 555.15 1037.81 575.86"/></clipPath><clipPath id="clip-path-30" transform="translate(-750.96 -247)"><polygon class="cls-1" points="1002.05 513.98 1037.7 493.26 1073.58 513.97 1037.93 534.69 1002.05 513.98"/></clipPath><clipPath id="clip-path-31" transform="translate(-750.96 -247)"><polygon class="cls-1" points="966.08 615.76 966.2 574.54 1002.07 595.25 1001.96 636.47 966.08 615.76"/></clipPath><clipPath id="clip-path-32" transform="translate(-750.96 -247)"><polygon class="cls-1" points="1001.92 636.47 1001.8 595.25 1037.68 574.54 1037.79 615.76 1001.92 636.47"/></clipPath><clipPath id="clip-path-33" transform="translate(-750.96 -247)"><polygon class="cls-1" points="966.16 574.59 1001.81 553.87 1037.69 574.58 1002.04 595.3 966.16 574.59"/></clipPath><clipPath id="clip-path-34" transform="translate(-750.96 -247)"><polygon class="cls-1" points="1037.73 495.72 1037.85 454.5 1073.72 475.21 1073.61 516.43 1037.73 495.72"/></clipPath><clipPath id="clip-path-35" transform="translate(-750.96 -247)"><polygon class="cls-1" points="1073.57 516.43 1073.45 475.21 1109.33 454.5 1109.44 495.72 1073.57 516.43"/></clipPath><clipPath id="clip-path-36" transform="translate(-750.96 -247)"><polygon class="cls-1" points="1037.81 454.55 1073.46 433.83 1109.34 454.54 1073.69 475.26 1037.81 454.55"/></clipPath><clipPath id="clip-path-37" transform="translate(-750.96 -247)"><polygon class="cls-1" points="1037.59 615.89 1037.71 574.67 1073.58 595.38 1073.47 636.6 1037.59 615.89"/></clipPath><clipPath id="clip-path-38" transform="translate(-750.96 -247)"><polygon class="cls-1" points="1073.43 636.6 1073.31 595.38 1109.19 574.67 1109.3 615.89 1073.43 636.6"/></clipPath><clipPath id="clip-path-39" transform="translate(-750.96 -247)"><polygon class="cls-1" points="1037.67 574.72 1073.32 554 1109.2 574.71 1073.55 595.43 1037.67 574.72"/></clipPath><clipPath id="clip-path-40" transform="translate(-750.96 -247)"><polygon class="cls-1" points="1073.48 555.15 1073.6 513.93 1109.47 534.64 1109.36 575.86 1073.48 555.15"/></clipPath><clipPath id="clip-path-41" transform="translate(-750.96 -247)"><polygon class="cls-1" points="1109.32 575.86 1109.2 534.64 1145.08 513.93 1145.19 555.15 1109.32 575.86"/></clipPath><clipPath id="clip-path-42" transform="translate(-750.96 -247)"><polygon class="cls-1" points="1073.56 513.98 1109.21 493.26 1145.09 513.97 1109.44 534.69 1073.56 513.98"/></clipPath><clipPath id="clip-path-43" transform="translate(-750.96 -247)"><polygon class="cls-1" points="894.79 738.7 894.91 697.48 930.78 718.18 930.67 759.4 894.79 738.7"/></clipPath><clipPath id="clip-path-44" transform="translate(-750.96 -247)"><polygon class="cls-1" points="930.63 759.4 930.51 718.18 966.39 697.48 966.5 738.7 930.63 759.4"/></clipPath><clipPath id="clip-path-45" transform="translate(-750.96 -247)"><polygon class="cls-1" points="894.87 697.52 930.52 676.8 966.4 697.51 930.75 718.24 894.87 697.52"/></clipPath><clipPath id="clip-path-46" transform="translate(-750.96 -247)"><polygon class="cls-1" points="930.65 676.94 930.77 635.72 966.64 656.43 966.53 697.65 930.65 676.94"/></clipPath><clipPath id="clip-path-47" transform="translate(-750.96 -247)"><polygon class="cls-1" points="966.49 697.65 966.37 656.43 1002.25 635.72 1002.36 676.94 966.49 697.65"/></clipPath><clipPath id="clip-path-48" transform="translate(-750.96 -247)"><polygon class="cls-1" points="930.73 635.77 966.38 615.05 1002.26 635.76 966.61 656.48 930.73 635.77"/></clipPath><clipPath id="clip-path-49" transform="translate(-750.96 -247)"><polygon class="cls-1" points="966.4 738.83 966.52 697.61 1002.39 718.32 1002.28 759.53 966.4 738.83"/></clipPath><clipPath id="clip-path-50" transform="translate(-750.96 -247)"><polygon class="cls-1" points="1002.24 759.53 1002.12 718.32 1038 697.61 1038.11 738.83 1002.24 759.53"/></clipPath><clipPath id="clip-path-51" transform="translate(-750.96 -247)"><polygon class="cls-1" points="966.48 697.65 1002.13 676.93 1038.01 697.64 1002.36 718.37 966.48 697.65"/></clipPath><clipPath id="clip-path-52" transform="translate(-750.96 -247)"><polygon class="cls-1" points="930.51 799.43 930.63 758.21 966.5 778.92 966.39 820.14 930.51 799.43"/></clipPath><clipPath id="clip-path-53" transform="translate(-750.96 -247)"><polygon class="cls-1" points="966.35 820.14 966.23 778.92 1002.11 758.21 1002.22 799.43 966.35 820.14"/></clipPath><clipPath id="clip-path-54" transform="translate(-750.96 -247)"><polygon class="cls-1" points="930.59 758.26 966.24 737.54 1002.12 758.25 966.47 778.97 930.59 758.26"/></clipPath><clipPath id="clip-path-55" transform="translate(-750.96 -247)"><polygon class="cls-1" points="1002.16 679.39 1002.28 638.17 1038.15 658.88 1038.04 700.1 1002.16 679.39"/></clipPath><clipPath id="clip-path-56" transform="translate(-750.96 -247)"><polygon class="cls-1" points="1038 700.1 1037.88 658.88 1073.76 638.17 1073.87 679.39 1038 700.1"/></clipPath><clipPath id="clip-path-57" transform="translate(-750.96 -247)"><polygon class="cls-1" points="1002.24 638.22 1037.89 617.5 1073.77 638.21 1038.12 658.93 1002.24 638.22"/></clipPath><clipPath id="clip-path-58" transform="translate(-750.96 -247)"><polygon class="cls-1" points="1002.02 799.56 1002.14 758.34 1038.01 779.05 1037.9 820.27 1002.02 799.56"/></clipPath><clipPath id="clip-path-59" transform="translate(-750.96 -247)"><polygon class="cls-1" points="1037.86 820.27 1037.74 779.05 1073.62 758.34 1073.73 799.56 1037.86 820.27"/></clipPath><clipPath id="clip-path-60" transform="translate(-750.96 -247)"><polygon class="cls-1" points="1002.1 758.39 1037.75 737.67 1073.63 758.38 1037.98 779.1 1002.1 758.39"/></clipPath><clipPath id="clip-path-61" transform="translate(-750.96 -247)"><polygon class="cls-1" points="1037.91 738.83 1038.03 697.61 1073.9 718.32 1073.79 759.53 1037.91 738.83"/></clipPath><clipPath id="clip-path-62" transform="translate(-750.96 -247)"><polygon class="cls-1" points="1073.75 759.53 1073.63 718.32 1109.51 697.61 1109.62 738.83 1073.75 759.53"/></clipPath><clipPath id="clip-path-63" transform="translate(-750.96 -247)"><polygon class="cls-1" points="1037.99 697.65 1073.64 676.93 1109.52 697.64 1073.87 718.37 1037.99 697.65"/></clipPath><clipPath id="clip-path-64" transform="translate(-750.96 -247)"><polygon class="cls-1" points="1073.9 677.51 1074.02 636.29 1109.89 657 1109.78 698.23 1073.9 677.51"/></clipPath><clipPath id="clip-path-65" transform="translate(-750.96 -247)"><polygon class="cls-1" points="1109.74 698.23 1109.62 657 1145.5 636.29 1145.61 677.51 1109.74 698.23"/></clipPath><clipPath id="clip-path-66" transform="translate(-750.96 -247)"><polygon class="cls-1" points="1073.98 636.35 1109.63 615.63 1145.51 636.34 1109.86 657.05 1073.98 636.35"/></clipPath><clipPath id="clip-path-67" transform="translate(-750.96 -247)"><polygon class="cls-1" points="1109.76 615.76 1109.88 574.54 1145.75 595.25 1145.64 636.47 1109.76 615.76"/></clipPath><clipPath id="clip-path-68" transform="translate(-750.96 -247)"><polygon class="cls-1" points="1145.6 636.47 1145.48 595.25 1181.36 574.54 1181.47 615.76 1145.6 636.47"/></clipPath><clipPath id="clip-path-69" transform="translate(-750.96 -247)"><polygon class="cls-1" points="1109.84 574.59 1145.49 553.87 1181.37 574.58 1145.72 595.3 1109.84 574.59"/></clipPath><clipPath id="clip-path-70" transform="translate(-750.96 -247)"><polygon class="cls-1" points="1145.51 677.64 1145.63 636.42 1181.5 657.13 1181.39 698.36 1145.51 677.64"/></clipPath><clipPath id="clip-path-71" transform="translate(-750.96 -247)"><polygon class="cls-1" points="1181.35 698.36 1181.23 657.13 1217.11 636.42 1217.22 677.64 1181.35 698.36"/></clipPath><clipPath id="clip-path-72" transform="translate(-750.96 -247)"><polygon class="cls-1" points="1145.59 636.48 1181.24 615.75 1217.12 636.47 1181.47 657.18 1145.59 636.48"/></clipPath><clipPath id="clip-path-73" transform="translate(-750.96 -247)"><polygon class="cls-1" points="1109.62 738.25 1109.74 697.03 1145.61 717.74 1145.5 758.96 1109.62 738.25"/></clipPath><clipPath id="clip-path-74" transform="translate(-750.96 -247)"><polygon class="cls-1" points="1145.46 758.96 1145.34 717.74 1181.22 697.03 1181.33 738.25 1145.46 758.96"/></clipPath><clipPath id="clip-path-75" transform="translate(-750.96 -247)"><polygon class="cls-1" points="1109.7 697.08 1145.35 676.36 1181.23 697.07 1145.58 717.79 1109.7 697.08"/></clipPath><clipPath id="clip-path-76" transform="translate(-750.96 -247)"><polygon class="cls-1" points="1181.27 618.21 1181.39 576.99 1217.26 597.7 1217.15 638.92 1181.27 618.21"/></clipPath><clipPath id="clip-path-77" transform="translate(-750.96 -247)"><polygon class="cls-1" points="1217.11 638.92 1216.99 597.7 1252.87 576.99 1252.98 618.21 1217.11 638.92"/></clipPath><clipPath id="clip-path-78" transform="translate(-750.96 -247)"><polygon class="cls-1" points="1181.35 577.04 1217 556.32 1252.88 577.03 1217.23 597.75 1181.35 577.04"/></clipPath><clipPath id="clip-path-79" transform="translate(-750.96 -247)"><polygon class="cls-1" points="1181.13 738.38 1181.25 697.16 1217.12 717.87 1217.01 759.09 1181.13 738.38"/></clipPath><clipPath id="clip-path-80" transform="translate(-750.96 -247)"><polygon class="cls-1" points="1216.97 759.09 1216.85 717.87 1252.73 697.16 1252.84 738.38 1216.97 759.09"/></clipPath><clipPath id="clip-path-81" transform="translate(-750.96 -247)"><polygon class="cls-1" points="1181.21 697.21 1216.86 676.49 1252.74 697.2 1217.09 717.92 1181.21 697.21"/></clipPath><clipPath id="clip-path-82" transform="translate(-750.96 -247)"><polygon class="cls-1" points="1217.02 677.64 1217.14 636.42 1253.01 657.13 1252.9 698.36 1217.02 677.64"/></clipPath><clipPath id="clip-path-83" transform="translate(-750.96 -247)"><polygon class="cls-1" points="1252.86 698.36 1252.74 657.13 1288.62 636.42 1288.73 677.64 1252.86 698.36"/></clipPath><clipPath id="clip-path-84" transform="translate(-750.96 -247)"><polygon class="cls-1" points="1217.1 636.48 1252.75 615.75 1288.63 636.47 1252.98 657.18 1217.1 636.48"/></clipPath><clipPath id="clip-path-85" transform="translate(-750.96 -247)"><polygon class="cls-1" points="965.9 371.22 966.02 330 1001.89 350.71 1001.78 391.93 965.9 371.22"/></clipPath><clipPath id="clip-path-86" transform="translate(-750.96 -247)"><polygon class="cls-1" points="1001.74 391.93 1001.62 350.71 1037.5 330 1037.61 371.22 1001.74 391.93"/></clipPath><clipPath id="clip-path-87" transform="translate(-750.96 -247)"><polygon class="cls-1" points="965.98 330.05 1001.63 309.33 1037.51 330.04 1001.86 350.76 965.98 330.05"/></clipPath><clipPath id="clip-path-88" transform="translate(-750.96 -247)"><polygon class="cls-1" points="1001.75 309.47 1001.87 268.25 1037.74 288.96 1037.63 330.18 1001.75 309.47"/></clipPath><clipPath id="clip-path-89" transform="translate(-750.96 -247)"><polygon class="cls-1" points="1037.59 330.18 1037.47 288.96 1073.35 268.25 1073.46 309.47 1037.59 330.18"/></clipPath><clipPath id="clip-path-90" transform="translate(-750.96 -247)"><polygon class="cls-1" points="1001.83 268.3 1037.48 247.58 1073.36 268.29 1037.71 289.01 1001.83 268.3"/></clipPath><clipPath id="clip-path-91" transform="translate(-750.96 -247)"><polygon class="cls-1" points="1037.51 371.35 1037.63 330.13 1073.5 350.84 1073.39 392.06 1037.51 371.35"/></clipPath><clipPath id="clip-path-92" transform="translate(-750.96 -247)"><polygon class="cls-1" points="1073.35 392.06 1073.23 350.84 1109.11 330.13 1109.22 371.35 1073.35 392.06"/></clipPath><clipPath id="clip-path-93" transform="translate(-750.96 -247)"><polygon class="cls-1" points="1037.59 330.18 1073.24 309.46 1109.12 330.17 1073.47 350.89 1037.59 330.18"/></clipPath><clipPath id="clip-path-94" transform="translate(-750.96 -247)"><polygon class="cls-1" points="1001.62 431.96 1001.74 390.74 1037.61 411.45 1037.5 452.67 1001.62 431.96"/></clipPath><clipPath id="clip-path-95" transform="translate(-750.96 -247)"><polygon class="cls-1" points="1037.46 452.67 1037.34 411.45 1073.22 390.74 1073.33 431.96 1037.46 452.67"/></clipPath><clipPath id="clip-path-96" transform="translate(-750.96 -247)"><polygon class="cls-1" points="1001.7 390.79 1037.35 370.07 1073.23 390.78 1037.58 411.5 1001.7 390.79"/></clipPath><clipPath id="clip-path-97" transform="translate(-750.96 -247)"><polygon class="cls-1" points="1073.26 311.92 1073.38 270.69 1109.25 291.4 1109.14 332.63 1073.26 311.92"/></clipPath><clipPath id="clip-path-98" transform="translate(-750.96 -247)"><polygon class="cls-1" points="1109.1 332.63 1108.98 291.4 1144.86 270.69 1144.97 311.92 1109.1 332.63"/></clipPath><clipPath id="clip-path-99" transform="translate(-750.96 -247)"><polygon class="cls-1" points="1073.34 270.75 1108.99 250.03 1144.87 270.74 1109.22 291.45 1073.34 270.75"/></clipPath><clipPath id="clip-path-100" transform="translate(-750.96 -247)"><polygon class="cls-1" points="1073.13 432.09 1073.25 390.87 1109.12 411.58 1109.01 452.8 1073.13 432.09"/></clipPath><clipPath id="clip-path-101" transform="translate(-750.96 -247)"><polygon class="cls-1" points="1108.97 452.8 1108.85 411.58 1144.73 390.87 1144.84 432.09 1108.97 452.8"/></clipPath><clipPath id="clip-path-102" transform="translate(-750.96 -247)"><polygon class="cls-1" points="1073.21 390.92 1108.86 370.2 1144.74 390.91 1109.09 411.63 1073.21 390.92"/></clipPath><clipPath id="clip-path-103" transform="translate(-750.96 -247)"><polygon class="cls-1" points="1109.02 371.35 1109.14 330.13 1145.01 350.84 1144.9 392.06 1109.02 371.35"/></clipPath><clipPath id="clip-path-104" transform="translate(-750.96 -247)"><polygon class="cls-1" points="1144.86 392.06 1144.74 350.84 1180.62 330.13 1180.73 371.35 1144.86 392.06"/></clipPath><clipPath id="clip-path-105" transform="translate(-750.96 -247)"><polygon class="cls-1" points="1109.1 330.18 1144.75 309.46 1180.63 330.17 1144.98 350.89 1109.1 330.18"/></clipPath><clipPath id="clip-path-106" transform="translate(-750.96 -247)"><polygon class="cls-1" points="1109.44 493.71 1109.56 452.49 1145.43 473.2 1145.32 514.42 1109.44 493.71"/></clipPath><clipPath id="clip-path-107" transform="translate(-750.96 -247)"><polygon class="cls-1" points="1145.28 514.42 1145.16 473.2 1181.04 452.49 1181.15 493.71 1145.28 514.42"/></clipPath><clipPath id="clip-path-108" transform="translate(-750.96 -247)"><polygon class="cls-1" points="1109.52 452.54 1145.17 431.82 1181.05 452.53 1145.4 473.25 1109.52 452.54"/></clipPath><clipPath id="clip-path-109" transform="translate(-750.96 -247)"><polygon class="cls-1" points="1145.29 431.96 1145.41 390.74 1181.28 411.45 1181.17 452.67 1145.29 431.96"/></clipPath><clipPath id="clip-path-110" transform="translate(-750.96 -247)"><polygon class="cls-1" points="1181.13 452.67 1181.01 411.45 1216.89 390.74 1217 431.96 1181.13 452.67"/></clipPath><clipPath id="clip-path-111" transform="translate(-750.96 -247)"><polygon class="cls-1" points="1145.37 390.79 1181.02 370.07 1216.9 390.78 1181.25 411.5 1145.37 390.79"/></clipPath><clipPath id="clip-path-112" transform="translate(-750.96 -247)"><polygon class="cls-1" points="1181.05 493.84 1181.17 452.62 1217.04 473.33 1216.93 514.55 1181.05 493.84"/></clipPath><clipPath id="clip-path-113" transform="translate(-750.96 -247)"><polygon class="cls-1" points="1216.89 514.55 1216.77 473.33 1252.65 452.62 1252.76 493.84 1216.89 514.55"/></clipPath><clipPath id="clip-path-114" transform="translate(-750.96 -247)"><polygon class="cls-1" points="1181.13 452.67 1216.78 431.95 1252.66 452.66 1217.01 473.38 1181.13 452.67"/></clipPath><clipPath id="clip-path-115" transform="translate(-750.96 -247)"><polygon class="cls-1" points="1145.16 554.45 1145.28 513.23 1181.15 533.94 1181.04 575.16 1145.16 554.45"/></clipPath><clipPath id="clip-path-116" transform="translate(-750.96 -247)"><polygon class="cls-1" points="1181 575.16 1180.88 533.94 1216.76 513.23 1216.87 554.45 1181 575.16"/></clipPath><clipPath id="clip-path-117" transform="translate(-750.96 -247)"><polygon class="cls-1" points="1145.24 513.28 1180.89 492.56 1216.77 513.27 1181.12 533.99 1145.24 513.28"/></clipPath><clipPath id="clip-path-118" transform="translate(-750.96 -247)"><polygon class="cls-1" points="1216.8 434.41 1216.92 393.19 1252.79 413.9 1252.68 455.12 1216.8 434.41"/></clipPath><clipPath id="clip-path-119" transform="translate(-750.96 -247)"><polygon class="cls-1" points="1252.64 455.12 1252.52 413.9 1288.4 393.19 1288.51 434.41 1252.64 455.12"/></clipPath><clipPath id="clip-path-120" transform="translate(-750.96 -247)"><polygon class="cls-1" points="1216.88 393.24 1252.53 372.52 1288.41 393.23 1252.76 413.95 1216.88 393.24"/></clipPath><clipPath id="clip-path-121" transform="translate(-750.96 -247)"><polygon class="cls-1" points="1216.67 554.58 1216.79 513.36 1252.66 534.07 1252.55 575.29 1216.67 554.58"/></clipPath><clipPath id="clip-path-122" transform="translate(-750.96 -247)"><polygon class="cls-1" points="1252.51 575.29 1252.39 534.07 1288.27 513.36 1288.38 554.58 1252.51 575.29"/></clipPath><clipPath id="clip-path-123" transform="translate(-750.96 -247)"><polygon class="cls-1" points="1216.75 513.41 1252.4 492.69 1288.28 513.4 1252.63 534.12 1216.75 513.41"/></clipPath><clipPath id="clip-path-124" transform="translate(-750.96 -247)"><polygon class="cls-1" points="1252.56 493.84 1252.68 452.62 1288.55 473.33 1288.44 514.55 1252.56 493.84"/></clipPath><clipPath id="clip-path-125" transform="translate(-750.96 -247)"><polygon class="cls-1" points="1288.4 514.55 1288.28 473.33 1324.16 452.62 1324.27 493.84 1288.4 514.55"/></clipPath><clipPath id="clip-path-126" transform="translate(-750.96 -247)"><polygon class="cls-1" points="1252.64 452.67 1288.29 431.95 1324.17 452.66 1288.52 473.38 1252.64 452.67"/></clipPath><clipPath id="clip-path-127" transform="translate(-750.96 -247)"><polygon class="cls-1" points="787.23 432.4 787.35 391.18 823.22 411.89 823.11 453.11 787.23 432.4"/></clipPath><clipPath id="clip-path-128" transform="translate(-750.96 -247)"><polygon class="cls-1" points="823.07 453.11 822.95 411.89 858.83 391.18 858.94 432.4 823.07 453.11"/></clipPath><clipPath id="clip-path-129" transform="translate(-750.96 -247)"><polygon class="cls-1" points="787.31 391.23 822.96 370.51 858.84 391.22 823.19 411.94 787.31 391.23"/></clipPath><clipPath id="clip-path-130" transform="translate(-750.96 -247)"><polygon class="cls-1" points="823.08 370.65 823.2 329.43 859.07 350.14 858.96 391.36 823.08 370.65"/></clipPath><clipPath id="clip-path-131" transform="translate(-750.96 -247)"><polygon class="cls-1" points="858.92 391.36 858.8 350.14 894.68 329.43 894.79 370.65 858.92 391.36"/></clipPath><clipPath id="clip-path-132" transform="translate(-750.96 -247)"><polygon class="cls-1" points="823.16 329.48 858.81 308.76 894.69 329.47 859.04 350.19 823.16 329.48"/></clipPath><clipPath id="clip-path-133" transform="translate(-750.96 -247)"><polygon class="cls-1" points="858.84 432.53 858.96 391.31 894.83 412.02 894.72 453.24 858.84 432.53"/></clipPath><clipPath id="clip-path-134" transform="translate(-750.96 -247)"><polygon class="cls-1" points="894.68 453.24 894.56 412.02 930.44 391.31 930.55 432.53 894.68 453.24"/></clipPath><clipPath id="clip-path-135" transform="translate(-750.96 -247)"><polygon class="cls-1" points="858.92 391.36 894.57 370.64 930.45 391.35 894.8 412.07 858.92 391.36"/></clipPath><clipPath id="clip-path-136" transform="translate(-750.96 -247)"><polygon class="cls-1" points="822.95 493.14 823.07 451.92 858.94 472.63 858.83 513.85 822.95 493.14"/></clipPath><clipPath id="clip-path-137" transform="translate(-750.96 -247)"><polygon class="cls-1" points="858.79 513.85 858.67 472.63 894.55 451.92 894.66 493.14 858.79 513.85"/></clipPath><clipPath id="clip-path-138" transform="translate(-750.96 -247)"><polygon class="cls-1" points="823.03 451.97 858.68 431.25 894.56 451.96 858.91 472.68 823.03 451.97"/></clipPath><clipPath id="clip-path-139" transform="translate(-750.96 -247)"><polygon class="cls-1" points="894.59 373.1 894.71 331.88 930.58 352.58 930.47 393.81 894.59 373.1"/></clipPath><clipPath id="clip-path-140" transform="translate(-750.96 -247)"><polygon class="cls-1" points="930.43 393.81 930.31 352.58 966.19 331.88 966.3 373.1 930.43 393.81"/></clipPath><clipPath id="clip-path-141" transform="translate(-750.96 -247)"><polygon class="cls-1" points="894.67 331.93 930.32 311.2 966.2 331.92 930.55 352.63 894.67 331.93"/></clipPath><clipPath id="clip-path-142" transform="translate(-750.96 -247)"><polygon class="cls-1" points="894.46 493.27 894.58 452.05 930.45 472.76 930.34 513.98 894.46 493.27"/></clipPath><clipPath id="clip-path-143" transform="translate(-750.96 -247)"><polygon class="cls-1" points="930.3 513.98 930.18 472.76 966.06 452.05 966.17 493.27 930.3 513.98"/></clipPath><clipPath id="clip-path-144" transform="translate(-750.96 -247)"><polygon class="cls-1" points="894.54 452.1 930.19 431.38 966.07 452.09 930.42 472.81 894.54 452.1"/></clipPath><clipPath id="clip-path-145" transform="translate(-750.96 -247)"><polygon class="cls-1" points="930.35 432.53 930.47 391.31 966.34 412.02 966.23 453.24 930.35 432.53"/></clipPath><clipPath id="clip-path-146" transform="translate(-750.96 -247)"><polygon class="cls-1" points="966.19 453.24 966.07 412.02 1001.95 391.31 1002.06 432.53 966.19 453.24"/></clipPath><clipPath id="clip-path-147" transform="translate(-750.96 -247)"><polygon class="cls-1" points="930.43 391.36 966.08 370.64 1001.96 391.35 966.31 412.07 930.43 391.36"/></clipPath></defs><g id="Camada_1-2" data-name="Camada 1-2"><g class="cls-2"><polyline class="cls-3" points="36.2 349.1 1.74 329.2 1.63 368.8 36.09 388.69 36.2 349.1"/><path class="cls-4" d="M752.59,615.79l.11-39.59,34.46,19.89-.11,39.6-34.46-19.9m35.29-20.1L752,575l-.12,41.22,35.88,20.71.12-41.22" transform="translate(-750.96 -247)"/></g><polygon class="cls-1" points="0.92 369.2 1.04 327.99 36.91 348.69 36.8 389.92 0.92 369.2"/><g class="cls-5"><polyline class="cls-3" points="71.81 329.2 37.35 349.1 37.46 388.69 71.92 368.8 71.81 329.2"/><path class="cls-4" d="M788.42,635.69l-.11-39.6,34.46-19.89.11,39.59-34.46,19.9M823.48,575,787.6,595.69l.12,41.22,35.87-20.71L823.48,575" transform="translate(-750.96 -247)"/></g><polygon class="cls-1" points="36.76 389.92 36.64 348.69 72.52 327.99 72.63 369.2 36.76 389.92"/><g class="cls-6"><polyline class="cls-3" points="71.11 328.02 36.65 308.13 2.42 328.02 36.88 347.93 71.11 328.02"/><path class="cls-4" d="M753.38,575l34.23-19.89L822.07,575l-34.19,19.9L753.38,575m70.11,0-35.88-20.71L752,575l35.92,20.71L823.49,575" transform="translate(-750.96 -247)"/></g><polygon class="cls-1" points="1 328.04 36.65 307.31 72.53 328.02 36.88 348.75 1 328.04"/><g id="Camada_1-2-2" data-name="Camada 1-2"><g class="cls-7"><polyline class="cls-3" points="72.05 287.34 37.59 267.45 37.48 307.04 71.94 326.94 72.05 287.34"/><path class="cls-4" d="M788.44,554l.11-39.59L823,534.34l-.11,39.6L788.44,554m35.29-20.1-35.88-20.71-.12,41.22,35.88,20.71.12-41.22" transform="translate(-750.96 -247)"/></g><polygon class="cls-1" points="36.77 307.45 36.89 266.23 72.76 286.94 72.65 328.16 36.77 307.45"/><g class="cls-8"><polyline class="cls-3" points="107.66 267.45 73.2 287.34 73.31 326.94 107.77 307.04 107.66 267.45"/><path class="cls-4" d="M824.27,573.94l-.11-39.6,34.46-19.89.11,39.59-34.46,19.9m35.06-60.71-35.88,20.71.12,41.22,35.87-20.71-.11-41.22" transform="translate(-750.96 -247)"/></g><polygon class="cls-1" points="72.61 328.16 72.49 286.94 108.37 266.23 108.48 307.45 72.61 328.16"/><g class="cls-9"><polyline class="cls-3" points="106.96 266.27 72.5 246.38 38.27 266.27 72.73 286.17 106.96 266.27"/><path class="cls-4" d="M789.23,513.27l34.23-19.89,34.46,19.89-34.19,19.9-34.5-19.9m70.11,0-35.88-20.71-35.65,20.72L823.73,534l35.61-20.72" transform="translate(-750.96 -247)"/></g><polygon class="cls-1" points="36.85 266.28 72.5 245.56 108.38 266.27 72.73 286.99 36.85 266.28"/></g><g id="Camada_1-2-3" data-name="Camada 1-2"><g class="cls-10"><polyline class="cls-3" points="107.81 349.23 73.35 329.33 73.24 368.93 107.7 388.82 107.81 349.23"/><path class="cls-4" d="M824.2,615.92l.11-39.59,34.46,19.89-.11,39.6-34.46-19.9m35.29-20.1-35.88-20.71-.12,41.22L859.37,637l.12-41.22" transform="translate(-750.96 -247)"/></g><polygon class="cls-1" points="72.53 369.33 72.65 328.12 108.52 348.82 108.41 390.05 72.53 369.33"/><g class="cls-11"><polyline class="cls-3" points="143.42 329.33 108.96 349.23 109.07 388.82 143.53 368.93 143.42 329.33"/><path class="cls-4" d="M860,635.82l-.11-39.6,34.46-19.89.11,39.59L860,635.82m35.06-60.71-35.88,20.71.12,41.22,35.87-20.71-.11-41.22" transform="translate(-750.96 -247)"/></g><polygon class="cls-1" points="108.37 390.05 108.25 348.82 144.13 328.12 144.24 369.33 108.37 390.05"/><g class="cls-12"><polyline class="cls-3" points="142.72 328.15 108.26 308.26 74.03 328.15 108.49 348.06 142.72 328.15"/><path class="cls-4" d="M825,575.15l34.23-19.89,34.46,19.89-34.19,19.9L825,575.15m70.11,0-35.88-20.71-35.65,20.72,35.92,20.71,35.61-20.72" transform="translate(-750.96 -247)"/></g><polygon class="cls-1" points="72.61 328.17 108.26 307.44 144.14 328.15 108.49 348.88 72.61 328.17"/></g><g id="Camada_1-2-4" data-name="Camada 1-2"><g class="cls-13"><polyline class="cls-3" points="71.92 409.83 37.46 389.94 37.35 429.53 71.81 449.43 71.92 409.83"/><path class="cls-4" d="M788.31,676.53l.11-39.59,34.46,19.89-.11,39.6-34.46-19.9m35.29-20.1-35.88-20.71-.12,41.22,35.88,20.71.12-41.22" transform="translate(-750.96 -247)"/></g><polygon class="cls-1" points="36.64 429.94 36.76 388.72 72.63 409.43 72.52 450.65 36.64 429.94"/><g class="cls-14"><polyline class="cls-3" points="107.53 389.94 73.07 409.83 73.18 449.43 107.64 429.53 107.53 389.94"/><path class="cls-4" d="M824.14,696.43l-.11-39.6,34.46-19.89.11,39.59-34.46,19.9m35.06-60.71-35.88,20.71.12,41.22,35.87-20.71-.11-41.22" transform="translate(-750.96 -247)"/></g><polygon class="cls-1" points="72.48 450.65 72.36 409.43 108.24 388.72 108.35 429.94 72.48 450.65"/><g class="cls-15"><polyline class="cls-3" points="106.83 388.76 72.37 368.87 38.14 388.76 72.6 408.66 106.83 388.76"/><path class="cls-4" d="M789.1,635.76l34.23-19.89,34.46,19.89-34.19,19.9-34.5-19.9m70.11,0-35.88-20.71-35.65,20.72,35.92,20.71,35.61-20.72" transform="translate(-750.96 -247)"/></g><polygon class="cls-1" points="36.72 388.77 72.37 368.05 108.25 388.76 72.6 409.48 36.72 388.77"/></g><g id="Camada_1-2-5" data-name="Camada 1-2"><g class="cls-16"><polyline class="cls-3" points="143.56 289.79 109.1 269.9 108.99 309.49 143.45 329.39 143.56 289.79"/><path class="cls-4" d="M860,556.49l.11-39.59,34.46,19.89-.11,39.6L860,556.49m35.29-20.1-35.88-20.71-.12,41.22,35.88,20.71.12-41.22" transform="translate(-750.96 -247)"/></g><polygon class="cls-1" points="108.28 309.9 108.4 268.68 144.27 289.39 144.16 330.61 108.28 309.9"/><g class="cls-17"><polyline class="cls-3" points="179.17 269.9 144.71 289.79 144.82 329.39 179.28 309.49 179.17 269.9"/><path class="cls-4" d="M895.78,576.39l-.11-39.6,34.46-19.89.11,39.59-34.46,19.9m35.06-60.71L895,536.39l.12,41.22L931,556.9l-.11-41.22" transform="translate(-750.96 -247)"/></g><polygon class="cls-1" points="144.12 330.61 144 289.39 179.88 268.68 179.99 309.9 144.12 330.61"/><g class="cls-18"><polyline class="cls-3" points="178.47 268.72 144.01 248.83 109.78 268.72 144.24 288.62 178.47 268.72"/><path class="cls-4" d="M860.74,515.72,895,495.83l34.46,19.89-34.19,19.9-34.5-19.9m70.11,0L895,495l-35.65,20.72,35.92,20.71,35.61-20.72" transform="translate(-750.96 -247)"/></g><polygon class="cls-1" points="108.36 268.73 144.01 248.01 179.89 268.72 144.24 289.44 108.36 268.73"/></g><g id="Camada_1-2-6" data-name="Camada 1-2"><g class="cls-19"><polyline class="cls-3" points="143.43 409.96 108.97 390.07 108.86 429.66 143.32 449.56 143.43 409.96"/><path class="cls-4" d="M859.82,676.66l.11-39.59L894.39,657l-.11,39.6-34.46-19.9m35.29-20.1-35.88-20.71-.12,41.22L895,697.78l.12-41.22" transform="translate(-750.96 -247)"/></g><polygon class="cls-1" points="108.15 430.07 108.27 388.85 144.14 409.56 144.03 450.78 108.15 430.07"/><g class="cls-20"><polyline class="cls-3" points="179.04 390.07 144.58 409.96 144.69 449.56 179.15 429.66 179.04 390.07"/><path class="cls-4" d="M895.65,696.56l-.11-39.6L930,637.07l.11,39.59-34.46,19.9m35.06-60.71-35.88,20.71.12,41.22,35.87-20.71-.11-41.22" transform="translate(-750.96 -247)"/></g><polygon class="cls-1" points="143.99 450.78 143.87 409.56 179.75 388.85 179.86 430.07 143.99 450.78"/><g class="cls-21"><polyline class="cls-3" points="178.34 388.89 143.88 369 109.65 388.89 144.11 408.79 178.34 388.89"/><path class="cls-4" d="M860.61,635.89,894.84,616l34.46,19.89-34.19,19.9-34.5-19.9m70.11,0-35.88-20.71L859.19,635.9l35.92,20.71,35.61-20.72" transform="translate(-750.96 -247)"/></g><polygon class="cls-1" points="108.23 388.9 143.88 368.18 179.76 388.89 144.11 409.61 108.23 388.9"/></g><g id="Camada_1-2-7" data-name="Camada 1-2"><g class="cls-22"><polyline class="cls-3" points="179.32 349.23 144.86 329.33 144.75 368.93 179.21 388.82 179.32 349.23"/><path class="cls-4" d="M895.71,615.92l.11-39.59,34.46,19.89-.11,39.6-34.46-19.9M931,595.82l-35.88-20.71L895,616.33,930.88,637l.12-41.22" transform="translate(-750.96 -247)"/></g><polygon class="cls-1" points="144.04 369.33 144.16 328.12 180.03 348.82 179.92 390.05 144.04 369.33"/><g class="cls-23"><polyline class="cls-3" points="214.93 329.33 180.47 349.23 180.58 388.82 215.04 368.93 214.93 329.33"/><path class="cls-4" d="M931.54,635.82l-.11-39.6,34.46-19.89.11,39.59-34.46,19.9m35.06-60.71-35.88,20.71.12,41.22,35.87-20.71-.11-41.22" transform="translate(-750.96 -247)"/></g><polygon class="cls-1" points="179.88 390.05 179.76 348.82 215.64 328.12 215.75 369.33 179.88 390.05"/><g class="cls-24"><polyline class="cls-3" points="214.23 328.15 179.77 308.26 145.54 328.15 180 348.06 214.23 328.15"/><path class="cls-4" d="M896.5,575.15l34.23-19.89,34.46,19.89L931,595.05l-34.5-19.9m70.11,0-35.88-20.71-35.65,20.72L931,595.87l35.61-20.72" transform="translate(-750.96 -247)"/></g><polygon class="cls-1" points="144.12 328.17 179.77 307.44 215.65 328.15 180 348.88 144.12 328.17"/></g></g><g id="Camada_1-2-8" data-name="Camada 1-2"><g class="cls-25"><polyline class="cls-3" points="214.68 287.91 180.22 268.02 180.11 307.61 214.57 327.51 214.68 287.91"/><path class="cls-4" d="M931.07,554.61l.11-39.59,34.46,19.89-.11,39.6-34.46-19.9m35.29-20.1L930.48,513.8,930.36,555l35.88,20.71.12-41.22" transform="translate(-750.96 -247)"/></g><polygon class="cls-1" points="179.4 308.02 179.52 266.8 215.39 287.51 215.28 328.73 179.4 308.02"/><g class="cls-26"><polyline class="cls-3" points="250.29 268.02 215.83 287.91 215.94 327.51 250.4 307.61 250.29 268.02"/><path class="cls-4" d="M966.9,574.51l-.11-39.6L1001.25,515l.11,39.59-34.46,19.9M1002,513.8l-35.88,20.71.12,41.22L1002.07,555,1002,513.8" transform="translate(-750.96 -247)"/></g><polygon class="cls-1" points="215.24 328.73 215.12 287.51 251 266.8 251.11 308.02 215.24 328.73"/><g class="cls-27"><polyline class="cls-3" points="249.59 266.84 215.13 246.95 180.9 266.84 215.36 286.74 249.59 266.84"/><path class="cls-4" d="M931.86,513.84,966.09,494l34.46,19.89-34.19,19.9-34.5-19.9m70.11,0-35.88-20.71-35.65,20.72,35.92,20.71L1002,513.84" transform="translate(-750.96 -247)"/></g><polygon class="cls-1" points="179.48 266.85 215.13 246.13 251.01 266.84 215.36 287.56 179.48 266.85"/><g id="Camada_1-2-9" data-name="Camada 1-2"><g class="cls-28"><polyline class="cls-3" points="250.54 226.16 216.08 206.27 215.97 245.86 250.43 265.76 250.54 226.16"/><path class="cls-4" d="M966.93,492.86l.11-39.59,34.46,19.89-.11,39.6-34.46-19.9m35.29-20.1-35.88-20.71-.12,41.22L1002.1,514l.12-41.22" transform="translate(-750.96 -247)"/></g><polygon class="cls-1" points="215.26 246.27 215.38 205.05 251.25 225.76 251.14 266.98 215.26 246.27"/><g class="cls-29"><polyline class="cls-3" points="286.15 206.27 251.69 226.16 251.8 265.76 286.26 245.86 286.15 206.27"/><path class="cls-4" d="M1002.76,512.76l-.11-39.6,34.46-19.89.11,39.59-34.46,19.9m35.06-60.71-35.88,20.71.12,41.22,35.87-20.71-.11-41.22" transform="translate(-750.96 -247)"/></g><polygon class="cls-1" points="251.1 266.98 250.98 225.76 286.86 205.05 286.97 246.27 251.1 266.98"/><g class="cls-30"><polyline class="cls-3" points="285.45 205.09 250.99 185.2 216.76 205.09 251.22 224.99 285.45 205.09"/><path class="cls-4" d="M967.72,452.09,1002,432.2l34.46,19.89L1002.22,472l-34.5-19.9m70.11,0L1002,431.38,966.3,452.1l35.92,20.71,35.61-20.72" transform="translate(-750.96 -247)"/></g><polygon class="cls-1" points="215.34 205.1 250.99 184.38 286.87 205.09 251.22 225.81 215.34 205.1"/></g><g id="Camada_1-2-10" data-name="Camada 1-2"><g class="cls-31"><polyline class="cls-3" points="286.29 288.04 251.83 268.15 251.72 307.74 286.18 327.64 286.29 288.04"/><path class="cls-4" d="M1002.68,554.74l.11-39.59L1037.25,535l-.11,39.6-34.46-19.9m35.29-20.1-35.88-20.71-.12,41.22,35.88,20.71.12-41.22" transform="translate(-750.96 -247)"/></g><polygon class="cls-1" points="251.01 308.15 251.13 266.93 287 287.64 286.89 328.86 251.01 308.15"/><g class="cls-32"><polyline class="cls-3" points="321.9 268.15 287.44 288.04 287.55 327.64 322.01 307.74 321.9 268.15"/><path class="cls-4" d="M1038.51,574.64l-.11-39.6,34.46-19.89.11,39.59-34.46,19.9m35.06-60.71-35.88,20.71.12,41.22,35.87-20.71-.11-41.22" transform="translate(-750.96 -247)"/></g><polygon class="cls-1" points="286.85 328.86 286.73 287.64 322.61 266.93 322.72 308.15 286.85 328.86"/><g class="cls-33"><polyline class="cls-3" points="321.2 266.97 286.74 247.08 252.51 266.97 286.97 286.87 321.2 266.97"/><path class="cls-4" d="M1003.47,514l34.23-19.89L1072.16,514,1038,533.87l-34.5-19.9m70.11,0-35.88-20.71L1002.05,514,1038,534.69,1073.58,514" transform="translate(-750.96 -247)"/></g><polygon class="cls-1" points="251.09 266.98 286.74 246.26 322.62 266.97 286.97 287.69 251.09 266.98"/></g><g id="Camada_1-2-11" data-name="Camada 1-2"><g class="cls-34"><polyline class="cls-3" points="250.4 348.65 215.94 328.76 215.83 368.35 250.29 388.25 250.4 348.65"/><path class="cls-4" d="M966.79,615.35l.11-39.59,34.46,19.89-.11,39.6-34.46-19.9m35.29-20.1L966.2,574.54l-.12,41.22L1002,636.47l.12-41.22" transform="translate(-750.96 -247)"/></g><polygon class="cls-1" points="215.12 368.76 215.24 327.54 251.11 348.25 251 389.47 215.12 368.76"/><g class="cls-35"><polyline class="cls-3" points="286.01 328.76 251.55 348.65 251.66 388.25 286.12 368.35 286.01 328.76"/><path class="cls-4" d="M1002.62,635.25l-.11-39.6L1037,575.76l.11,39.59-34.46,19.9m35.06-60.71-35.88,20.71.12,41.22,35.87-20.71-.11-41.22" transform="translate(-750.96 -247)"/></g><polygon class="cls-1" points="250.96 389.47 250.84 348.25 286.72 327.54 286.83 368.76 250.96 389.47"/><g class="cls-36"><polyline class="cls-3" points="285.31 327.58 250.85 307.69 216.62 327.58 251.08 347.48 285.31 327.58"/><path class="cls-4" d="M967.58,574.58l34.23-19.89,34.46,19.89-34.19,19.9-34.5-19.9m70.11,0-35.88-20.71-35.65,20.72,35.92,20.71,35.61-20.72" transform="translate(-750.96 -247)"/></g><polygon class="cls-1" points="215.2 327.59 250.85 306.87 286.73 327.58 251.08 348.3 215.2 327.59"/></g><g id="Camada_1-2-12" data-name="Camada 1-2"><g class="cls-37"><polyline class="cls-3" points="322.05 228.61 287.59 208.72 287.48 248.31 321.94 268.21 322.05 228.61"/><path class="cls-4" d="M1038.44,495.31l.11-39.59L1073,475.61l-.11,39.6-34.46-19.9m35.29-20.1-35.88-20.71-.12,41.22,35.88,20.71.12-41.22" transform="translate(-750.96 -247)"/></g><polygon class="cls-1" points="286.77 248.72 286.89 207.5 322.76 228.21 322.65 269.43 286.77 248.72"/><g class="cls-38"><polyline class="cls-3" points="357.66 208.72 323.2 228.61 323.31 268.21 357.77 248.31 357.66 208.72"/><path class="cls-4" d="M1074.27,515.21l-.11-39.6,34.46-19.89.11,39.59-34.46,19.9m35.06-60.71-35.88,20.71.12,41.22,35.87-20.71-.11-41.22" transform="translate(-750.96 -247)"/></g><polygon class="cls-1" points="322.61 269.43 322.49 228.21 358.37 207.5 358.48 248.72 322.61 269.43"/><g class="cls-39"><polyline class="cls-3" points="356.96 207.54 322.5 187.65 288.27 207.54 322.73 227.44 356.96 207.54"/><path class="cls-4" d="M1039.23,454.54l34.23-19.89,34.46,19.89-34.19,19.9-34.5-19.9m70.11,0-35.88-20.71-35.65,20.72,35.92,20.71,35.61-20.72" transform="translate(-750.96 -247)"/></g><polygon class="cls-1" points="286.85 207.55 322.5 186.83 358.38 207.54 322.73 228.26 286.85 207.55"/></g><g id="Camada_1-2-13" data-name="Camada 1-2"><g class="cls-40"><polyline class="cls-3" points="321.91 348.78 287.45 328.89 287.34 368.48 321.8 388.38 321.91 348.78"/><path class="cls-4" d="M1038.3,615.48l.11-39.59,34.46,19.89-.11,39.6-34.46-19.9m35.29-20.1-35.88-20.71-.12,41.22,35.88,20.71.12-41.22" transform="translate(-750.96 -247)"/></g><polygon class="cls-1" points="286.63 368.89 286.75 327.67 322.62 348.38 322.51 389.6 286.63 368.89"/><g class="cls-41"><polyline class="cls-3" points="357.52 328.89 323.06 348.78 323.17 388.38 357.63 368.48 357.52 328.89"/><path class="cls-4" d="M1074.13,635.38l-.11-39.6,34.46-19.89.11,39.59-34.46,19.9m35.06-60.71-35.88,20.71.12,41.22,35.87-20.71-.11-41.22" transform="translate(-750.96 -247)"/></g><polygon class="cls-1" points="322.47 389.6 322.35 348.38 358.23 327.67 358.34 368.89 322.47 389.6"/><g class="cls-42"><polyline class="cls-3" points="356.82 327.71 322.36 307.82 288.13 327.71 322.59 347.61 356.82 327.71"/><path class="cls-4" d="M1039.09,574.71l34.23-19.89,34.46,19.89-34.19,19.9-34.5-19.9m70.11,0L1073.32,554l-35.65,20.72,35.92,20.71,35.61-20.72" transform="translate(-750.96 -247)"/></g><polygon class="cls-1" points="286.71 327.72 322.36 307 358.24 327.71 322.59 348.43 286.71 327.72"/></g><g id="Camada_1-2-14" data-name="Camada 1-2"><g class="cls-43"><polyline class="cls-3" points="357.8 288.04 323.34 268.15 323.23 307.74 357.69 327.64 357.8 288.04"/><path class="cls-4" d="M1074.19,554.74l.11-39.59L1108.76,535l-.11,39.6-34.46-19.9m35.29-20.1-35.88-20.71-.12,41.22,35.88,20.71.12-41.22" transform="translate(-750.96 -247)"/></g><polygon class="cls-1" points="322.52 308.15 322.64 266.93 358.51 287.64 358.4 328.86 322.52 308.15"/><g class="cls-44"><polyline class="cls-3" points="393.41 268.15 358.95 288.04 359.06 327.64 393.52 307.74 393.41 268.15"/><path class="cls-4" d="M1110,574.64l-.11-39.6,34.46-19.89.11,39.59L1110,574.64m35.06-60.71-35.88,20.71.12,41.22,35.87-20.71-.11-41.22" transform="translate(-750.96 -247)"/></g><polygon class="cls-1" points="358.36 328.86 358.24 287.64 394.12 266.93 394.23 308.15 358.36 328.86"/><g class="cls-45"><polyline class="cls-3" points="392.71 266.97 358.25 247.08 324.02 266.97 358.48 286.87 392.71 266.97"/><path class="cls-4" d="M1075,514l34.23-19.89L1143.67,514l-34.19,19.9L1075,514m70.11,0-35.88-20.71L1073.56,514l35.92,20.71L1145.09,514" transform="translate(-750.96 -247)"/></g><polygon class="cls-1" points="322.6 266.98 358.25 246.26 394.13 266.97 358.48 287.69 322.6 266.98"/></g></g><g id="Camada_1-2-15" data-name="Camada 1-2"><g class="cls-46"><polyline class="cls-3" points="179.11 471.58 144.65 451.69 144.54 491.29 179 511.19 179.11 471.58"/><path class="cls-4" d="M895.5,738.29l.11-39.59,34.46,19.89-.11,39.6-34.46-19.9m35.29-20.1-35.88-20.71-.12,41.22,35.88,20.71.12-41.22" transform="translate(-750.96 -247)"/></g><polygon class="cls-1" points="143.83 491.69 143.95 450.48 179.82 471.19 179.71 512.4 143.83 491.69"/><g class="cls-47"><polyline class="cls-3" points="214.72 451.69 180.26 471.58 180.37 511.19 214.83 491.29 214.72 451.69"/><path class="cls-4" d="M931.33,758.19l-.11-39.6,34.46-19.89.11,39.59-34.46,19.9m35.06-60.71-35.88,20.71.12,41.22L966.5,738.7l-.11-41.22" transform="translate(-750.96 -247)"/></g><polygon class="cls-1" points="179.67 512.4 179.55 471.19 215.43 450.48 215.54 491.69 179.67 512.4"/><g class="cls-48"><polyline class="cls-3" points="214.02 450.51 179.56 430.63 145.33 450.51 179.79 470.42 214.02 450.51"/><path class="cls-4" d="M896.29,697.52l34.23-19.89L965,697.52l-34.19,19.9-34.5-19.9m70.11,0-35.88-20.71-35.65,20.72,35.92,20.71,35.61-20.72" transform="translate(-750.96 -247)"/></g><polygon class="cls-1" points="143.91 450.52 179.56 429.81 215.44 450.51 179.79 471.24 143.91 450.52"/><g id="Camada_1-2-16" data-name="Camada 1-2"><g class="cls-49"><polyline class="cls-3" points="214.97 409.83 180.51 389.94 180.4 429.53 214.86 449.43 214.97 409.83"/><path class="cls-4" d="M931.36,676.53l.11-39.59,34.46,19.89-.11,39.6-34.46-19.9m35.29-20.1-35.88-20.71-.12,41.22,35.88,20.71.12-41.22" transform="translate(-750.96 -247)"/></g><polygon class="cls-1" points="179.69 429.94 179.81 388.72 215.68 409.43 215.57 450.65 179.69 429.94"/><g class="cls-50"><polyline class="cls-3" points="250.58 389.94 216.12 409.83 216.23 449.43 250.69 429.53 250.58 389.94"/><path class="cls-4" d="M967.19,696.43l-.11-39.6,34.46-19.89.11,39.59-34.46,19.9m35.06-60.71-35.88,20.71.12,41.22,35.87-20.71-.11-41.22" transform="translate(-750.96 -247)"/></g><polygon class="cls-1" points="215.53 450.65 215.41 409.43 251.29 388.72 251.4 429.94 215.53 450.65"/><g class="cls-51"><polyline class="cls-3" points="249.88 388.76 215.42 368.87 181.19 388.76 215.65 408.66 249.88 388.76"/><path class="cls-4" d="M932.15,635.76l34.23-19.89,34.46,19.89-34.19,19.9-34.5-19.9m70.11,0-35.88-20.71-35.65,20.72,35.92,20.71,35.61-20.72" transform="translate(-750.96 -247)"/></g><polygon class="cls-1" points="179.77 388.77 215.42 368.05 251.3 388.76 215.65 409.48 179.77 388.77"/></g><g id="Camada_1-2-17" data-name="Camada 1-2"><g class="cls-52"><polyline class="cls-3" points="250.72 471.71 216.26 451.82 216.15 491.42 250.61 511.31 250.72 471.71"/><path class="cls-4" d="M967.11,738.42l.11-39.59,34.46,19.89-.11,39.6-34.46-19.9m35.29-20.1-35.88-20.71-.12,41.22,35.88,20.71.12-41.22" transform="translate(-750.96 -247)"/></g><polygon class="cls-1" points="215.44 491.82 215.56 450.61 251.43 471.31 251.32 512.53 215.44 491.82"/><g class="cls-53"><polyline class="cls-3" points="286.33 451.82 251.87 471.71 251.98 511.31 286.44 491.42 286.33 451.82"/><path class="cls-4" d="M1002.94,758.32l-.11-39.6,34.46-19.89.11,39.59-34.46,19.9M1038,697.61l-35.88,20.71.12,41.22,35.87-20.71-.11-41.22" transform="translate(-750.96 -247)"/></g><polygon class="cls-1" points="251.28 512.53 251.16 471.31 287.04 450.61 287.15 491.82 251.28 512.53"/><g class="cls-54"><polyline class="cls-3" points="285.63 450.64 251.17 430.75 216.94 450.64 251.4 470.55 285.63 450.64"/><path class="cls-4" d="M967.9,697.65l34.23-19.89,34.46,19.89-34.19,19.9-34.5-19.9m70.11,0-35.88-20.71-35.65,20.72,35.92,20.71L1038,697.65" transform="translate(-750.96 -247)"/></g><polygon class="cls-1" points="215.52 450.65 251.17 429.94 287.05 450.64 251.4 471.37 215.52 450.65"/></g><g id="Camada_1-2-18" data-name="Camada 1-2"><g class="cls-55"><polyline class="cls-3" points="214.83 532.32 180.37 512.43 180.26 552.02 214.72 571.92 214.83 532.32"/><path class="cls-4" d="M931.22,799l.11-39.59,34.46,19.89-.11,39.6L931.22,799m35.29-20.1-35.88-20.71-.12,41.22,35.88,20.71.12-41.22" transform="translate(-750.96 -247)"/></g><polygon class="cls-1" points="179.55 552.43 179.67 511.21 215.54 531.92 215.43 573.14 179.55 552.43"/><g class="cls-56"><polyline class="cls-3" points="250.44 512.43 215.98 532.32 216.09 571.92 250.55 552.02 250.44 512.43"/><path class="cls-4" d="M967.05,818.92l-.11-39.6,34.46-19.89.11,39.59-34.46,19.9m35.06-60.71-35.88,20.71.12,41.22,35.87-20.71-.11-41.22" transform="translate(-750.96 -247)"/></g><polygon class="cls-1" points="215.39 573.14 215.27 531.92 251.15 511.21 251.26 552.43 215.39 573.14"/><g class="cls-57"><polyline class="cls-3" points="249.74 511.25 215.28 491.36 181.05 511.25 215.51 531.15 249.74 511.25"/><path class="cls-4" d="M932,758.25l34.23-19.89,34.46,19.89-34.19,19.9L932,758.25m70.11,0-35.88-20.71-35.65,20.72L966.51,779l35.61-20.72" transform="translate(-750.96 -247)"/></g><polygon class="cls-1" points="179.63 511.26 215.28 490.54 251.16 511.25 215.51 531.97 179.63 511.26"/></g><g id="Camada_1-2-19" data-name="Camada 1-2"><g class="cls-58"><polyline class="cls-3" points="286.48 412.28 252.02 392.39 251.91 431.98 286.37 451.88 286.48 412.28"/><path class="cls-4" d="M1002.87,679l.11-39.59,34.46,19.89-.11,39.6L1002.87,679m35.29-20.1-35.88-20.71-.12,41.22L1038,700.1l.12-41.22" transform="translate(-750.96 -247)"/></g><polygon class="cls-1" points="251.2 432.39 251.32 391.17 287.19 411.88 287.08 453.1 251.2 432.39"/><g class="cls-59"><polyline class="cls-3" points="322.09 392.39 287.63 412.28 287.74 451.88 322.2 431.98 322.09 392.39"/><path class="cls-4" d="M1038.7,698.88l-.11-39.6,34.46-19.89.11,39.59-34.46,19.9m35.06-60.71-35.88,20.71.12,41.22,35.87-20.71-.11-41.22" transform="translate(-750.96 -247)"/></g><polygon class="cls-1" points="287.04 453.1 286.92 411.88 322.8 391.17 322.91 432.39 287.04 453.1"/><g class="cls-60"><polyline class="cls-3" points="321.39 391.21 286.93 371.32 252.7 391.21 287.16 411.11 321.39 391.21"/><path class="cls-4" d="M1003.66,638.21l34.23-19.89,34.46,19.89-34.19,19.9-34.5-19.9m70.11,0-35.88-20.71-35.65,20.72,35.92,20.71,35.61-20.72" transform="translate(-750.96 -247)"/></g><polygon class="cls-1" points="251.28 391.22 286.93 370.5 322.81 391.21 287.16 411.93 251.28 391.22"/></g><g id="Camada_1-2-20" data-name="Camada 1-2"><g class="cls-61"><polyline class="cls-3" points="286.34 532.45 251.88 512.56 251.77 552.15 286.23 572.05 286.34 532.45"/><path class="cls-4" d="M1002.73,799.15l.11-39.59,34.46,19.89-.11,39.6-34.46-19.9m35.29-20.1-35.88-20.71-.12,41.22,35.88,20.71.12-41.22" transform="translate(-750.96 -247)"/></g><polygon class="cls-1" points="251.06 552.56 251.18 511.34 287.05 532.05 286.94 573.27 251.06 552.56"/><g class="cls-62"><polyline class="cls-3" points="321.95 512.56 287.49 532.45 287.6 572.05 322.06 552.15 321.95 512.56"/><path class="cls-4" d="M1038.56,819.05l-.11-39.6,34.46-19.89.11,39.59-34.46,19.9m35.06-60.71-35.88,20.71.12,41.22,35.87-20.71-.11-41.22" transform="translate(-750.96 -247)"/></g><polygon class="cls-1" points="286.9 573.27 286.78 532.05 322.66 511.34 322.77 552.56 286.9 573.27"/><g class="cls-63"><polyline class="cls-3" points="321.25 511.38 286.79 491.49 252.56 511.38 287.02 531.28 321.25 511.38"/><path class="cls-4" d="M1003.52,758.38l34.23-19.89,34.46,19.89L1038,778.28l-34.5-19.9m70.11,0-35.88-20.71-35.65,20.72L1038,779.1l35.61-20.72" transform="translate(-750.96 -247)"/></g><polygon class="cls-1" points="251.14 511.39 286.79 490.67 322.67 511.38 287.02 532.1 251.14 511.39"/></g><g id="Camada_1-2-21" data-name="Camada 1-2"><g class="cls-64"><polyline class="cls-3" points="322.23 471.71 287.77 451.82 287.66 491.42 322.12 511.31 322.23 471.71"/><path class="cls-4" d="M1038.62,738.42l.11-39.59,34.46,19.89-.11,39.6-34.46-19.9m35.29-20.1L1038,697.61l-.12,41.22,35.88,20.71.12-41.22" transform="translate(-750.96 -247)"/></g><polygon class="cls-1" points="286.95 491.82 287.07 450.61 322.94 471.31 322.83 512.53 286.95 491.82"/><g class="cls-65"><polyline class="cls-3" points="357.84 451.82 323.38 471.71 323.49 511.31 357.95 491.42 357.84 451.82"/><path class="cls-4" d="M1074.45,758.32l-.11-39.6,34.46-19.89.11,39.59-34.46,19.9m35.06-60.71-35.88,20.71.12,41.22,35.87-20.71-.11-41.22" transform="translate(-750.96 -247)"/></g><polygon class="cls-1" points="322.79 512.53 322.67 471.31 358.55 450.61 358.66 491.82 322.79 512.53"/><g class="cls-66"><polyline class="cls-3" points="357.14 450.64 322.68 430.75 288.45 450.64 322.91 470.55 357.14 450.64"/><path class="cls-4" d="M1039.41,697.65l34.23-19.89,34.46,19.89-34.19,19.9-34.5-19.9m70.11,0-35.88-20.71L1038,697.66l35.92,20.71,35.61-20.72" transform="translate(-750.96 -247)"/></g><polygon class="cls-1" points="287.03 450.65 322.68 429.94 358.56 450.64 322.91 471.37 287.03 450.65"/></g></g><g id="Camada_1-2-22" data-name="Camada 1-2"><g class="cls-67"><polyline class="cls-3" points="358.22 410.4 323.76 390.51 323.65 430.11 358.11 450 358.22 410.4"/><path class="cls-4" d="M1074.61,677.1l.11-39.59,34.46,19.89-.11,39.6-34.46-19.9M1109.9,657,1074,636.29l-.12,41.22,35.88,20.71.12-41.22" transform="translate(-750.96 -247)"/></g><polygon class="cls-1" points="322.94 430.51 323.06 389.3 358.93 410 358.82 451.23 322.94 430.51"/><g class="cls-68"><polyline class="cls-3" points="393.83 390.51 359.37 410.4 359.48 450 393.94 430.11 393.83 390.51"/><path class="cls-4" d="M1110.44,697l-.11-39.6,34.46-19.89.11,39.59L1110.44,697m35.06-60.71L1109.62,657l.12,41.22,35.87-20.71-.11-41.22" transform="translate(-750.96 -247)"/></g><polygon class="cls-1" points="358.78 451.23 358.66 410 394.54 389.3 394.65 430.51 358.78 451.23"/><g class="cls-69"><polyline class="cls-3" points="393.13 389.33 358.67 369.44 324.44 389.33 358.9 409.24 393.13 389.33"/><path class="cls-4" d="M1075.4,636.33l34.23-19.89,34.46,19.89-34.19,19.9-34.5-19.9m70.11,0-35.88-20.71L1074,636.34l35.92,20.71,35.61-20.72" transform="translate(-750.96 -247)"/></g><polygon class="cls-1" points="323.02 389.35 358.67 368.63 394.55 389.33 358.9 410.06 323.02 389.35"/><g id="Camada_1-2-23" data-name="Camada 1-2"><g class="cls-70"><polyline class="cls-3" points="394.08 348.65 359.62 328.76 359.51 368.35 393.97 388.25 394.08 348.65"/><path class="cls-4" d="M1110.47,615.35l.11-39.59L1145,595.65l-.11,39.6-34.46-19.9m35.29-20.1-35.88-20.71-.12,41.22,35.88,20.71.12-41.22" transform="translate(-750.96 -247)"/></g><polygon class="cls-1" points="358.8 368.76 358.92 327.54 394.79 348.25 394.68 389.47 358.8 368.76"/><g class="cls-71"><polyline class="cls-3" points="429.69 328.76 395.23 348.65 395.34 388.25 429.8 368.35 429.69 328.76"/><path class="cls-4" d="M1146.3,635.25l-.11-39.6,34.46-19.89.11,39.59-34.46,19.9m35.06-60.71-35.88,20.71.12,41.22,35.87-20.71-.11-41.22" transform="translate(-750.96 -247)"/></g><polygon class="cls-1" points="394.64 389.47 394.52 348.25 430.4 327.54 430.51 368.76 394.64 389.47"/><g class="cls-72"><polyline class="cls-3" points="428.99 327.58 394.53 307.69 360.3 327.58 394.76 347.48 428.99 327.58"/><path class="cls-4" d="M1111.26,574.58l34.23-19.89L1180,574.58l-34.19,19.9-34.5-19.9m70.11,0-35.88-20.71-35.65,20.72,35.92,20.71,35.61-20.72" transform="translate(-750.96 -247)"/></g><polygon class="cls-1" points="358.88 327.59 394.53 306.87 430.41 327.58 394.76 348.3 358.88 327.59"/></g><g id="Camada_1-2-24" data-name="Camada 1-2"><g class="cls-73"><polyline class="cls-3" points="429.83 410.54 395.37 390.64 395.26 430.24 429.72 450.13 429.83 410.54"/><path class="cls-4" d="M1146.22,677.23l.11-39.59,34.46,19.89-.11,39.6-34.46-19.9m35.29-20.1-35.88-20.71-.12,41.22,35.88,20.71.12-41.22" transform="translate(-750.96 -247)"/></g><polygon class="cls-1" points="394.55 430.64 394.67 389.43 430.54 410.13 430.43 451.36 394.55 430.64"/><g class="cls-74"><polyline class="cls-3" points="465.44 390.64 430.98 410.54 431.09 450.13 465.55 430.24 465.44 390.64"/><path class="cls-4" d="M1182.05,697.13l-.11-39.6,34.46-19.89.11,39.59-34.46,19.9m35.06-60.71-35.88,20.71.12,41.22,35.87-20.71-.11-41.22" transform="translate(-750.96 -247)"/></g><polygon class="cls-1" points="430.39 451.36 430.27 410.13 466.15 389.43 466.26 430.64 430.39 451.36"/><g class="cls-75"><polyline class="cls-3" points="464.74 389.46 430.28 369.57 396.05 389.46 430.51 409.37 464.74 389.46"/><path class="cls-4" d="M1147,636.46l34.23-19.89,34.46,19.89-34.19,19.9-34.5-19.9m70.11,0-35.88-20.71-35.65,20.72,35.92,20.71,35.61-20.72" transform="translate(-750.96 -247)"/></g><polygon class="cls-1" points="394.63 389.48 430.28 368.75 466.16 389.46 430.51 410.19 394.63 389.48"/></g><g id="Camada_1-2-25" data-name="Camada 1-2"><g class="cls-76"><polyline class="cls-3" points="393.94 471.14 359.48 451.25 359.37 490.84 393.83 510.74 393.94 471.14"/><path class="cls-4" d="M1110.33,737.84l.11-39.59,34.46,19.89-.11,39.6-34.46-19.9m35.29-20.1L1109.74,697l-.12,41.22L1145.5,759l.12-41.22" transform="translate(-750.96 -247)"/></g><polygon class="cls-1" points="358.66 491.25 358.78 450.03 394.65 470.74 394.54 511.96 358.66 491.25"/><g class="cls-77"><polyline class="cls-3" points="429.55 451.25 395.09 471.14 395.2 510.74 429.66 490.84 429.55 451.25"/><path class="cls-4" d="M1146.16,757.74l-.11-39.6,34.46-19.89.11,39.59-34.46,19.9M1181.22,697l-35.88,20.71.12,41.22,35.87-20.71-.11-41.22" transform="translate(-750.96 -247)"/></g><polygon class="cls-1" points="394.5 511.96 394.38 470.74 430.26 450.03 430.37 491.25 394.5 511.96"/><g class="cls-78"><polyline class="cls-3" points="428.85 450.07 394.39 430.18 360.16 450.07 394.62 469.97 428.85 450.07"/><path class="cls-4" d="M1111.12,697.07l34.23-19.89,34.46,19.89L1145.62,717l-34.5-19.9m70.11,0-35.88-20.71-35.65,20.72,35.92,20.71,35.61-20.72" transform="translate(-750.96 -247)"/></g><polygon class="cls-1" points="358.74 450.08 394.39 429.36 430.27 450.07 394.62 470.79 358.74 450.08"/></g><g id="Camada_1-2-26" data-name="Camada 1-2"><g class="cls-79"><polyline class="cls-3" points="465.59 351.1 431.13 331.21 431.02 370.8 465.48 390.7 465.59 351.1"/><path class="cls-4" d="M1182,617.8l.11-39.59,34.46,19.89-.11,39.6L1182,617.8m35.29-20.1L1181.39,577l-.12,41.22,35.88,20.71.12-41.22" transform="translate(-750.96 -247)"/></g><polygon class="cls-1" points="430.31 371.21 430.43 329.99 466.3 350.7 466.19 391.92 430.31 371.21"/><g class="cls-80"><polyline class="cls-3" points="501.2 331.21 466.74 351.1 466.85 390.7 501.31 370.8 501.2 331.21"/><path class="cls-4" d="M1217.81,637.7l-.11-39.6,34.46-19.89.11,39.59-34.46,19.9M1252.87,577,1217,597.7l.12,41.22L1253,618.21l-.11-41.22" transform="translate(-750.96 -247)"/></g><polygon class="cls-1" points="466.15 391.92 466.03 350.7 501.91 329.99 502.02 371.21 466.15 391.92"/><g class="cls-81"><polyline class="cls-3" points="500.5 330.03 466.04 310.14 431.81 330.03 466.27 349.93 500.5 330.03"/><path class="cls-4" d="M1182.77,577,1217,557.14,1251.46,577l-34.19,19.9-34.5-19.9m70.11,0L1217,556.32,1181.35,577l35.92,20.71L1252.88,577" transform="translate(-750.96 -247)"/></g><polygon class="cls-1" points="430.39 330.04 466.04 309.32 501.92 330.03 466.27 350.75 430.39 330.04"/></g><g id="Camada_1-2-27" data-name="Camada 1-2"><g class="cls-82"><polyline class="cls-3" points="465.45 471.27 430.99 451.38 430.88 490.97 465.34 510.87 465.45 471.27"/><path class="cls-4" d="M1181.84,738l.11-39.59,34.46,19.89-.11,39.6L1181.84,738m35.29-20.1-35.88-20.71-.12,41.22L1217,759.09l.12-41.22" transform="translate(-750.96 -247)"/></g><polygon class="cls-1" points="430.17 491.38 430.29 450.16 466.16 470.87 466.05 512.09 430.17 491.38"/><g class="cls-83"><polyline class="cls-3" points="501.06 451.38 466.6 471.27 466.71 510.87 501.17 490.97 501.06 451.38"/><path class="cls-4" d="M1217.67,757.87l-.11-39.6L1252,698.38l.11,39.59-34.46,19.9m35.06-60.71-35.88,20.71.12,41.22,35.87-20.71-.11-41.22" transform="translate(-750.96 -247)"/></g><polygon class="cls-1" points="466.01 512.09 465.89 470.87 501.77 450.16 501.88 491.38 466.01 512.09"/><g class="cls-84"><polyline class="cls-3" points="500.36 450.2 465.9 430.31 431.67 450.2 466.13 470.1 500.36 450.2"/><path class="cls-4" d="M1182.63,697.2l34.23-19.89,34.46,19.89-34.19,19.9-34.5-19.9m70.11,0-35.88-20.71-35.65,20.72,35.92,20.71,35.61-20.72" transform="translate(-750.96 -247)"/></g><polygon class="cls-1" points="430.25 450.21 465.9 429.49 501.78 450.2 466.13 470.92 430.25 450.21"/></g><g id="Camada_1-2-28" data-name="Camada 1-2"><g class="cls-85"><polyline class="cls-3" points="501.34 410.54 466.88 390.64 466.77 430.24 501.23 450.13 501.34 410.54"/><path class="cls-4" d="M1217.73,677.23l.11-39.59,34.46,19.89-.11,39.6-34.46-19.9m35.29-20.1-35.88-20.71-.12,41.22,35.88,20.71.12-41.22" transform="translate(-750.96 -247)"/></g><polygon class="cls-1" points="466.06 430.64 466.18 389.43 502.05 410.13 501.94 451.36 466.06 430.64"/><g class="cls-86"><polyline class="cls-3" points="536.95 390.64 502.49 410.54 502.6 450.13 537.06 430.24 536.95 390.64"/><path class="cls-4" d="M1253.56,697.13l-.11-39.6,34.46-19.89.11,39.59-34.46,19.9m35.06-60.71-35.88,20.71.12,41.22,35.87-20.71-.11-41.22" transform="translate(-750.96 -247)"/></g><polygon class="cls-1" points="501.9 451.36 501.78 410.13 537.66 389.43 537.77 430.64 501.9 451.36"/><g class="cls-87"><polyline class="cls-3" points="536.25 389.46 501.79 369.57 467.56 389.46 502.02 409.37 536.25 389.46"/><path class="cls-4" d="M1218.52,636.46l34.23-19.89,34.46,19.89L1253,656.36l-34.5-19.9m70.11,0-35.88-20.71-35.65,20.72L1253,657.18l35.61-20.72" transform="translate(-750.96 -247)"/></g><polygon class="cls-1" points="466.14 389.48 501.79 368.75 537.67 389.46 502.02 410.19 466.14 389.48"/></g></g><g id="Camada_1-2-29" data-name="Camada 1-2"><g class="cls-88"><polyline class="cls-3" points="250.22 104.11 215.76 84.22 215.65 123.81 250.11 143.71 250.22 104.11"/><path class="cls-4" d="M966.61,370.81l.11-39.59,34.46,19.89-.11,39.6-34.46-19.9m35.29-20.1L966,330l-.12,41.22,35.88,20.71.12-41.22" transform="translate(-750.96 -247)"/></g><polygon class="cls-1" points="214.94 124.22 215.06 83 250.93 103.71 250.82 144.93 214.94 124.22"/><g class="cls-89"><polyline class="cls-3" points="285.83 84.22 251.37 104.11 251.48 143.71 285.94 123.81 285.83 84.22"/><path class="cls-4" d="M1002.44,390.71l-.11-39.6,34.46-19.89.11,39.59-34.46,19.9M1037.5,330l-35.88,20.71.12,41.22,35.87-20.71L1037.5,330" transform="translate(-750.96 -247)"/></g><polygon class="cls-1" points="250.78 144.93 250.66 103.71 286.54 83 286.65 124.22 250.78 144.93"/><g class="cls-90"><polyline class="cls-3" points="285.13 83.04 250.67 63.15 216.44 83.04 250.9 102.94 285.13 83.04"/><path class="cls-4" d="M967.4,330l34.23-19.89L1036.09,330l-34.19,19.9L967.4,330m70.11,0-35.88-20.71L966,330.05l35.92,20.71L1037.51,330" transform="translate(-750.96 -247)"/></g><polygon class="cls-1" points="215.02 83.05 250.67 62.33 286.55 83.04 250.9 103.76 215.02 83.05"/><g id="Camada_1-2-30" data-name="Camada 1-2"><g class="cls-91"><polyline class="cls-3" points="286.07 42.36 251.61 22.47 251.5 62.06 285.96 81.96 286.07 42.36"/><path class="cls-4" d="M1002.46,309.06l.11-39.59L1037,289.36l-.11,39.6-34.46-19.9m35.29-20.1-35.88-20.71-.12,41.22,35.88,20.71.12-41.22" transform="translate(-750.96 -247)"/></g><polygon class="cls-1" points="250.79 62.47 250.91 21.25 286.78 41.96 286.67 83.18 250.79 62.47"/><g class="cls-92"><polyline class="cls-3" points="321.68 22.47 287.22 42.36 287.33 81.96 321.79 62.06 321.68 22.47"/><path class="cls-4" d="M1038.29,329l-.11-39.6,34.46-19.89.11,39.59L1038.29,329m35.06-60.71L1037.47,289l.12,41.22,35.87-20.71-.11-41.22" transform="translate(-750.96 -247)"/></g><polygon class="cls-1" points="286.63 83.18 286.51 41.96 322.39 21.25 322.5 62.47 286.63 83.18"/><g class="cls-93"><polyline class="cls-3" points="320.98 21.29 286.52 1.4 252.29 21.29 286.75 41.19 320.98 21.29"/><path class="cls-4" d="M1003.25,268.29l34.23-19.89,34.46,19.89-34.19,19.9-34.5-19.9m70.11,0-35.88-20.71-35.65,20.72L1037.75,289l35.61-20.72" transform="translate(-750.96 -247)"/></g><polygon class="cls-1" points="250.87 21.3 286.52 0.58 322.4 21.29 286.75 42.01 250.87 21.3"/></g><g id="Camada_1-2-31" data-name="Camada 1-2"><g class="cls-94"><polyline class="cls-3" points="321.83 104.24 287.37 84.35 287.26 123.94 321.72 143.84 321.83 104.24"/><path class="cls-4" d="M1038.22,370.94l.11-39.59,34.46,19.89-.11,39.6-34.46-19.9m35.29-20.1-35.88-20.71-.12,41.22,35.88,20.71.12-41.22" transform="translate(-750.96 -247)"/></g><polygon class="cls-1" points="286.55 124.35 286.67 83.13 322.54 103.84 322.43 145.06 286.55 124.35"/><g class="cls-95"><polyline class="cls-3" points="357.44 84.35 322.98 104.24 323.09 143.84 357.55 123.94 357.44 84.35"/><path class="cls-4" d="M1074.05,390.84l-.11-39.6,34.46-19.89.11,39.59-34.46,19.9m35.06-60.71-35.88,20.71.12,41.22,35.87-20.71-.11-41.22" transform="translate(-750.96 -247)"/></g><polygon class="cls-1" points="322.39 145.06 322.27 103.84 358.15 83.13 358.26 124.35 322.39 145.06"/><g class="cls-96"><polyline class="cls-3" points="356.74 83.17 322.28 63.28 288.05 83.17 322.51 103.07 356.74 83.17"/><path class="cls-4" d="M1039,330.17l34.23-19.89,34.46,19.89-34.19,19.9-34.5-19.9m70.11,0-35.88-20.71-35.65,20.72,35.92,20.71,35.61-20.72" transform="translate(-750.96 -247)"/></g><polygon class="cls-1" points="286.63 83.18 322.28 62.46 358.16 83.17 322.51 103.89 286.63 83.18"/></g><g id="Camada_1-2-32" data-name="Camada 1-2"><g class="cls-97"><polyline class="cls-3" points="285.94 164.85 251.48 144.96 251.37 184.55 285.83 204.45 285.94 164.85"/><path class="cls-4" d="M1002.33,431.55l.11-39.59,34.46,19.89-.11,39.6-34.46-19.9m35.29-20.1-35.88-20.71-.12,41.22,35.88,20.71.12-41.22" transform="translate(-750.96 -247)"/></g><polygon class="cls-1" points="250.66 184.96 250.78 143.74 286.65 164.45 286.54 205.67 250.66 184.96"/><g class="cls-98"><polyline class="cls-3" points="321.55 144.96 287.09 164.85 287.2 204.45 321.66 184.55 321.55 144.96"/><path class="cls-4" d="M1038.16,451.45l-.11-39.6L1072.51,392l.11,39.59-34.46,19.9m35.06-60.71-35.88,20.71.12,41.22L1073.33,432l-.11-41.22" transform="translate(-750.96 -247)"/></g><polygon class="cls-1" points="286.5 205.67 286.38 164.45 322.26 143.74 322.37 184.96 286.5 205.67"/><g class="cls-99"><polyline class="cls-3" points="320.85 143.78 286.39 123.89 252.16 143.78 286.62 163.68 320.85 143.78"/><path class="cls-4" d="M1003.12,390.78l34.23-19.89,34.46,19.89-34.19,19.9-34.5-19.9m70.11,0-35.88-20.71-35.65,20.72,35.92,20.71,35.61-20.72" transform="translate(-750.96 -247)"/></g><polygon class="cls-1" points="250.74 143.79 286.39 123.07 322.27 143.78 286.62 164.5 250.74 143.79"/></g><g id="Camada_1-2-33" data-name="Camada 1-2"><g class="cls-100"><polyline class="cls-3" points="357.58 44.8 323.12 24.91 323.01 64.5 357.47 84.41 357.58 44.8"/><path class="cls-4" d="M1074,311.5l.11-39.59,34.46,19.89-.11,39.6L1074,311.5m35.29-20.1-35.88-20.71-.12,41.22,35.88,20.71.12-41.22" transform="translate(-750.96 -247)"/></g><polygon class="cls-1" points="322.3 64.92 322.42 23.7 358.29 44.41 358.18 85.63 322.3 64.92"/><g class="cls-101"><polyline class="cls-3" points="393.19 24.91 358.73 44.8 358.84 84.41 393.3 64.5 393.19 24.91"/><path class="cls-4" d="M1109.8,331.4l-.11-39.6,34.46-19.89.11,39.59-34.46,19.9m35.06-60.71L1109,291.4l.12,41.22L1145,311.91l-.11-41.22" transform="translate(-750.96 -247)"/></g><polygon class="cls-1" points="358.14 85.63 358.02 44.41 393.9 23.7 394.01 64.92 358.14 85.63"/><g class="cls-102"><polyline class="cls-3" points="392.49 23.73 358.03 3.85 323.8 23.73 358.26 43.63 392.49 23.73"/><path class="cls-4" d="M1074.76,270.73,1109,250.84l34.46,19.89-34.19,19.9-34.5-19.9m70.11,0L1109,250l-35.65,20.72,35.92,20.71,35.61-20.72" transform="translate(-750.96 -247)"/></g><polygon class="cls-1" points="322.38 23.75 358.03 3.02 393.91 23.73 358.26 44.45 322.38 23.75"/></g><g id="Camada_1-2-34" data-name="Camada 1-2"><g class="cls-103"><polyline class="cls-3" points="357.45 164.98 322.99 145.09 322.88 184.68 357.34 204.58 357.45 164.98"/><path class="cls-4" d="M1073.84,431.68l.11-39.59L1108.41,412l-.11,39.6-34.46-19.9m35.29-20.1-35.88-20.71-.12,41.22L1109,452.8l.12-41.22" transform="translate(-750.96 -247)"/></g><polygon class="cls-1" points="322.17 185.09 322.29 143.87 358.16 164.58 358.05 205.8 322.17 185.09"/><g class="cls-104"><polyline class="cls-3" points="393.06 145.09 358.6 164.98 358.71 204.58 393.17 184.68 393.06 145.09"/><path class="cls-4" d="M1109.67,451.58l-.11-39.6L1144,392.09l.11,39.59-34.46,19.9m35.06-60.71-35.88,20.71.12,41.22,35.87-20.71-.11-41.22" transform="translate(-750.96 -247)"/></g><polygon class="cls-1" points="358.01 205.8 357.89 164.58 393.77 143.87 393.88 185.09 358.01 205.8"/><g class="cls-105"><polyline class="cls-3" points="392.36 143.91 357.9 124.02 323.67 143.91 358.13 163.81 392.36 143.91"/><path class="cls-4" d="M1074.63,390.91,1108.86,371l34.46,19.89-34.19,19.9-34.5-19.9m70.11,0-35.88-20.71-35.65,20.72,35.92,20.71,35.61-20.72" transform="translate(-750.96 -247)"/></g><polygon class="cls-1" points="322.25 143.92 357.9 123.2 393.78 143.91 358.13 164.63 322.25 143.92"/></g><g id="Camada_1-2-35" data-name="Camada 1-2"><g class="cls-106"><polyline class="cls-3" points="393.34 104.24 358.88 84.35 358.77 123.94 393.23 143.84 393.34 104.24"/><path class="cls-4" d="M1109.73,370.94l.11-39.59,34.46,19.89-.11,39.6-34.46-19.9m35.29-20.1-35.88-20.71-.12,41.22,35.88,20.71.12-41.22" transform="translate(-750.96 -247)"/></g><polygon class="cls-1" points="358.06 124.35 358.18 83.13 394.05 103.84 393.94 145.06 358.06 124.35"/><g class="cls-107"><polyline class="cls-3" points="428.95 84.35 394.49 104.24 394.6 143.84 429.06 123.94 428.95 84.35"/><path class="cls-4" d="M1145.56,390.84l-.11-39.6,34.46-19.89.11,39.59-34.46,19.9m35.06-60.71-35.88,20.71.12,41.22,35.87-20.71-.11-41.22" transform="translate(-750.96 -247)"/></g><polygon class="cls-1" points="393.9 145.06 393.78 103.84 429.66 83.13 429.77 124.35 393.9 145.06"/><g class="cls-108"><polyline class="cls-3" points="428.25 83.17 393.79 63.28 359.56 83.17 394.02 103.07 428.25 83.17"/><path class="cls-4" d="M1110.52,330.17l34.23-19.89,34.46,19.89L1145,350.07l-34.5-19.9m70.11,0-35.88-20.71-35.65,20.72L1145,350.89l35.61-20.72" transform="translate(-750.96 -247)"/></g><polygon class="cls-1" points="358.14 83.18 393.79 62.46 429.67 83.17 394.02 103.89 358.14 83.18"/></g></g><g id="Camada_1-2-36" data-name="Camada 1-2"><g class="cls-109"><polyline class="cls-3" points="393.76 226.6 359.3 206.71 359.19 246.3 393.65 266.2 393.76 226.6"/><path class="cls-4" d="M1110.15,493.3l.11-39.59,34.46,19.89-.11,39.6-34.46-19.9m35.29-20.1-35.88-20.71-.12,41.22,35.88,20.71.12-41.22" transform="translate(-750.96 -247)"/></g><polygon class="cls-1" points="358.48 246.71 358.6 205.49 394.47 226.2 394.36 267.42 358.48 246.71"/><g class="cls-110"><polyline class="cls-3" points="429.37 206.71 394.91 226.6 395.02 266.2 429.48 246.3 429.37 206.71"/><path class="cls-4" d="M1146,513.2l-.11-39.6,34.46-19.89.11,39.59L1146,513.2M1181,452.49l-35.88,20.71.12,41.22,35.87-20.71-.11-41.22" transform="translate(-750.96 -247)"/></g><polygon class="cls-1" points="394.32 267.42 394.2 226.2 430.08 205.49 430.19 246.71 394.32 267.42"/><g class="cls-111"><polyline class="cls-3" points="428.67 205.53 394.21 185.64 359.98 205.53 394.44 225.43 428.67 205.53"/><path class="cls-4" d="M1110.94,452.53l34.23-19.89,34.46,19.89-34.19,19.9-34.5-19.9m70.11,0-35.88-20.71-35.65,20.72,35.92,20.71,35.61-20.72" transform="translate(-750.96 -247)"/></g><polygon class="cls-1" points="358.56 205.54 394.21 184.82 430.09 205.53 394.44 226.25 358.56 205.54"/><g id="Camada_1-2-37" data-name="Camada 1-2"><g class="cls-112"><polyline class="cls-3" points="429.61 164.85 395.15 144.96 395.04 184.55 429.5 204.45 429.61 164.85"/><path class="cls-4" d="M1146,431.55l.11-39.59,34.46,19.89-.11,39.6L1146,431.55m35.29-20.1-35.88-20.71-.12,41.22,35.88,20.71.12-41.22" transform="translate(-750.96 -247)"/></g><polygon class="cls-1" points="394.33 184.96 394.45 143.74 430.32 164.45 430.21 205.67 394.33 184.96"/><g class="cls-113"><polyline class="cls-3" points="465.22 144.96 430.76 164.85 430.87 204.45 465.33 184.55 465.22 144.96"/><path class="cls-4" d="M1181.83,451.45l-.11-39.6L1216.18,392l.11,39.59-34.46,19.9m35.06-60.71L1181,411.45l.12,41.22L1217,432l-.11-41.22" transform="translate(-750.96 -247)"/></g><polygon class="cls-1" points="430.17 205.67 430.05 164.45 465.93 143.74 466.04 184.96 430.17 205.67"/><g class="cls-114"><polyline class="cls-3" points="464.52 143.78 430.06 123.89 395.83 143.78 430.29 163.68 464.52 143.78"/><path class="cls-4" d="M1146.79,390.78,1181,370.89l34.46,19.89-34.19,19.9-34.5-19.9m70.11,0L1181,370.07l-35.65,20.72,35.92,20.71,35.61-20.72" transform="translate(-750.96 -247)"/></g><polygon class="cls-1" points="394.41 143.79 430.06 123.07 465.94 143.78 430.29 164.5 394.41 143.79"/></g><g id="Camada_1-2-38" data-name="Camada 1-2"><g class="cls-115"><polyline class="cls-3" points="465.37 226.73 430.91 206.84 430.8 246.43 465.26 266.33 465.37 226.73"/><path class="cls-4" d="M1181.76,493.43l.11-39.59,34.46,19.89-.11,39.6-34.46-19.9m35.29-20.1-35.88-20.71-.12,41.22,35.88,20.71.12-41.22" transform="translate(-750.96 -247)"/></g><polygon class="cls-1" points="430.09 246.84 430.21 205.62 466.08 226.33 465.97 267.55 430.09 246.84"/><g class="cls-116"><polyline class="cls-3" points="500.98 206.84 466.52 226.73 466.63 266.33 501.09 246.43 500.98 206.84"/><path class="cls-4" d="M1217.59,513.33l-.11-39.6,34.46-19.89.11,39.59-34.46,19.9m35.06-60.71-35.88,20.71.12,41.22,35.87-20.71-.11-41.22" transform="translate(-750.96 -247)"/></g><polygon class="cls-1" points="465.93 267.55 465.81 226.33 501.69 205.62 501.8 246.84 465.93 267.55"/><g class="cls-117"><polyline class="cls-3" points="500.28 205.66 465.82 185.77 431.59 205.66 466.05 225.56 500.28 205.66"/><path class="cls-4" d="M1182.55,452.66l34.23-19.89,34.46,19.89-34.19,19.9-34.5-19.9m70.11,0L1216.78,432l-35.65,20.72,35.92,20.71,35.61-20.72" transform="translate(-750.96 -247)"/></g><polygon class="cls-1" points="430.17 205.67 465.82 184.95 501.7 205.66 466.05 226.38 430.17 205.67"/></g><g id="Camada_1-2-39" data-name="Camada 1-2"><g class="cls-118"><polyline class="cls-3" points="429.48 287.34 395.02 267.45 394.91 307.04 429.37 326.94 429.48 287.34"/><path class="cls-4" d="M1145.87,554l.11-39.59,34.46,19.89-.11,39.6L1145.87,554m35.29-20.1-35.88-20.71-.12,41.22L1181,575.16l.12-41.22" transform="translate(-750.96 -247)"/></g><polygon class="cls-1" points="394.2 307.45 394.32 266.23 430.19 286.94 430.08 328.16 394.2 307.45"/><g class="cls-119"><polyline class="cls-3" points="465.09 267.45 430.63 287.34 430.74 326.94 465.2 307.04 465.09 267.45"/><path class="cls-4" d="M1181.7,573.94l-.11-39.6,34.46-19.89.11,39.59-34.46,19.9m35.06-60.71-35.88,20.71.12,41.22,35.87-20.71-.11-41.22" transform="translate(-750.96 -247)"/></g><polygon class="cls-1" points="430.04 328.16 429.92 286.94 465.8 266.23 465.91 307.45 430.04 328.16"/><g class="cls-120"><polyline class="cls-3" points="464.39 266.27 429.93 246.38 395.7 266.27 430.16 286.17 464.39 266.27"/><path class="cls-4" d="M1146.66,513.27l34.23-19.89,34.46,19.89-34.19,19.9-34.5-19.9m70.11,0-35.88-20.71-35.65,20.72L1181.16,534l35.61-20.72" transform="translate(-750.96 -247)"/></g><polygon class="cls-1" points="394.28 266.28 429.93 245.56 465.81 266.27 430.16 286.99 394.28 266.28"/></g><g id="Camada_1-2-40" data-name="Camada 1-2"><g class="cls-121"><polyline class="cls-3" points="501.12 167.3 466.66 147.41 466.55 187 501.01 206.9 501.12 167.3"/><path class="cls-4" d="M1217.51,434l.11-39.59,34.46,19.89-.11,39.6L1217.51,434m35.29-20.1-35.88-20.71-.12,41.22,35.88,20.71.12-41.22" transform="translate(-750.96 -247)"/></g><polygon class="cls-1" points="465.84 187.41 465.96 146.19 501.83 166.9 501.72 208.12 465.84 187.41"/><g class="cls-122"><polyline class="cls-3" points="536.73 147.41 502.27 167.3 502.38 206.9 536.84 187 536.73 147.41"/><path class="cls-4" d="M1253.34,453.9l-.11-39.6,34.46-19.89.11,39.59-34.46,19.9m35.06-60.71-35.88,20.71.12,41.22,35.87-20.71-.11-41.22" transform="translate(-750.96 -247)"/></g><polygon class="cls-1" points="501.68 208.12 501.56 166.9 537.44 146.19 537.55 187.41 501.68 208.12"/><g class="cls-123"><polyline class="cls-3" points="536.03 146.23 501.57 126.34 467.34 146.23 501.8 166.13 536.03 146.23"/><path class="cls-4" d="M1218.3,393.23l34.23-19.89L1287,393.23l-34.19,19.9-34.5-19.9m70.11,0-35.88-20.71-35.65,20.72L1252.8,414l35.61-20.72" transform="translate(-750.96 -247)"/></g><polygon class="cls-1" points="465.92 146.24 501.57 125.52 537.45 146.23 501.8 166.95 465.92 146.24"/></g><g id="Camada_1-2-41" data-name="Camada 1-2"><g class="cls-124"><polyline class="cls-3" points="500.99 287.47 466.53 267.58 466.42 307.17 500.88 327.07 500.99 287.47"/><path class="cls-4" d="M1217.38,554.17l.11-39.59L1252,534.47l-.11,39.6-34.46-19.9m35.29-20.1-35.88-20.71-.12,41.22,35.88,20.71.12-41.22" transform="translate(-750.96 -247)"/></g><polygon class="cls-1" points="465.71 307.58 465.83 266.36 501.7 287.07 501.59 328.29 465.71 307.58"/><g class="cls-125"><polyline class="cls-3" points="536.6 267.58 502.14 287.47 502.25 327.07 536.71 307.17 536.6 267.58"/><path class="cls-4" d="M1253.21,574.07l-.11-39.6,34.46-19.89.11,39.59-34.46,19.9m35.06-60.71-35.88,20.71.12,41.22,35.87-20.71-.11-41.22" transform="translate(-750.96 -247)"/></g><polygon class="cls-1" points="501.55 328.29 501.43 287.07 537.31 266.36 537.42 307.58 501.55 328.29"/><g class="cls-126"><polyline class="cls-3" points="535.9 266.4 501.44 246.51 467.21 266.4 501.67 286.3 535.9 266.4"/><path class="cls-4" d="M1218.17,513.4l34.23-19.89,34.46,19.89-34.19,19.9-34.5-19.9m70.11,0-35.88-20.71-35.65,20.72,35.92,20.71,35.61-20.72" transform="translate(-750.96 -247)"/></g><polygon class="cls-1" points="465.79 266.41 501.44 245.69 537.32 266.4 501.67 287.12 465.79 266.41"/></g><g id="Camada_1-2-42" data-name="Camada 1-2"><g class="cls-127"><polyline class="cls-3" points="536.88 226.73 502.42 206.84 502.31 246.43 536.77 266.33 536.88 226.73"/><path class="cls-4" d="M1253.27,493.43l.11-39.59,34.46,19.89-.11,39.6-34.46-19.9m35.29-20.1-35.88-20.71-.12,41.22,35.88,20.71.12-41.22" transform="translate(-750.96 -247)"/></g><polygon class="cls-1" points="501.6 246.84 501.72 205.62 537.59 226.33 537.48 267.55 501.6 246.84"/><g class="cls-128"><polyline class="cls-3" points="572.49 206.84 538.03 226.73 538.14 266.33 572.6 246.43 572.49 206.84"/><path class="cls-4" d="M1289.1,513.33l-.11-39.6,34.46-19.89.11,39.59-34.46,19.9m35.06-60.71-35.88,20.71.12,41.22,35.87-20.71-.11-41.22" transform="translate(-750.96 -247)"/></g><polygon class="cls-1" points="537.44 267.55 537.32 226.33 573.2 205.62 573.31 246.84 537.44 267.55"/><g class="cls-129"><polyline class="cls-3" points="571.79 205.66 537.33 185.77 503.1 205.66 537.56 225.56 571.79 205.66"/><path class="cls-4" d="M1254.06,452.66l34.23-19.89,34.46,19.89-34.19,19.9-34.5-19.9m70.11,0L1288.29,432l-35.65,20.72,35.92,20.71,35.61-20.72" transform="translate(-750.96 -247)"/></g><polygon class="cls-1" points="501.68 205.67 537.33 184.95 573.21 205.66 537.56 226.38 501.68 205.67"/></g></g><g id="Camada_1-2-43" data-name="Camada 1-2"><g class="cls-130"><polyline class="cls-3" points="71.55 165.29 37.09 145.4 36.98 184.99 71.44 204.89 71.55 165.29"/><path class="cls-4" d="M787.94,432l.11-39.59,34.46,19.89-.11,39.6L787.94,432m35.29-20.1-35.88-20.71-.12,41.22,35.88,20.71.12-41.22" transform="translate(-750.96 -247)"/></g><polygon class="cls-1" points="36.27 185.4 36.39 144.18 72.26 164.89 72.15 206.11 36.27 185.4"/><g class="cls-131"><polyline class="cls-3" points="107.16 145.4 72.7 165.29 72.81 204.89 107.27 184.99 107.16 145.4"/><path class="cls-4" d="M823.77,451.89l-.11-39.6,34.46-19.89.11,39.59-34.46,19.9m35.06-60.71L823,411.89l.12,41.22,35.87-20.71-.11-41.22" transform="translate(-750.96 -247)"/></g><polygon class="cls-1" points="72.11 206.11 71.99 164.89 107.87 144.18 107.98 185.4 72.11 206.11"/><g class="cls-132"><polyline class="cls-3" points="106.46 144.22 72 124.33 37.77 144.22 72.23 164.12 106.46 144.22"/><path class="cls-4" d="M788.73,391.22,823,371.33l34.46,19.89-34.19,19.9-34.5-19.9m70.11,0L823,370.51l-35.65,20.72,35.92,20.71,35.61-20.72" transform="translate(-750.96 -247)"/></g><polygon class="cls-1" points="36.35 144.23 72 123.51 107.88 144.22 72.23 164.94 36.35 144.23"/><g id="Camada_1-2-44" data-name="Camada 1-2"><g class="cls-133"><polyline class="cls-3" points="107.4 103.54 72.94 83.65 72.83 123.24 107.29 143.14 107.4 103.54"/><path class="cls-4" d="M823.79,370.24l.11-39.59,34.46,19.89-.11,39.6-34.46-19.9m35.29-20.1L823.2,329.43l-.12,41.22L859,391.36l.12-41.22" transform="translate(-750.96 -247)"/></g><polygon class="cls-1" points="72.12 123.65 72.24 82.43 108.11 103.14 108 144.36 72.12 123.65"/><g class="cls-134"><polyline class="cls-3" points="143.01 83.65 108.55 103.54 108.66 143.14 143.12 123.24 143.01 83.65"/><path class="cls-4" d="M859.62,390.14l-.11-39.6L894,330.65l.11,39.59-34.46,19.9m35.06-60.71L858.8,350.14l.12,41.22,35.87-20.71-.11-41.22" transform="translate(-750.96 -247)"/></g><polygon class="cls-1" points="107.96 144.36 107.84 103.14 143.72 82.43 143.83 123.65 107.96 144.36"/><g class="cls-135"><polyline class="cls-3" points="142.31 82.47 107.85 62.58 73.62 82.47 108.08 102.37 142.31 82.47"/><path class="cls-4" d="M824.58,329.47l34.23-19.89,34.46,19.89-34.19,19.9-34.5-19.9m70.11,0-35.88-20.71-35.65,20.72,35.92,20.71,35.61-20.72" transform="translate(-750.96 -247)"/></g><polygon class="cls-1" points="72.2 82.48 107.85 61.76 143.73 82.47 108.08 103.19 72.2 82.48"/></g><g id="Camada_1-2-45" data-name="Camada 1-2"><g class="cls-136"><polyline class="cls-3" points="143.16 165.42 108.7 145.53 108.59 185.12 143.05 205.02 143.16 165.42"/><path class="cls-4" d="M859.55,432.12l.11-39.59,34.46,19.89L894,452l-34.46-19.9M894.84,412,859,391.31l-.12,41.22,35.88,20.71.12-41.22" transform="translate(-750.96 -247)"/></g><polygon class="cls-1" points="107.88 185.53 108 144.31 143.87 165.02 143.76 206.24 107.88 185.53"/><g class="cls-137"><polyline class="cls-3" points="178.77 145.53 144.31 165.42 144.42 205.02 178.88 185.12 178.77 145.53"/><path class="cls-4" d="M895.38,452l-.11-39.6,34.46-19.89.11,39.59L895.38,452m35.06-60.71L894.56,412l.12,41.22,35.87-20.71-.11-41.22" transform="translate(-750.96 -247)"/></g><polygon class="cls-1" points="143.72 206.24 143.6 165.02 179.48 144.31 179.59 185.53 143.72 206.24"/><g class="cls-138"><polyline class="cls-3" points="178.07 144.35 143.61 124.46 109.38 144.35 143.84 164.25 178.07 144.35"/><path class="cls-4" d="M860.34,391.35l34.23-19.89L929,391.35l-34.19,19.9-34.5-19.9m70.11,0-35.88-20.71-35.65,20.72,35.92,20.71,35.61-20.72" transform="translate(-750.96 -247)"/></g><polygon class="cls-1" points="107.96 144.36 143.61 123.64 179.49 144.35 143.84 165.07 107.96 144.36"/></g><g id="Camada_1-2-46" data-name="Camada 1-2"><g class="cls-139"><polyline class="cls-3" points="107.27 226.03 72.81 206.14 72.7 245.73 107.16 265.63 107.27 226.03"/><path class="cls-4" d="M823.66,492.73l.11-39.59L858.23,473l-.11,39.6-34.46-19.9M859,472.63l-35.88-20.71L823,493.14l35.88,20.71.12-41.22" transform="translate(-750.96 -247)"/></g><polygon class="cls-1" points="71.99 246.14 72.11 204.92 107.98 225.63 107.87 266.85 71.99 246.14"/><g class="cls-140"><polyline class="cls-3" points="142.88 206.14 108.42 226.03 108.53 265.63 142.99 245.73 142.88 206.14"/><path class="cls-4" d="M859.49,512.63l-.11-39.6,34.46-19.89.11,39.59-34.46,19.9m35.06-60.71-35.88,20.71.12,41.22,35.87-20.71-.11-41.22" transform="translate(-750.96 -247)"/></g><polygon class="cls-1" points="107.83 266.85 107.71 225.63 143.59 204.92 143.7 246.14 107.83 266.85"/><g class="cls-141"><polyline class="cls-3" points="142.18 204.96 107.72 185.07 73.49 204.96 107.95 224.86 142.18 204.96"/><path class="cls-4" d="M824.45,452l34.23-19.89L893.14,452,859,471.86,824.45,452m70.11,0-35.88-20.71L823,452,859,472.68,894.56,452" transform="translate(-750.96 -247)"/></g><polygon class="cls-1" points="72.07 204.97 107.72 184.25 143.6 204.96 107.95 225.68 72.07 204.97"/></g><g id="Camada_1-2-47" data-name="Camada 1-2"><g class="cls-142"><polyline class="cls-3" points="178.91 105.98 144.45 86.09 144.34 125.69 178.8 145.59 178.91 105.98"/><path class="cls-4" d="M895.3,372.69l.11-39.59L929.87,353l-.11,39.6-34.46-19.9m35.29-20.1-35.88-20.71-.12,41.22,35.88,20.71.12-41.22" transform="translate(-750.96 -247)"/></g><polygon class="cls-1" points="143.63 126.09 143.75 84.88 179.62 105.58 179.51 146.81 143.63 126.09"/><g class="cls-143"><polyline class="cls-3" points="214.52 86.09 180.06 105.98 180.17 145.59 214.63 125.69 214.52 86.09"/><path class="cls-4" d="M931.13,392.59,931,353l34.46-19.89.11,39.59-34.46,19.9m35.06-60.71-35.88,20.71.12,41.22L966.3,373.1l-.11-41.22" transform="translate(-750.96 -247)"/></g><polygon class="cls-1" points="179.47 146.81 179.35 105.58 215.23 84.88 215.34 126.09 179.47 146.81"/><g class="cls-144"><polyline class="cls-3" points="213.82 84.92 179.36 65.03 145.13 84.92 179.59 104.81 213.82 84.92"/><path class="cls-4" d="M896.09,331.92,930.32,312l34.46,19.89-34.19,19.9-34.5-19.9m70.11,0-35.88-20.71-35.65,20.72,35.92,20.71,35.61-20.72" transform="translate(-750.96 -247)"/></g><polygon class="cls-1" points="143.71 84.92 179.36 64.2 215.24 84.92 179.59 105.64 143.71 84.92"/></g><g id="Camada_1-2-48" data-name="Camada 1-2"><g class="cls-145"><polyline class="cls-3" points="178.78 226.16 144.32 206.27 144.21 245.86 178.67 265.76 178.78 226.16"/><path class="cls-4" d="M895.17,492.86l.11-39.59,34.46,19.89-.11,39.6-34.46-19.9m35.29-20.1-35.88-20.71-.12,41.22L930.34,514l.12-41.22" transform="translate(-750.96 -247)"/></g><polygon class="cls-1" points="143.5 246.27 143.62 205.05 179.49 225.76 179.38 266.98 143.5 246.27"/><g class="cls-146"><polyline class="cls-3" points="214.39 206.27 179.93 226.16 180.04 265.76 214.5 245.86 214.39 206.27"/><path class="cls-4" d="M931,512.76l-.11-39.6,34.46-19.89.11,39.59L931,512.76m35.06-60.71-35.88,20.71L930.3,514l35.87-20.71-.11-41.22" transform="translate(-750.96 -247)"/></g><polygon class="cls-1" points="179.34 266.98 179.22 225.76 215.1 205.05 215.21 246.27 179.34 266.98"/><g class="cls-147"><polyline class="cls-3" points="213.69 205.09 179.23 185.2 145 205.09 179.46 224.99 213.69 205.09"/><path class="cls-4" d="M896,452.09l34.23-19.89,34.46,19.89L930.46,472,896,452.09m70.11,0-35.88-20.71L894.54,452.1l35.92,20.71,35.61-20.72" transform="translate(-750.96 -247)"/></g><polygon class="cls-1" points="143.58 205.1 179.23 184.38 215.11 205.09 179.46 225.81 143.58 205.1"/></g><g id="Camada_1-2-49" data-name="Camada 1-2"><g class="cls-148"><polyline class="cls-3" points="214.67 165.42 180.21 145.53 180.1 185.12 214.56 205.02 214.67 165.42"/><path class="cls-4" d="M931.06,432.12l.11-39.59,34.46,19.89-.11,39.6-34.46-19.9M966.35,412l-35.88-20.71-.12,41.22,35.88,20.71.12-41.22" transform="translate(-750.96 -247)"/></g><polygon class="cls-1" points="179.39 185.53 179.51 144.31 215.38 165.02 215.27 206.24 179.39 185.53"/><g class="cls-149"><polyline class="cls-3" points="250.28 145.53 215.82 165.42 215.93 205.02 250.39 185.12 250.28 145.53"/><path class="cls-4" d="M966.89,452l-.11-39.6,34.46-19.89.11,39.59L966.89,452M1002,391.31,966.07,412l.12,41.22,35.87-20.71-.11-41.22" transform="translate(-750.96 -247)"/></g><polygon class="cls-1" points="215.23 206.24 215.11 165.02 250.99 144.31 251.1 185.53 215.23 206.24"/><g class="cls-150"><polyline class="cls-3" points="249.58 144.35 215.12 124.46 180.89 144.35 215.35 164.25 249.58 144.35"/><path class="cls-4" d="M931.85,391.35l34.23-19.89,34.46,19.89-34.19,19.9-34.5-19.9m70.11,0-35.88-20.71-35.65,20.72,35.92,20.71L1002,391.35" transform="translate(-750.96 -247)"/></g><polygon class="cls-1" points="179.47 144.36 215.12 123.64 251 144.35 215.35 165.07 179.47 144.36"/></g></g></svg>