<svg width="256" height="256" viewBox="0 0 256 256" fill="none" xmlns="http://www.w3.org/2000/svg">
<path fill-rule="evenodd" clip-rule="evenodd" d="M178.787 55.7823C178.787 55.7823 189.13 53.9771 196.889 55.7823C196.889 55.7823 208.317 46.7611 208.536 16.7508L216.512 6C216.512 6 229.014 32.6235 214.789 60.6793C214.789 60.6793 225.132 67.7405 226.642 72.0314L225.159 76.7791C210.261 68.9034 194.194 63.4649 177.57 60.671L178.787 55.7823ZM14 250.931C14.098 250.931 62.8858 253.354 117.595 229.453C103.948 223.175 90.8279 215.815 78.3595 207.443C59.3169 225.212 37.5995 239.887 14 250.931V250.931ZM193.929 171.071C177.157 167.682 160.937 161.989 145.73 154.155C135.261 169.198 121.902 184.905 105.218 198.555C105.218 198.555 122.677 180.387 138.587 150.29C134.14 147.744 129.803 145.018 125.577 142.112C116.195 160.914 104.342 178.381 90.3329 194.052C104.39 203.655 119.397 211.792 135.118 218.335C157.115 205.805 176.968 189.85 193.928 171.071H193.929ZM163.499 85.1629L180.712 89.3878C180.712 89.3878 173.678 112.429 157.071 140.784C173.81 149.558 191.881 155.525 210.558 158.446C223.824 140.607 234.728 121.132 243 100.505C215.375 81.6214 182.707 71.4589 149.23 71.335C146.165 90.1654 141.041 108.604 133.952 126.319C138.43 129.625 143.056 132.715 147.829 135.591C154.876 119.402 160.131 102.493 163.499 85.1643" fill="#FF5722"/>
</svg>
