<svg xmlns="http://www.w3.org/2000/svg" viewBox="0 0 397 396.24"><defs><style>.cls-1,.cls-2{stroke:#fff;stroke-miterlimit:10;}.cls-2{fill:#fff;}</style></defs><g id="Camada_2" data-name="Camada 2"><g id="Camada_1-2" data-name="Camada 1"><path class="cls-1" d="M172,1.84C105.5,11,49.9,51.24,20.4,111.64,6.5,140.24.5,166.44.5,199.14c0,31.7,6.6,59.5,21,88.2C49.1,342.34,98.4,380,160,393c12.2,2.6,14.5,2.7,38.5,2.7s26.3-.1,38.5-2.7c62.4-13.2,112-51.6,139.6-108,13.8-28.3,19.9-54.8,19.9-86.7s-6.1-58.4-19.9-86.7c-29.5-60.4-85.8-101.1-151.7-109.7C210.9,0,185,0,172,1.84Z"/><path class="cls-2" d="M84,117.78a54.75,54.75,0,0,1,10.2,7c2.8,2.5,25,27.4,49.2,55.4s45.7,52.3,47.8,54c5.1,4.2,9.5,4.2,14.6,0,2-1.7,23.1-25.6,46.9-53.2s45.6-52.6,48.5-55.5c7.5-7.5,14.6-10.6,24.8-10.6,13.7,0,23.2,6.2,29.3,19.2l2.7,5.7.3,64.2c.3,62.6.2,64.3-1.7,68.2-5.7,11.1-19.7,13.2-28.3,4.2a22.84,22.84,0,0,1-4.7-7.7c-.7-2.5-1.1-21-1.1-52.9,0-29.4-.4-49.6-1-50.5-.7-1.1-1.4-1.2-2.7-.4-1,.6-20.1,22.2-42.6,48-52.5,60.4-53.9,62-59.7,64.9a40.36,40.36,0,0,1-24.6,3.6,35.21,35.21,0,0,1-21-11.3c-2.8-2.9-24.3-27.4-47.7-54.5s-43.7-49.9-44.9-50.7c-1.7-1.2-2.4-1.3-3-.3-.4.6-.8,23.5-.8,50.7,0,32.2-.4,50.9-1.1,53.4a22.84,22.84,0,0,1-4.7,7.7c-8.6,9-22.6,6.9-28.3-4.2-1.9-3.9-2-5.6-1.7-68.2l.3-64.2,2.6-5.6c4.7-10.1,12.1-16.5,21.6-18.9C69,113.88,78.3,115,84,117.78Z"/></g></g></svg>