<svg id="Camada_1" data-name="Camada 1" xmlns="http://www.w3.org/2000/svg" viewBox="0 0 390.14 390.14"><defs><style>.cls-1,.cls-2{stroke:#fff;stroke-miterlimit:10;}.cls-2{fill:#fff;}</style></defs><circle class="cls-1" cx="195.07" cy="195.07" r="194.57"/><path class="cls-2" d="M97.68,127.18a48,48,0,0,1,9,6.17c2.47,2.2,22,24.13,43.32,48.78s40.24,46.05,42.09,47.55c4.49,3.7,8.37,3.7,12.86,0,1.76-1.5,20.34-22.54,41.3-46.85s40.15-46.31,42.7-48.87c6.61-6.6,12.86-9.33,21.84-9.33,12.06,0,20.43,5.46,25.8,16.91l2.38,5,.26,56.53c.26,55.12.18,56.62-1.5,60-5,9.77-17.34,11.62-24.92,3.7a20.12,20.12,0,0,1-4.13-6.78c-.62-2.2-1-18.49-1-46.58,0-25.89-.36-43.68-.88-44.47-.62-1-1.24-1.06-2.38-.35-.88.53-17.7,19.55-37.51,42.26-46.23,53.19-47.46,54.6-52.57,57.15a35.53,35.53,0,0,1-21.66,3.17,30.94,30.94,0,0,1-18.49-9.95c-2.47-2.55-21.4-24.13-42-48s-38.48-43.94-39.54-44.64c-1.5-1.06-2.11-1.15-2.64-.27-.35.53-.71,20.7-.71,44.65,0,28.35-.35,44.82-1,47a20.12,20.12,0,0,1-4.13,6.78c-7.58,7.92-19.9,6.07-24.92-3.7-1.68-3.43-1.76-4.93-1.5-60l.26-56.53,2.29-4.93c4.14-8.9,10.66-14.53,19-16.65C84.47,123.75,92.66,124.74,97.68,127.18Z" transform="translate(-3.43 -3.43)"/></svg>