<?xml version="1.0" standalone="no"?>
<!DOCTYPE svg PUBLIC "-//W3C//DTD SVG 20010904//EN"
 "http://www.w3.org/TR/2001/REC-SVG-20010904/DTD/svg10.dtd">
<svg version="1.0" xmlns="http://www.w3.org/2000/svg"
 width="396.000000pt" height="396.000000pt" viewBox="0 0 396.000000 396.000000"
 preserveAspectRatio="xMidYMid meet">
<metadata>
Created by potrace 1.11, written by Peter Selinger 2001-2013
</metadata>
<g transform="translate(0.000000,396.000000) scale(0.100000,-0.100000)"
fill="#000000" stroke="none">
<path d="M1715 3945 c-665 -92 -1221 -494 -1516 -1098 -139 -286 -199 -548
-199 -875 0 -317 66 -595 210 -882 276 -550 769 -927 1385 -1057 122 -26 145
-27 385 -27 240 0 263 1 385 27 624 132 1120 516 1396 1080 138 283 199 548
199 867 0 319 -61 584 -199 867 -295 604 -858 1011 -1517 1097 -140 19 -399
19 -529 1z m-880 -1170 c28 -13 73 -45 102 -70 28 -25 250 -274 492 -554 242
-280 457 -523 478 -540 51 -42 95 -42 146 0 20 17 231 256 469 532 238 276
456 526 485 555 75 75 146 106 248 106 137 0 232 -62 293 -192 l27 -57 3 -642
c3 -626 2 -643 -17 -682 -57 -111 -197 -132 -283 -42 -20 21 -41 56 -47 77 -7
25 -11 210 -11 529 0 294 -4 496 -10 505 -7 11 -14 12 -27 4 -10 -6 -201 -222
-426 -480 -525 -604 -539 -620 -597 -649 -74 -37 -166 -51 -246 -36 -88 16
-148 48 -210 113 -28 29 -243 274 -477 545 -235 270 -437 499 -449 507 -17 12
-24 13 -30 3 -4 -6 -8 -235 -8 -507 0 -322 -4 -509 -11 -534 -6 -21 -27 -56
-47 -77 -86 -90 -226 -69 -283 42 -19 39 -20 56 -17 682 l3 642 26 56 c47 101
121 165 216 189 58 14 151 3 208 -25z"/>
</g>
</svg>
