<svg xmlns="http://www.w3.org/2000/svg" viewBox="0 0 102.31 108.75"><defs><style>.cls-1{fill:#22222d;}.cls-2{fill:#84849b;}.cls-3{fill:#4e4e68;}.cls-4{fill:#dadae8;}.cls-5{fill:#373747;}.cls-6{fill:#ededf2;}.cls-7{isolation:isolate;}.cls-8{fill:#2a2a3a;}.cls-9{fill:#121217;}.cls-10{fill:#121218;}.cls-11{fill:#bebed3;}.cls-12{fill:#11111e;}.cls-13{fill:#ace0f9;}.cls-14{fill:#d2f4ff;}.cls-15{fill:#e6f7ff;}.cls-16{fill:#b9e2ef;}.cls-17{fill:#d4edfc;}.cls-18{fill:#d4f7ff;}.cls-19{fill:#a3d6e2;}.cls-20{fill:#e9f8ff;}.cls-21{fill:#c3e1ea;}.cls-22{fill:#7c1419;}.cls-23{fill:#b31d24;}.cls-24{fill:#c82029;}.cls-25{fill:#a8dae2;}</style></defs><g id="Camada_2" data-name="Camada 2"><g id="Layer_1" data-name="Layer 1"><path class="cls-1" d="M1.66,35.16a2,2,0,0,0-.88,1.53L.9,81.35c0,.57.4.79.89.51L61.7,47.28a2,2,0,0,0,.88-1.54L62.45,1.08c0-.56-.4-.79-.89-.5Z"/><path class="cls-2" d="M0,36.2v-.13H0a.43.43,0,0,0,0,0H0a.08.08,0,0,1,0,0,.11.11,0,0,1,0,0,.06.06,0,0,1,0,0,.09.09,0,0,1,0,0,.08.08,0,0,1,0,0h0s0,0,0,0,0,0,0,0l0,0a.05.05,0,0,1,0,0s0,0,0,0h0a.05.05,0,0,0,0,0,.08.08,0,0,0,0-.05l0,0,0,0h0v0l.06-.1.06-.08a.1.1,0,0,1,0-.05l0,0,0,0,0,0h0l0,0,0,0,0,0,0,0a0,0,0,0,0,0,0h0l0,0,0,0,0,0,0,0h0L60.79.12h0l0,0,0,0h0l0,0h.33l.06,0,.07,0,.77.45h0l-.13,0h0a.38.38,0,0,0-.15,0h0a.45.45,0,0,0-.16,0h0a1,1,0,0,0-.18.09L1.66,35.16l-.18.12h0a1.07,1.07,0,0,0-.16.14h0l-.14.18h0l-.12.2H1a1.24,1.24,0,0,0-.1.2h0a1.8,1.8,0,0,0-.08.21h0a1.59,1.59,0,0,0-.06.43L.9,81.35a1.23,1.23,0,0,0,0,.2h0a.53.53,0,0,0,0,.15H1a.86.86,0,0,0,.07.1s0,0,0,0l.1.08h0l-.77-.45a.39.39,0,0,1-.1-.08l0,0,0,0,0-.06h0s0,0,0,0l0,0V81.1h0a0,0,0,0,1,0,0,.08.08,0,0,0,0,0V80.9h0L0,36.24Z"/><polygon class="cls-3" points="3.88 75.32 59.48 43.29 59.48 5.58 3.88 37.61 3.88 75.32"/><path class="cls-4" d="M1.65,82.8l38.62,22.43a1.89,1.89,0,0,0,1.76,0l59.91-34.58c.49-.28.49-.74,0-1L63.33,47.19a1.94,1.94,0,0,0-1.77,0l-7.94,4.59L9.92,77,1.65,81.77C1.16,82.05,1.16,82.51,1.65,82.8Z"/><path class="cls-2" d="M1.31,82.42h0l.06.11v0l.1.12.09.06.08.05,38.62,22.45a1.33,1.33,0,0,0,.24.11l.09,0,.13,0,.15,0h.53l.19,0h0l.16,0h0l.19-.09,59.91-34.59a.64.64,0,0,0,.37-.52v3.3a.61.61,0,0,1-.36.51L42,108.53l-.18.09h0l-.1,0h-.13l-.12,0h-.29s0,0,0,0,0,0-.06,0h-.34l-.13,0-.06,0h0a1.12,1.12,0,0,1-.25-.11L1.66,86.09h0l-.07,0L1.49,86h0l-.07-.08s0,0,0,0,0,0,0,0a.05.05,0,0,1,0,0,.16.16,0,0,1,0-.07h0l0,0s0,0,0-.07h0V82.29A.32.32,0,0,0,1.31,82.42Z"/><path class="cls-5" d="M3.49,85.66a.68.68,0,0,0,.23.55L26.66,99.46c.13.07.23-.06.23-.29h0a.68.68,0,0,0-.23-.55L3.72,85.38c-.13-.08-.23.05-.23.28Z"/><path class="cls-6" d="M30.68,96.19a2.88,2.88,0,0,0,2.6.09L87,65.26c.68-.39.61-1.06-.15-1.5L64.79,51a2.88,2.88,0,0,0-2.6-.09L8.46,82c-.68.39-.61,1.06.15,1.5Z"/><g class="cls-7"><path class="cls-8" d="M59.08,54.28a.45.45,0,0,0,0,.86L60.5,56A1.7,1.7,0,0,0,62,56l3.67-2.12a.46.46,0,0,0,0-.87l-1.42-.82a1.63,1.63,0,0,0-1.49,0Z"/><path class="cls-9" d="M58.79,54.82h0a.31.31,0,0,0,.05.1s0,0,0,0l.08.09.08.06.06,0L60.5,56l.21.09.08,0,.1,0,.13,0h.44l.17,0h0l.15,0h0L62,56l3.67-2.12a.53.53,0,0,0,.31-.44V54a.54.54,0,0,1-.32.43L62,56.54l-.15.07h0l-.09,0-.05,0H61.6l-.1,0h-.6l-.11,0h-.08a1.21,1.21,0,0,1-.2-.09l-1.43-.83h0l0,0L59,55.61h0l-.07-.08h0v0l0,0,0-.06h0s0,0,0,0a.13.13,0,0,1,0-.06v-.57h0A.41.41,0,0,0,58.79,54.82Z"/></g><g class="cls-7"><path class="cls-8" d="M10.8,82.15c-.35.21-.35.54,0,.74l1.64,1a1.39,1.39,0,0,0,1.27,0l1.64-1a.39.39,0,0,0,0-.74l-1.64-1a1.42,1.42,0,0,0-1.27,0Z"/><path class="cls-9" d="M10.56,82.62h0a.2.2,0,0,0,0,.08s0,0,0,0a.46.46,0,0,0,.07.07.18.18,0,0,0,.07,0,.1.1,0,0,0,.05,0l1.64,1,.17.08.07,0,.09,0,.11,0h.38l.14,0h0l.13,0h0a.61.61,0,0,0,.14-.07l1.64-1a.45.45,0,0,0,.27-.37v.57a.43.43,0,0,1-.26.37l-1.65,1a.38.38,0,0,1-.13.06h0a.11.11,0,0,1-.08,0h-.7l-.09,0h-.07a.53.53,0,0,1-.17-.08l-1.64-1h0l0,0-.06,0h0l-.06-.06h0s0,0,0,0v0l0-.05h0l0,0v-.63h0A.15.15,0,0,0,10.56,82.62Z"/></g><g class="cls-7"><path class="cls-8" d="M64.93,55.2a.39.39,0,0,0,0,.74l1.64,1a1.42,1.42,0,0,0,1.27,0l1.64-1a.39.39,0,0,0,0-.74l-1.64-1a1.42,1.42,0,0,0-1.27,0Z"/><path class="cls-9" d="M64.66,55.57a.44.44,0,0,0,0,.1h0l0,.08a0,0,0,0,0,0,0,.27.27,0,0,0,.07.08l.06,0,.06,0,1.64,1,.17.08.07,0,.09,0,.1,0h.38l.14,0h0l.13,0h0l.14-.07,1.64-1a.45.45,0,0,0,.27-.37v.57a.46.46,0,0,1-.26.37l-1.65,1a.52.52,0,0,1-.13.06h0l-.08,0h-.09l-.09,0H66.9l-.09,0h-.07l-.17-.08-1.64-1h0l0,0-.06,0h0l0-.06h0v0l0,0a.14.14,0,0,1,0-.06h0a.06.06,0,0,0,0,0v-.63Z"/></g><g class="cls-7"><path class="cls-8" d="M66.63,58.66a.45.45,0,0,0,0,.86l1.42.83a1.61,1.61,0,0,0,1.48,0l3.68-2.12a.46.46,0,0,0,0-.86l-1.43-.83a1.66,1.66,0,0,0-1.49,0Z"/><path class="cls-9" d="M66.32,59.1a.36.36,0,0,0,0,.1v0a.93.93,0,0,0,0,.1h0l.09.09.07.06.07,0,1.42.83a.67.67,0,0,0,.21.09l.07,0,.11,0,.13,0H69l.17,0h0l.15,0,0,0a.69.69,0,0,0,.15-.07l3.68-2.12a.55.55,0,0,0,.31-.44v.58a.53.53,0,0,1-.31.43l-3.67,2.12-.15.08h0l-.09,0h-.69l-.09,0h0l-.11,0,0,0h0a.67.67,0,0,1-.21-.09l-1.42-.82h0l-.06,0-.07,0h0l-.06-.07h0l0,0,0,0,0-.06h0s0,0,0,0a.13.13,0,0,1,0-.06h0V59.1Z"/></g><g class="cls-7"><path class="cls-8" d="M14.62,84.25a.45.45,0,0,0,0,.86l1.42.83a1.69,1.69,0,0,0,1.49,0l3.67-2.12a.46.46,0,0,0,0-.87l-1.42-.82a1.65,1.65,0,0,0-1.5,0Z"/><path class="cls-9" d="M14.31,84.68a.43.43,0,0,0,0,.11h0s0,.07.05.1l0,0a.32.32,0,0,0,.08.09l.07.06.07,0,1.42.83.2.09.08,0,.11,0,.12,0H17l.17,0h0l.14,0h0l.16-.07,3.67-2.12a.54.54,0,0,0,.31-.44V84a.53.53,0,0,1-.31.43l-3.67,2.12-.15.07h0a.24.24,0,0,1-.09,0l-.05,0h-.06l-.1,0h-.61l-.1,0h-.08L16,86.51l-1.42-.83h0l0,0-.07,0h0l-.06-.07s0,0,0,0,0,0,0,0,0,0,0,0,0,0,0-.06h0s0,0,0,0,0,0,0,0,0,0,0-.06v-.58Z"/></g><g class="cls-7"><path class="cls-8" d="M69.65,61.22a.45.45,0,0,0,0,.86l1.42.82a1.66,1.66,0,0,0,1.49,0l4.36-2.52c.41-.24.42-.63,0-.87L75.5,58.7a1.63,1.63,0,0,0-1.49,0Z"/><path class="cls-9" d="M69.34,61.65a.43.43,0,0,0,0,.11h0a.31.31,0,0,0,0,.1v0a.76.76,0,0,0,.09.09l.08.06.06,0,1.42.82.2.1.08,0,.11,0,.13,0H72a.86.86,0,0,0,.17,0h0l.15,0h0l.16-.07,4.36-2.52a.53.53,0,0,0,.31-.44v.57a.53.53,0,0,1-.31.44l-4.36,2.52-.16.07h0l-.1,0-.06,0h0l-.1,0h-.61l-.11,0h-.07a1,1,0,0,1-.21-.09l-1.42-.83h0l-.06,0-.07-.05h0s0,0-.06-.08h0l0,0,0,0a.14.14,0,0,1,0-.06h0s0,0,0,0,0,0,0-.06v-.58Z"/></g><g class="cls-7"><path class="cls-8" d="M75.2,62.51c-.42.24-.44.61,0,.84l1.51.88a1.59,1.59,0,0,0,1.44,0l2.7-1.56c.41-.24.44-.61,0-.83l-1.51-.88a1.58,1.58,0,0,0-1.45,0Z"/><path class="cls-9" d="M74.87,63a.29.29,0,0,0,0,.09v0a.41.41,0,0,0,0,.09h0l.07.09.06,0,.07.05,1.51.88.19.08.08,0,.09,0,.15,0h.4l.17,0h0l.16,0h0l.16-.08,2.7-1.56a.53.53,0,0,0,.32-.45v.58a.53.53,0,0,1-.33.44l-2.69,1.56-.17.08h0l-.13,0h-.12l-.1,0h-.42l-.13,0h0l-.09,0h-.08l-.19-.08-1.51-.88h0l0,0s0,0-.06-.05h0L75,63.76h0v0s0,0,0,0a.14.14,0,0,1,0-.06h0s0,0,0,0V63Z"/></g><g class="cls-7"><path class="cls-10" d="M22.94,87.3a.47.47,0,0,0,.26-.37v.57a.45.45,0,0,1-.26.37l-.09,0v-.57Z"/><path class="cls-9" d="M18.13,87h0a.36.36,0,0,0,0,.09h0l.07.08.06,0,.06,0,4.53,2.63.67.39a1.33,1.33,0,0,0,.21.09l.08,0,.1,0,.13,0h.44l.17,0h0l.15,0h0l.17-.08.71-.41a.53.53,0,0,0,.31-.44v.58a.53.53,0,0,1-.31.43l-.71.41-.16.07h0l-.09,0h-.12l-.1,0H24l0,0-.11,0-.06,0h0a1,1,0,0,1-.21-.09l-.67-.39-4.53-2.63h0l-.05,0-.06,0h0s0,0-.06,0,0,0,0,0h0l0,0,0,0h0v0a0,0,0,0,1,0,0,.07.07,0,0,1,0,0h0v-.58A.28.28,0,0,0,18.13,87Z"/><path class="cls-8" d="M18.38,86.56c-.35.2-.35.53,0,.74l4.53,2.63.67.39a1.65,1.65,0,0,0,1.5,0l.71-.41a.46.46,0,0,0,0-.87l-.71-.41a.61.61,0,0,0-.14-.07l-2.09-1.21.09,0c.35-.21.35-.54,0-.74l-1.63-1a1.38,1.38,0,0,0-1.28,0Z"/></g><g class="cls-7"><path class="cls-8" d="M25.94,91a.39.39,0,0,0,0,.74l1.64,1a1.42,1.42,0,0,0,1.27,0l.79-.45.86-.5,2.82-1.63,1.27-.73.37-.22a.39.39,0,0,0,0-.74l-1.64-1a1.42,1.42,0,0,0-1.27,0l-.38.22-1.27.73L27.59,90l-.86.49Z"/><path class="cls-9" d="M25.69,91.41h0a.41.41,0,0,0,0,.09h0a.3.3,0,0,0,.08.08l.05,0,.06,0,1.64,1,.18.08.07,0,.09,0,.11,0h.37l.14,0h0l.13,0h0l.13-.06.79-.45.86-.5,2.82-1.63,1.27-.73.37-.22a.45.45,0,0,0,.27-.37v.57a.46.46,0,0,1-.26.37l-.38.22-1.27.73-2.82,1.63-.86.5-.78.45-.13.06h0l-.08,0h-.1l-.09,0h-.51l-.09,0h-.07l-.18-.08-1.63-.95h0l-.05,0-.06,0h0l-.06-.06h0v0l0,0a.08.08,0,0,1,0,0h0v-.66h0A.29.29,0,0,0,25.69,91.41Z"/></g><g class="cls-7"><path class="cls-8" d="M68,71.17A.45.45,0,0,0,68,72l1.42.83a1.7,1.7,0,0,0,1.49,0L73.4,71.4a.45.45,0,0,0,0-.86L72,69.71a1.7,1.7,0,0,0-1.49,0Z"/><path class="cls-9" d="M67.66,71.6a.43.43,0,0,0,0,.11h0s0,.07,0,.1h0a.39.39,0,0,0,.08.1l.07,0L68,72l1.42.83a1,1,0,0,0,.21.08l.08,0,.1,0,.13,0h.44l.17,0h0l.14,0h0l.16-.07L73.4,71.4a.5.5,0,0,0,.3-.43v.57a.51.51,0,0,1-.31.43l-2.52,1.46-.15.07h0l-.1,0,0,0h-.06l-.1,0h-.21s0,0,0,0h-.36l-.11,0H69.6l-.21-.09L68,72.6h0l-.06,0-.07,0h0l-.06-.07h0a0,0,0,0,1,0,0s0,0,0,0,0,0,0-.06h0s0,0,0,0,0,0,0-.06h0v-.56Z"/></g><g class="cls-7"><path class="cls-8" d="M49.15,82a.45.45,0,0,0,0,.86l1.42.83a1.66,1.66,0,0,0,1.49,0l16.37-9.45c.42-.24.42-.62,0-.86L67,72.58a1.64,1.64,0,0,0-1.48,0Z"/><path class="cls-9" d="M48.86,82.58h0a.47.47,0,0,0,0,.1,0,0,0,0,0,0,0,.39.39,0,0,0,.08.1l.08,0,.06.05,1.42.83.21.09.08,0,.11,0,.12,0h.44l.17,0h0l.14,0h0a.8.8,0,0,0,.16-.08l6.2-3.57h0l.24-.13h0l9.93-5.74a.51.51,0,0,0,.31-.43v.57a.53.53,0,0,1-.31.44l-9.93,5.73h0l-.24.14h0l-6.19,3.57-.16.08h0l-.11,0h-.11l-.1,0h0s0,0,0,0H51l-.11,0h-.08l-.21-.09-1.42-.83h0l-.05,0-.08,0h0a.23.23,0,0,1-.07-.07,0,0,0,0,0,0,0h0l0,0,0-.06h0a.06.06,0,0,1,0,0,.13.13,0,0,1,0-.06h0v-.57A.22.22,0,0,0,48.86,82.58Z"/></g><g class="cls-7"><path class="cls-8" d="M44.17,84.91a.45.45,0,0,0,0,.86l1.42.82a1.63,1.63,0,0,0,1.49,0l2.52-1.45a.45.45,0,0,0,0-.86l-1.42-.83a1.7,1.7,0,0,0-1.49,0Z"/><path class="cls-9" d="M43.88,85.45h0a.42.42,0,0,0,0,.1l0,0,.08.09.08.06.06,0,1.42.82a1.36,1.36,0,0,0,.21.1l.08,0,.1,0,.13,0h.44l.16,0h0l.14,0h0a.8.8,0,0,0,.16-.08l2.52-1.45a.53.53,0,0,0,.31-.43v.57a.51.51,0,0,1-.31.43l-2.52,1.46-.15.07h0l-.1,0,0,0h-.06l-.1,0H46l-.11,0H45.8l-.21-.09-1.42-.83h0a.1.1,0,0,1,0,0L44,86.24h0a.23.23,0,0,1-.07-.07h0s0,0,0,0,0,0,0,0l0-.06h0a.08.08,0,0,0,0,0s0,0,0-.06v-.57h0A.43.43,0,0,0,43.88,85.45Z"/></g><g class="cls-7"><path class="cls-8" d="M14.42,80.07c-.35.2-.36.53,0,.73l1.64,1a1.36,1.36,0,0,0,1.27,0l1.65-1a.39.39,0,0,0,0-.73l-1.63-1a1.44,1.44,0,0,0-1.28,0Z"/><path class="cls-9" d="M14.17,80.53h0l0,.08s0,0,0,0l.07.08.07,0,.05,0,1.64,1a.49.49,0,0,0,.18.08l.07,0,.08,0,.12,0h.37l.14,0h0l.13,0h0a.61.61,0,0,0,.14-.07l1.65-1a.44.44,0,0,0,.27-.37V81a.47.47,0,0,1-.27.37l-1.64,1-.14.06h0l-.09,0H17s0,0,0,0l-.09,0h-.51l-.09,0h-.05l0,0a.75.75,0,0,1-.18-.07l-1.63-1h0l0,0s0,0-.06,0h0l-.06,0v0h0v0l0,0h0a0,0,0,0,1,0,0,.09.09,0,0,1,0,0v-.57h0A.29.29,0,0,0,14.17,80.53Z"/></g><g class="cls-7"><path class="cls-8" d="M18.13,77.92c-.35.21-.35.54,0,.74l1.64,1a1.39,1.39,0,0,0,1.27,0l1.65-1c.35-.2.35-.53,0-.74l-1.64-1a1.42,1.42,0,0,0-1.27,0Z"/><path class="cls-9" d="M17.88,78.39h0a.56.56,0,0,1,.05.08h0a.27.27,0,0,0,.07.08.18.18,0,0,0,.07.05l.05,0,1.64,1,.17.08.07,0,.09,0,.11,0h.38l.14,0h0l.13,0h0l.14-.07,1.65-1a.46.46,0,0,0,.26-.37v.57a.44.44,0,0,1-.26.37l-1.65,1-.13.07h0l-.08,0h-.09l-.09,0h-.18a0,0,0,0,1,0,0H20.1l-.08,0h-.08l-.17-.08-1.64-1h0l-.05,0-.06,0h0a.17.17,0,0,1-.06-.06,0,0,0,0,0,0,0s0,0,0,0,0,0,0,0,0,0,0,0h0a0,0,0,0,0,0,0V78.3h0A.31.31,0,0,0,17.88,78.39Z"/></g><g class="cls-7"><path class="cls-8" d="M21.85,75.78c-.35.2-.36.53,0,.73l1.63,1a1.42,1.42,0,0,0,1.27,0l1.65-1c.35-.2.36-.53,0-.73l-1.63-1a1.44,1.44,0,0,0-1.28,0Z"/><path class="cls-9" d="M21.6,76.24h0a.41.41,0,0,0,0,.09h0l.07.08.07,0,.06,0,1.63,1,.18.08.07,0,.08,0,.12,0h.37l.14,0h0l.13,0h0l.13-.06,1.65-1a.44.44,0,0,0,.27-.37v.58a.45.45,0,0,1-.27.37l-1.65,1-.13.06h0l-.08,0h-.1l-.09,0h-.51l-.09,0h-.07L23.48,78l-1.63-1h0l0,0s-.05,0-.06,0h0l0-.06v0a0,0,0,0,1,0,0s0,0,0,0l0,0h0s0,0,0,0,0,0,0,0v-.57h0A.29.29,0,0,0,21.6,76.24Z"/></g><g class="cls-7"><path class="cls-8" d="M25.56,73.63a.39.39,0,0,0,0,.74l1.64.95a1.42,1.42,0,0,0,1.27,0l1.65-.95c.35-.21.35-.54,0-.74l-1.64-.95a1.42,1.42,0,0,0-1.27,0Z"/><path class="cls-9" d="M25.31,74.1h0l0,.08a0,0,0,0,0,0,0,.27.27,0,0,0,.07.08.18.18,0,0,0,.07,0l0,0,1.64.95.17.08.07,0,.09,0,.11,0H28l.14,0h0l.13,0h0l.14-.07,1.65-.95a.46.46,0,0,0,.26-.37v.57a.43.43,0,0,1-.26.37l-1.65,1a.52.52,0,0,1-.13.06h0l-.08,0h-.09l-.09,0h-.52l-.08,0h-.08l-.17-.08-1.64-1h0l-.05,0-.06-.05h0l-.06-.06a0,0,0,0,0,0,0s0,0,0,0,0,0,0,0l0,0h0a0,0,0,0,1,0,0,.13.13,0,0,1,0-.06V74h0S25.31,74.07,25.31,74.1Z"/></g><g class="cls-7"><path class="cls-8" d="M29.28,71.49c-.35.2-.36.53,0,.73l1.64,1a1.38,1.38,0,0,0,1.28,0l1.64-1c.35-.2.36-.53,0-.73l-1.63-.95a1.36,1.36,0,0,0-1.27,0Z"/><path class="cls-9" d="M29,72h0a.22.22,0,0,0,0,.08v0s0,0,.07.08l.06,0,.05,0,1.64,1a.71.71,0,0,0,.18.08l.07,0,.09,0h.48l.15,0h0l.13,0h0l.14-.07,1.64-1a.44.44,0,0,0,.27-.37v.58a.47.47,0,0,1-.27.37l-1.64,1-.13.06h0l-.08,0h-.7l-.09,0-.05,0h0l-.18-.07-1.63-1h0l-.05,0-.06,0h0l0-.06v0h0l0,0s0,0,0,0h0s0,0,0,0v-.62h0A.28.28,0,0,0,29,72Z"/></g><g class="cls-7"><path class="cls-8" d="M33,69.34c-.35.21-.35.54,0,.74l1.64,1a1.42,1.42,0,0,0,1.27,0l1.65-1c.35-.2.35-.53,0-.74l-1.64-1a1.42,1.42,0,0,0-1.27,0Z"/><path class="cls-9" d="M32.74,69.81h0l0,.08h0a.27.27,0,0,0,.07.08l.06.05s0,0,.06,0l1.64,1,.17.08.07,0,.09,0,.11,0h.38l.14,0h0l.13,0h0A.59.59,0,0,0,35.9,71l1.65-1a.44.44,0,0,0,.26-.37v.57a.43.43,0,0,1-.26.37l-1.65.95-.13.07h0l-.08,0h-.55a0,0,0,0,1,0,0H35l-.08,0H34.8l-.17-.08L33,70.65h0l0,0-.06,0h0a.34.34,0,0,1-.06-.06h0s0,0,0,0,0,0,0,0a.08.08,0,0,0,0,0h0a0,0,0,0,1,0,0,.13.13,0,0,1,0-.06v-.57h0S32.74,69.78,32.74,69.81Z"/></g><g class="cls-7"><path class="cls-8" d="M36.71,67.2c-.35.2-.35.53,0,.74l1.63.94a1.38,1.38,0,0,0,1.28,0l1.64-.94c.36-.21.36-.54,0-.74l-1.64-1a1.36,1.36,0,0,0-1.27,0Z"/><path class="cls-9" d="M36.46,67.66h0a.41.41,0,0,0,0,.09h0l.07.08.06.05.06,0,1.63.94a.71.71,0,0,0,.18.08l.07,0,.09,0,.11,0h.37l.15,0h0l.13,0h0l.14-.07,1.64-.94a.47.47,0,0,0,.27-.38v.57a.47.47,0,0,1-.27.38l-1.64.94-.13.07h0l-.08,0h-.7l-.09,0h-.05l0,0a.71.71,0,0,1-.18-.08l-1.63-.94h0l-.05,0-.06,0h0l0-.06v0s0,0,0,0l0,0s0,0,0,0h0s0,0,0,0v-.62h0A.28.28,0,0,0,36.46,67.66Z"/></g><g class="cls-7"><path class="cls-8" d="M40.42,65.05c-.35.2-.35.53,0,.74l1.63.95a1.42,1.42,0,0,0,1.27,0L45,65.79c.35-.21.36-.54,0-.74l-1.63-1a1.42,1.42,0,0,0-1.27,0Z"/><path class="cls-9" d="M40.17,65.52h0l0,.09h0l.07.08.07,0,.06,0,1.63.95a.75.75,0,0,0,.18.08l.06,0,.09,0,.12,0h.37l.14,0h0l.13,0h0l.14-.07L45,65.79a.45.45,0,0,0,.27-.37V66a.45.45,0,0,1-.27.37l-1.65,1a.39.39,0,0,1-.13.06h0l-.08,0H43l-.09,0h-.51l-.09,0h-.07a.75.75,0,0,1-.18-.08l-1.63-1h0l0,0a.15.15,0,0,1-.06,0h0l0-.06h0l0,0s0,0,0,0a.14.14,0,0,1,0-.06h0s0,0,0,0v-.62h0A.44.44,0,0,0,40.17,65.52Z"/></g><g class="cls-7"><path class="cls-8" d="M44.14,62.91a.39.39,0,0,0,0,.73l1.63,1a1.38,1.38,0,0,0,1.28,0l1.64-1c.36-.2.36-.53,0-.73L47.06,62a1.36,1.36,0,0,0-1.27,0Z"/><path class="cls-9" d="M43.89,63.37h0a.41.41,0,0,0,0,.09h0l.07.08.06,0,.06,0,1.63,1a.71.71,0,0,0,.18.08l.07,0,.09,0,.11,0h.37l.15,0h0l.13,0h0l.14-.07,1.64-1a.44.44,0,0,0,.27-.37v.58a.47.47,0,0,1-.26.37l-1.65,1-.13.06h0l-.08,0h-.7l-.09,0-.05,0h0l-.17-.07-1.64-1h0l-.05,0-.06,0h0a.18.18,0,0,1,0-.07s0,0,0,0v0l0,0s0,0,0-.05h0a0,0,0,0,0,0,0v-.62h0A.28.28,0,0,0,43.89,63.37Z"/></g><g class="cls-7"><path class="cls-8" d="M47.86,60.76a.39.39,0,0,0,0,.74l1.64,1a1.42,1.42,0,0,0,1.27,0l1.65-1c.35-.2.35-.53,0-.74l-1.64-.95a1.42,1.42,0,0,0-1.27,0Z"/><path class="cls-9" d="M47.61,61.23h0l0,.08h0l.07.08.07.05.05,0,1.64,1a.75.75,0,0,0,.18.08l.06,0,.09,0,.11,0h.38l.14,0h0l.12,0h0a.59.59,0,0,0,.14-.06l1.65-1a.45.45,0,0,0,.27-.37v.57a.45.45,0,0,1-.27.37l-1.65,1a.31.31,0,0,1-.13.06h0l-.09,0h-.09l-.09,0h-.51l-.09,0h-.07a.75.75,0,0,1-.18-.08l-1.63-1h0l0,0s0,0-.06-.05h0l-.06-.06h0v0s0,0,0,0l0,0h0s0,0,0,0a.43.43,0,0,1,0,0v-.57h0A.44.44,0,0,0,47.61,61.23Z"/></g><g class="cls-7"><path class="cls-8" d="M51.57,58.62a.39.39,0,0,0,0,.73l1.63.95a1.38,1.38,0,0,0,1.28,0l1.64-.95c.36-.2.36-.53,0-.73l-1.64-1a1.42,1.42,0,0,0-1.27,0Z"/><path class="cls-9" d="M51.32,59.08h0a.41.41,0,0,0,0,.09h0l.07.08.06,0,.06,0,1.63.95.18.08.07,0,.09,0a.2.2,0,0,0,.11,0H54l.14,0h0l.13,0h0l.14-.07,1.64-.95a.44.44,0,0,0,.27-.37v.57a.45.45,0,0,1-.26.38l-1.65,1-.13.06h0l-.08,0h-.7l-.09,0-.05,0h0l-.17-.08-1.64-1h0l-.05,0-.06,0h0l0-.06s0,0,0,0h0l0,0s0,0,0,0h0v0a0,0,0,0,0,0,0V59h0A.28.28,0,0,0,51.32,59.08Z"/></g><g class="cls-7"><path class="cls-8" d="M55.29,56.47a.39.39,0,0,0,0,.74l1.64.95a1.39,1.39,0,0,0,1.27,0l1.65-.95a.39.39,0,0,0,0-.74l-1.63-.95a1.44,1.44,0,0,0-1.28,0Z"/><path class="cls-9" d="M55,56.93v0l0,.08h0a.27.27,0,0,0,.07.08l.07.05.05,0,1.64.95.18.08.07,0,.08,0,.12,0h.37l.14,0h0l.13,0h0l.13-.06,1.65-.95a.45.45,0,0,0,.27-.37v.57a.44.44,0,0,1-.27.37l-1.65.95-.13.07h0l-.08,0h-.1l-.09,0h-.52l-.08,0H57.1l-.18-.08-1.63-.95h0l0,0a.15.15,0,0,1-.06-.05h0l-.06-.06a0,0,0,0,0,0,0v0l0,0,0,0h0s0,0,0,0a.43.43,0,0,1,0,0v-.57h0A.29.29,0,0,0,55,56.93Z"/></g><g class="cls-7"><path class="cls-8" d="M22,84.43a.39.39,0,0,0,0,.74l1.63,1a1.42,1.42,0,0,0,1.27,0l1.65-1c.36-.21.36-.53,0-.74l-1.64-1a1.36,1.36,0,0,0-1.27,0Z"/><path class="cls-9" d="M21.75,84.9h0a.41.41,0,0,0,.05.09h0a.3.3,0,0,0,.08.08l.06,0,.06,0,1.63,1,.18.08.07,0,.09,0,.11,0h.37l.15,0h0l.13,0h0l.13-.06,1.65-1a.47.47,0,0,0,.27-.37v.57a.45.45,0,0,1-.27.37l-1.64,1-.13.06h0l-.08,0h-.1l-.09,0H24l-.09,0h-.07l-.18-.08-1.63-1h0l0,0-.06,0h0l-.05-.06h0v0l0,0s0,0,0-.06h0s0,0,0,0v-.62h0A.44.44,0,0,0,21.75,84.9Z"/></g><g class="cls-7"><path class="cls-8" d="M25.71,82.29a.39.39,0,0,0,0,.73l1.64,1a1.42,1.42,0,0,0,1.27,0l1.65-1a.39.39,0,0,0,0-.73l-1.63-1a1.44,1.44,0,0,0-1.28,0Z"/><path class="cls-9" d="M25.47,82.75h0a.2.2,0,0,0,0,.08s0,0,0,0l.07.08.07,0,.05,0,1.64,1a.75.75,0,0,0,.18.07l.06,0,.09,0h.49l.14,0h0l.12,0h0l.14-.06,1.65-1a.45.45,0,0,0,.26-.37v.57c0,.14-.08.27-.26.38l-1.65,1-.13.06h0l-.08,0H27.8l-.08,0h0l-.08,0-.05,0h0a.75.75,0,0,1-.18-.07l-1.64-1h0a.08.08,0,0,1,0,0l-.07,0h0l-.06-.06h0s0,0,0,0v0l0,0h0v0a.11.11,0,0,1,0-.05v-.58h0A.29.29,0,0,0,25.47,82.75Z"/></g><g class="cls-7"><path class="cls-8" d="M29.43,80.14a.39.39,0,0,0,0,.74l1.63,1a1.42,1.42,0,0,0,1.27,0l1.65-1c.36-.21.36-.54,0-.74l-1.64-1a1.42,1.42,0,0,0-1.27,0Z"/><path class="cls-9" d="M29.18,80.6h0a.26.26,0,0,0,.05.09h0a.27.27,0,0,0,.07.08l.06,0,.06,0,1.63,1,.18.08.07,0,.09,0,.11,0h.37l.15,0h0l.13,0h0a.52.52,0,0,0,.13-.06l1.65-1a.47.47,0,0,0,.27-.37v.57a.45.45,0,0,1-.27.37l-1.64,1a.38.38,0,0,1-.13.06h0l-.08,0H32l-.09,0h-.17s0,0,0,0H31.4l-.09,0h-.07l-.18-.08-1.63-1h0l-.05,0-.06,0h0l-.05-.06s0,0,0,0a0,0,0,0,1,0,0l0,0s0,0,0,0h0a.08.08,0,0,0,0,0v-.62h0A.28.28,0,0,0,29.18,80.6Z"/></g><g class="cls-7"><path class="cls-8" d="M33.15,78c-.36.21-.36.54,0,.74l1.64,1a1.36,1.36,0,0,0,1.27,0l1.65-1a.39.39,0,0,0,0-.74L36.07,77a1.44,1.44,0,0,0-1.28,0Z"/><path class="cls-9" d="M32.9,78.46h0a.3.3,0,0,0,0,.08v0l.07.07.07.06,0,0,1.64,1a.75.75,0,0,0,.18.08l.06,0,.09,0h.49l.14,0h0l.12,0h0l.14-.07,1.65-1a.41.41,0,0,0,.26-.37c0,.19,0,.38,0,.57a.44.44,0,0,1-.27.37l-1.64,1-.14.07h0l-.09,0h-.58l-.08,0h0l-.08,0H35s0,0,0,0a.49.49,0,0,1-.18-.08l-1.64-1h0s0,0,0,0l-.07,0h0L33,79.15h0a0,0,0,0,0,0,0,0,0,0,0,1,0,0l0,0h0s0,0,0,0a.43.43,0,0,0,0,0v-.57h0A.29.29,0,0,0,32.9,78.46Z"/></g><g class="cls-7"><path class="cls-8" d="M36.86,75.85c-.35.2-.35.53,0,.74l1.63,1a1.44,1.44,0,0,0,1.28,0l1.65-1c.35-.21.35-.54,0-.74l-1.64-.95a1.39,1.39,0,0,0-1.27,0Z"/><path class="cls-9" d="M36.61,76.31h0a.41.41,0,0,0,0,.09h0a.18.18,0,0,0,.07.08l.07,0,0,0,1.63,1,.18.08.07,0,.09,0,.11,0h.37l.15,0h0l.13,0h0l.14-.06,1.65-1a.47.47,0,0,0,.26-.37v.57a.46.46,0,0,1-.26.37l-1.65,1-.13.06h0l-.08,0h-.09l-.09,0h-.52l-.09,0h-.05s0,0,0,0l-.17-.08-1.64-1h0l-.05,0-.06-.05h0l0-.06s0,0,0,0h0s0,0,0,0a.14.14,0,0,1,0-.06h0v0a0,0,0,0,0,0,0v-.62h0A.28.28,0,0,0,36.61,76.31Z"/></g><g class="cls-7"><path class="cls-8" d="M40.58,73.7c-.35.21-.36.54,0,.74l1.64,1a1.39,1.39,0,0,0,1.27,0l1.65-1a.39.39,0,0,0,0-.74l-1.63-1a1.42,1.42,0,0,0-1.27,0Z"/><path class="cls-9" d="M40.33,74.17h0s0,0,0,.08h0a.71.71,0,0,0,.07.09l.07,0,0,0,1.64,1a.49.49,0,0,0,.18.08l.07,0,.08,0,.11,0H43l.14,0h0a.42.42,0,0,0,.12,0h0a.61.61,0,0,0,.14-.07l1.65-1a.45.45,0,0,0,.27-.37v.57a.44.44,0,0,1-.27.37l-1.65,1-.13.06h0s0,0,0,0l-.09,0,0,0h-.65l-.09,0-.05,0h0a.75.75,0,0,1-.18-.07l-1.64-1h0l0,0-.06,0h0l-.06-.06a0,0,0,0,0,0,0v0s0,0,0,0l0,0h0s0,0,0,0a.43.43,0,0,0,0,0v-.58h0A.29.29,0,0,0,40.33,74.17Z"/></g><g class="cls-7"><path class="cls-8" d="M44.29,71.56c-.35.2-.35.53,0,.74l1.63,1a1.44,1.44,0,0,0,1.28,0l1.65-1c.35-.21.35-.54,0-.74l-1.64-1a1.39,1.39,0,0,0-1.27,0Z"/><path class="cls-9" d="M44,72h0a.36.36,0,0,0,0,.09h0a.27.27,0,0,0,.07.08l.07.05,0,0,1.63,1,.18.08.07,0,.09,0,.11,0h.38l.14,0h0l.13,0h0l.14-.06,1.65-1a.47.47,0,0,0,.26-.37v.57a.46.46,0,0,1-.26.37l-1.65.95a.52.52,0,0,1-.13.06h0s0,0,0,0l-.08,0h-.09l-.09,0h-.52l-.08,0H46.1l-.18-.08-1.63-.95h0l-.05,0-.06,0h0l-.06-.06s0,0,0,0a0,0,0,0,0,0,0l0,0,0,0h0s0,0,0,0,0,0,0,0v-.62h0A.28.28,0,0,0,44,72Z"/></g><g class="cls-7"><path class="cls-8" d="M48,69.41c-.35.21-.35.54,0,.74l1.63.95a1.38,1.38,0,0,0,1.28,0l1.64-.95a.39.39,0,0,0,0-.74l-1.64-1a1.42,1.42,0,0,0-1.27,0Z"/><path class="cls-9" d="M47.75,69.88h0a.35.35,0,0,0,0,.08v0a.46.46,0,0,0,.07.07l.06,0,.06,0,1.63.95.18.08.07,0,.09,0h.46s0,0,0,0l.15,0h0l.13,0h0l.14-.07,1.64-.95a.44.44,0,0,0,.27-.37v.57a.44.44,0,0,1-.27.37l-1.64,1-.13.06h0l-.08,0h-.05s0,0,0,0h-.52l-.08,0h0l-.09,0h-.07l-.18-.07-1.63-1h0l-.05,0-.06,0h0s0,0,0-.06h0v0s0,0,0,0,0,0,0,0h0a0,0,0,0,0,0,0v-.63h0A.31.31,0,0,0,47.75,69.88Z"/></g><g class="cls-7"><path class="cls-8" d="M51.72,67.27c-.35.2-.35.53,0,.74l1.64.95a1.42,1.42,0,0,0,1.27,0L56.27,68c.36-.21.36-.54,0-.74l-1.64-1a1.36,1.36,0,0,0-1.27,0Z"/><path class="cls-9" d="M51.47,67.73h0a.36.36,0,0,0,0,.09h0a.27.27,0,0,0,.07.08l.07,0,0,0,1.64.95.17.08.07,0,.09,0,.11,0h.38l.14,0h0l.13,0s0,0,0,0a.59.59,0,0,0,.14-.06L56.27,68a.47.47,0,0,0,.27-.37v.57a.44.44,0,0,1-.26.37l-1.65,1-.13.06h0l-.08,0H54.3l-.09,0h-.52l-.09,0h-.05s0,0,0,0l-.17-.08-1.64-1a0,0,0,0,1,0,0l-.05,0-.06-.05h0l-.06-.06s0,0,0,0h0l0,0s0,0,0-.06h0a.06.06,0,0,1,0,0,.07.07,0,0,1,0,0v-.57h0A.28.28,0,0,0,51.47,67.73Z"/></g><g class="cls-7"><path class="cls-8" d="M55.44,65.12c-.35.21-.35.54,0,.74l1.63,1a1.36,1.36,0,0,0,1.27,0l1.65-1a.39.39,0,0,0,0-.74l-1.64-1a1.42,1.42,0,0,0-1.27,0Z"/><path class="cls-9" d="M55.19,65.59h0l0,.08h0a.3.3,0,0,0,.08.08.15.15,0,0,0,.06,0l.06,0,1.63,1a.71.71,0,0,0,.18.08l.07,0,.09,0,.11,0h.37l.15,0h0l.13,0h0l.13-.07,1.65-1a.45.45,0,0,0,.27-.37v.57a.44.44,0,0,1-.27.37l-1.64.95-.13.07h0l-.08,0h0s0,0,0,0h-.52l-.08,0h0l-.09,0,0,0h0a.71.71,0,0,1-.18-.08l-1.63-.95h0l0,0-.06,0h0l-.05-.06a0,0,0,0,1,0,0v0s0,0,0,0,0,0,0,0h0s0,0,0,0V65.5h0A.29.29,0,0,0,55.19,65.59Z"/></g><g class="cls-7"><path class="cls-8" d="M59.15,63a.39.39,0,0,0,0,.74l1.64,1a1.42,1.42,0,0,0,1.27,0l1.65-1c.35-.21.35-.54,0-.74L62.08,62a1.41,1.41,0,0,0-1.28,0Z"/><path class="cls-9" d="M58.91,63.44h0a.36.36,0,0,0,0,.09h0l.07.08.07,0,0,0,1.64,1,.17.07.07,0,.09,0,.11,0h.38l.14,0h0l.13,0h0l.14-.06,1.65-1a.47.47,0,0,0,.26-.37v.57a.42.42,0,0,1-.26.37l-1.65.95a.52.52,0,0,1-.13.06h0l-.08,0h-.09l-.09,0h-.52l-.08,0H61l-.17-.08-1.64-.95h0l0,0-.06,0h0L59,64.14v0h0v0l0-.06h0a.06.06,0,0,1,0,0,.07.07,0,0,1,0,0v-.57h0A.15.15,0,0,0,58.91,63.44Z"/></g><g class="cls-7"><path class="cls-8" d="M62.87,60.83c-.35.21-.35.54,0,.74l1.63,1a1.38,1.38,0,0,0,1.28,0l1.64-1a.39.39,0,0,0,0-.74l-1.64-.95a1.42,1.42,0,0,0-1.27,0Z"/><path class="cls-9" d="M62.62,61.3h0l0,.08,0,0a.23.23,0,0,0,.07.07l.06.06.06,0,1.63,1,.18.08.07,0,.09,0,.11,0h.37l.15,0h0l.13,0h0l.14-.07,1.64-1a.45.45,0,0,0,.27-.37v.57a.47.47,0,0,1-.27.38l-1.64,1-.13.06h0s0,0,0,0l-.08,0h-.7l-.09,0,0,0h0l-.18-.07-1.63-1h0l0,0-.06,0h0a.15.15,0,0,1-.05-.06,0,0,0,0,1,0,0v0s0,0,0,0,0,0,0,0h0v-.66h0A.3.3,0,0,0,62.62,61.3Z"/></g><g class="cls-7"><path class="cls-8" d="M25,87a.39.39,0,0,0,0,.74l1.64,1a1.39,1.39,0,0,0,1.27,0l1.64-1a.39.39,0,0,0,0-.74l-1.64-1a1.42,1.42,0,0,0-1.27,0Z"/><path class="cls-9" d="M24.71,87.45h0l.05.08h0a.27.27,0,0,0,.07.08l.06.05.06,0,1.64,1,.17.08.07,0,.09,0,.11,0h.37l.15,0h0l.13,0h0l.14-.07,1.64-1a.45.45,0,0,0,.27-.37v.57a.41.41,0,0,1-.26.37l-1.65.95-.13.07h0l-.08,0h-.09l-.09,0h-.52l-.09,0h-.07l-.17-.08L25,88.29h0l-.05,0-.06,0h0a.34.34,0,0,1-.06-.06h0s0,0,0,0l0,0s0,0,0,0h0v0a.13.13,0,0,1,0-.06v-.57h0A.34.34,0,0,0,24.71,87.45Z"/></g><g class="cls-7"><path class="cls-8" d="M28.68,84.84a.39.39,0,0,0,0,.74l1.64,1a1.42,1.42,0,0,0,1.27,0l1.65-1c.35-.21.35-.54,0-.74l-1.63-1a1.38,1.38,0,0,0-1.28,0Z"/><path class="cls-9" d="M28.43,85.3h0l0,.09h0l.07.08.07.05.05,0,1.64,1a.75.75,0,0,0,.18.07l.07,0,.08,0,.12,0h.37l.14,0h0l.13,0h0l.13-.06,1.65-1a.47.47,0,0,0,.27-.38v.58a.45.45,0,0,1-.27.37l-1.64.95-.14.06h0l-.08,0h-.1l-.09,0h-.51l-.09,0,0,0h0l-.18-.08-1.64-.95h0l0,0s-.05,0-.06,0h0L28.5,86v0h0s0,0,0,0a.08.08,0,0,1,0,0h0s0,0,0,0,0,0,0,0v-.57h0A.29.29,0,0,0,28.43,85.3Z"/></g><g class="cls-7"><path class="cls-8" d="M32.39,82.69c-.35.21-.35.54,0,.74l1.63.95a1.41,1.41,0,0,0,1.28,0L37,83.43c.35-.2.35-.53,0-.74l-1.64-1a1.42,1.42,0,0,0-1.27,0Z"/><path class="cls-9" d="M32.14,83.16h0a.3.3,0,0,0,0,.08h0a.27.27,0,0,0,.07.08l.06,0,.06,0,1.63.95.18.08.07,0,.09,0,.11,0h.38l.14,0h0l.13,0h0a.61.61,0,0,0,.14-.07L37,83.43a.46.46,0,0,0,.26-.37v.57A.44.44,0,0,1,37,84L35.3,85l-.13.06h0l-.08,0H35s0,0,0,0h-.32s0,0,0,0h-.25l-.09,0H34.2L34,85l-1.64-1h0l-.05,0-.06,0h0l-.06-.06h0s0,0,0,0a0,0,0,0,1,0,0l0,0h0v0a.07.07,0,0,1,0,0v-.57h0A.28.28,0,0,0,32.14,83.16Z"/></g><g class="cls-7"><path class="cls-8" d="M36.11,80.55c-.35.2-.36.53,0,.73l1.63,1a1.44,1.44,0,0,0,1.28,0l1.64-1c.36-.2.36-.53,0-.73L39,79.6a1.36,1.36,0,0,0-1.27,0Z"/><path class="cls-9" d="M35.86,81h0a.22.22,0,0,0,0,.08v0a.6.6,0,0,0,.08.08s0,0,.06,0l.06,0,1.63,1a1,1,0,0,0,.18.07l.07,0,.09,0,.11,0h.37l.15,0h0l.13,0h0l.14-.06,1.64-1a.44.44,0,0,0,.27-.37v.58a.47.47,0,0,1-.26.37l-1.65,1-.13.06h0l-.08,0h-.1l-.08,0h-.52l-.09,0h-.07l-.18-.08-1.63-1h0l-.05,0-.06,0h0l0-.06v0h0l0,0a.08.08,0,0,1,0-.05h0s0,0,0,0v-.62h0A.28.28,0,0,0,35.86,81Z"/></g><g class="cls-7"><path class="cls-8" d="M39.83,78.4c-.36.21-.36.54,0,.74l1.64,1a1.39,1.39,0,0,0,1.27,0l1.65-1c.35-.2.35-.53,0-.74l-1.64-1a1.42,1.42,0,0,0-1.27,0Z"/><path class="cls-9" d="M39.57,78.86v0a.3.3,0,0,0,0,.08h0a.27.27,0,0,0,.07.08.18.18,0,0,0,.07,0l0,0,1.64,1,.17.08.07,0,.09,0,.11,0h.38l.14,0h0l.13,0h0a.59.59,0,0,0,.14-.06l1.65-1a.46.46,0,0,0,.26-.37v.57a.46.46,0,0,1-.26.37l-1.65,1a.31.31,0,0,1-.13.06h0l-.08,0h-.7l-.08,0h-.08l-.17-.08-1.64-1h0l-.05,0-.06,0h0l-.06-.06h0s0,0,0,0,0,0,0,0l0-.05h0v0a.13.13,0,0,1,0-.06v-.57h0S39.57,78.83,39.57,78.86Z"/></g><g class="cls-7"><path class="cls-8" d="M43.54,76.25c-.35.21-.36.54,0,.74l1.64,1a1.38,1.38,0,0,0,1.28,0l1.64-1a.39.39,0,0,0,0-.74l-1.64-.94a1.38,1.38,0,0,0-1.28,0Z"/><path class="cls-9" d="M43.29,76.72h0a.41.41,0,0,0,.05.09h0l.08.08s0,0,.06,0l.05,0,1.64,1a.71.71,0,0,0,.18.08l.07,0,.09,0,.11,0H46l.15,0h0l.13,0h0l.14-.07,1.64-1a.44.44,0,0,0,.27-.37v.58a.47.47,0,0,1-.27.37l-1.64,1-.13.06h0l-.08,0h-.7l-.09,0-.05,0h0l-.18-.07-1.63-1h0l0,0-.06,0h0l0-.06v0h0l0,0a.14.14,0,0,1,0-.06h0a0,0,0,0,0,0,0v-.62h0A.28.28,0,0,0,43.29,76.72Z"/></g><g class="cls-7"><path class="cls-8" d="M47.26,74.11a.39.39,0,0,0,0,.74l1.64,1a1.42,1.42,0,0,0,1.27,0l1.65-1a.39.39,0,0,0,0-.74l-1.63-1a1.44,1.44,0,0,0-1.28,0Z"/><path class="cls-9" d="M47,74.58h0a.36.36,0,0,0,0,.09h0a.27.27,0,0,0,.07.08l.07,0,0,0,1.64,1a.75.75,0,0,0,.18.08l.06,0,.09,0,.11,0h.38l.14,0h0l.12,0s0,0,0,0a.35.35,0,0,0,.14-.06l1.65-1a.46.46,0,0,0,.26-.37c0,.19,0,.38,0,.57a.45.45,0,0,1-.27.37l-1.65,1a.31.31,0,0,1-.13.06h0l-.08,0h-.1l-.09,0h-.51l-.09,0h-.07a.75.75,0,0,1-.18-.08l-1.64-1h0s0,0,0,0l-.07,0h0l-.06-.06v0h0v0l0,0v0h0s0,0,0,0a.07.07,0,0,1,0,0v-.57h0A.44.44,0,0,0,47,74.58Z"/></g><g class="cls-7"><path class="cls-8" d="M51,72a.39.39,0,0,0,0,.73l1.64,1a1.42,1.42,0,0,0,1.27,0l1.65-1a.39.39,0,0,0,0-.73l-1.64-1a1.36,1.36,0,0,0-1.27,0Z"/><path class="cls-9" d="M50.71,72.43h0a.56.56,0,0,0,0,.08v0l.07.08.07,0,.05,0,1.64,1,.17.07.07,0,.09,0h.49l.14,0h0l.13,0h0l.14-.06,1.65-1a.45.45,0,0,0,.26-.37v.57a.45.45,0,0,1-.26.38l-1.65,1-.13.06h0l-.08,0h-.7l-.09,0-.05,0h0l-.17-.08-1.64-1a0,0,0,0,0,0,0l-.05,0-.06,0h0l-.06-.06v0h0l0,0,0,0h0v0a.09.09,0,0,1,0,0v-.57h0A.28.28,0,0,0,50.71,72.43Z"/></g><g class="cls-7"><path class="cls-8" d="M54.69,69.82a.39.39,0,0,0,0,.74l1.64,1a1.42,1.42,0,0,0,1.27,0l1.65-1a.39.39,0,0,0,0-.74l-1.63-.95a1.44,1.44,0,0,0-1.28,0Z"/><path class="cls-9" d="M54.44,70.29h0l0,.08h0a.27.27,0,0,0,.07.08l.07,0,0,0,1.64,1a.75.75,0,0,0,.18.08l.07,0,.08,0,.11,0h.38l.14,0h0l.12,0h0a.59.59,0,0,0,.14-.06l1.65-1a.45.45,0,0,0,.27-.37v.57a.45.45,0,0,1-.27.37l-1.65,1a.31.31,0,0,1-.13.06h0l-.09,0h-.69l-.09,0H56.5a1,1,0,0,1-.18-.08l-1.64-1h0s0,0,0,0a.15.15,0,0,1-.06,0h0L54.5,71a0,0,0,0,0,0,0s0,0,0,0,0,0,0,0l0-.05h0s0,0,0,0a.43.43,0,0,1,0,0V70.2h0A.36.36,0,0,0,54.44,70.29Z"/></g><g class="cls-7"><path class="cls-8" d="M58.4,67.68a.39.39,0,0,0,0,.73l1.63,1a1.38,1.38,0,0,0,1.28,0l1.64-1c.36-.2.36-.53,0-.73l-1.64-1a1.36,1.36,0,0,0-1.27,0Z"/><path class="cls-9" d="M58.15,68.14h0a.36.36,0,0,0,0,.09h0l.07.08.06,0,.06,0,1.63,1a.71.71,0,0,0,.18.08l.07,0,.09,0h.48l.15,0h0l.13,0h0l.14-.07,1.64-1a.44.44,0,0,0,.27-.37v.58A.47.47,0,0,1,63,69l-1.65,1-.13.06h0l-.08,0h-.7l-.09,0-.05,0h0L60,69.94,58.4,69h0l0,0-.06,0h0l-.05-.06v0h0l0,0s0,0,0,0h0v-.65h0A.28.28,0,0,0,58.15,68.14Z"/></g><g class="cls-7"><path class="cls-8" d="M62.12,65.53c-.36.21-.36.54,0,.74l1.64,1a1.42,1.42,0,0,0,1.27,0l1.65-1a.39.39,0,0,0,0-.74l-1.63-1a1.44,1.44,0,0,0-1.28,0Z"/><path class="cls-9" d="M61.87,66v0l0,.08h0a.27.27,0,0,0,.07.08l.07,0,0,0,1.64,1a.75.75,0,0,0,.18.08l.06,0,.09,0,.12,0h.37l.14,0h0l.13,0a0,0,0,0,0,0,0,.35.35,0,0,0,.14-.06l1.65-1a.45.45,0,0,0,.27-.37v.57a.45.45,0,0,1-.27.37l-1.64,1-.14.07h0l-.09,0h-.7l-.08,0h-.07a.75.75,0,0,1-.18-.08l-1.64-1h0l0,0s-.05,0-.06,0h0l-.06-.06h0l0,0v0l0,0h0s0,0,0,0a.07.07,0,0,1,0,0v-.57h0A.2.2,0,0,0,61.87,66Z"/></g><g class="cls-7"><path class="cls-8" d="M65.83,63.39a.39.39,0,0,0,0,.73l1.63,1a1.44,1.44,0,0,0,1.28,0l1.64-1c.36-.2.36-.53,0-.73l-1.64-1a1.36,1.36,0,0,0-1.27,0Z"/><path class="cls-9" d="M65.58,63.85h0a.22.22,0,0,0,0,.08s0,0,0,0l.07.08.07,0,0,0,1.63,1,.18.07.07,0,.09,0h.49l.14,0h0l.13,0h0l.14-.06,1.64-1a.44.44,0,0,0,.27-.36v.56a.47.47,0,0,1-.26.38l-1.65,1-.13.06h0l-.08,0h-.7l-.08,0h-.06l0,0-.18-.07-1.63-1a0,0,0,0,0,0,0l0,0-.06,0h0l0-.06v0h0l0,0,0,0h0a0,0,0,0,0,0,0v-.62h0A.28.28,0,0,0,65.58,63.85Z"/></g><g class="cls-7"><path class="cls-8" d="M34.05,86.28c-.35.21-.35.54,0,.74l1.63,1A1.41,1.41,0,0,0,37,88l1.65-1c.35-.2.35-.53,0-.74l-1.64-1a1.42,1.42,0,0,0-1.27,0Z"/><path class="cls-9" d="M33.8,86.75h0a.3.3,0,0,0,0,.08v0l.07.07A.18.18,0,0,0,34,87a.1.1,0,0,0,0,0l1.63,1,.18.08.07,0,.09,0,.11,0h.38l.14,0h0l.13,0h0A.61.61,0,0,0,37,88l1.65-1a.44.44,0,0,0,.26-.37c0,.19,0,.38,0,.57a.46.46,0,0,1-.27.37l-1.65,1-.13.07h0l-.08,0H36l-.09,0h-.07a.53.53,0,0,1-.17-.08l-1.64-1h0l0,0-.06,0h0l-.06-.07h0v0l0,0a.08.08,0,0,0,0,0h0a0,0,0,0,1,0,0,.13.13,0,0,1,0-.06v-.57h0A.31.31,0,0,0,33.8,86.75Z"/></g><g class="cls-7"><path class="cls-8" d="M37.77,84.14a.39.39,0,0,0,0,.74l1.64,1a1.44,1.44,0,0,0,1.28,0l1.64-1c.35-.21.36-.54,0-.74l-1.63-1a1.39,1.39,0,0,0-1.27,0Z"/><path class="cls-9" d="M37.52,84.6h0a.41.41,0,0,0,0,.09h0l.07.08.06,0,0,0,1.64,1a1,1,0,0,0,.18.07l.07,0,.09,0,.11,0h.37l.15,0s0,0,0,0l.13,0h0l.14-.06,1.64-1a.47.47,0,0,0,.27-.37v.57a.45.45,0,0,1-.27.37l-1.64,1-.13.06h0l-.08,0h-.1l-.09,0h-.51l-.09,0h-.07l-.18-.08-1.63-1h0l0,0-.06,0h0l0-.06v0h0l0,0a.08.08,0,0,1,0,0h0s0,0,0,0v-.62h0A.29.29,0,0,0,37.52,84.6Z"/></g><g class="cls-7"><path class="cls-8" d="M41.48,82c-.35.21-.35.54,0,.74l1.64,1a1.36,1.36,0,0,0,1.27,0l1.65-1c.35-.2.35-.53,0-.74L44.4,81a1.42,1.42,0,0,0-1.27,0Z"/><path class="cls-9" d="M41.23,82.46h0a.2.2,0,0,0,0,.08v0l.07.08.07,0,0,0,1.64,1,.17.08.07,0,.09,0,.11,0h.38l.14,0h0l.13,0h0l.14-.07,1.65-1a.45.45,0,0,0,.26-.37c0,.19,0,.38,0,.57a.46.46,0,0,1-.27.37l-1.65,1-.13.06h0l-.08,0h-.59l-.07,0h0l-.08,0h-.08l-.17-.07-1.64-1h0s0,0,0,0l-.07,0h0l-.06-.06h0v0l0,0s0,0,0,0h0a0,0,0,0,1,0,0,.11.11,0,0,1,0,0v-.58h0S41.23,82.43,41.23,82.46Z"/></g><g class="cls-7"><path class="cls-8" d="M45.2,79.85a.39.39,0,0,0,0,.74l1.64,1a1.44,1.44,0,0,0,1.28,0l1.64-1c.35-.21.36-.54,0-.74l-1.64-.95a1.39,1.39,0,0,0-1.27,0Z"/><path class="cls-9" d="M45,80.31h0a.41.41,0,0,0,0,.09h0l.08.08.06,0a.1.1,0,0,1,0,0l1.64,1,.18.07.07,0,.09,0,.11,0h.37l.15,0h0l.13,0h0l.14-.06,1.64-1a.47.47,0,0,0,.27-.38v.58a.47.47,0,0,1-.27.37l-1.64,1-.13.06h0l-.08,0h-.1l-.09,0h-.51l-.09,0H47l-.17-.08-1.64-1h0l0,0-.06-.05h0L45,81s0,0,0,0h0l0,0a.08.08,0,0,1,0,0h0s0,0,0,0v-.62h0A.28.28,0,0,0,45,80.31Z"/></g><g class="cls-7"><path class="cls-8" d="M48.92,77.7c-.36.21-.36.54,0,.74l1.64,1a1.39,1.39,0,0,0,1.27,0l1.65-1c.35-.2.35-.53,0-.74l-1.64-1a1.42,1.42,0,0,0-1.27,0Z"/><path class="cls-9" d="M48.67,78.17h0a.3.3,0,0,0,0,.08h0a.27.27,0,0,0,.07.08l.07.05,0,0,1.64,1a.75.75,0,0,0,.18.08l.07,0,.08,0,.11,0h.38l.14,0h0l.13,0h0a.61.61,0,0,0,.14-.07l1.65-1a.46.46,0,0,0,.26-.37c0,.19,0,.38,0,.57a.45.45,0,0,1-.27.37L51.82,80l-.13.07h0l-.08,0h-.41s0,0,0,0h-.24l-.09,0h-.07a.49.49,0,0,1-.18-.08L48.91,79h0s0,0,0,0l-.06,0h0l-.06-.06h0v0s0,0,0,0l0,0h0s0,0,0,0,0,0,0-.06v-.57h0A.3.3,0,0,0,48.67,78.17Z"/></g><g class="cls-7"><path class="cls-8" d="M52.63,75.56c-.35.2-.35.53,0,.74l1.63,1a1.44,1.44,0,0,0,1.28,0l1.64-1c.36-.21.36-.54,0-.74l-1.64-1a1.36,1.36,0,0,0-1.27,0Z"/><path class="cls-9" d="M52.38,76h0a.41.41,0,0,0,0,.09h0l.08.08.06.05.06,0,1.63,1,.18.07.07,0,.09,0,.11,0h.37l.15,0s0,0,0,0l.13,0h0l.14-.06,1.64-1a.47.47,0,0,0,.27-.38v.58a.47.47,0,0,1-.27.37l-1.64.95-.13.06h0l-.08,0h-.1l-.09,0H54.6l-.09,0h-.07l-.17-.08-1.64-.95h0l0,0-.06,0h0l0-.06s0,0,0,0h0l0,0s0,0,0,0h0v-.66h0A.28.28,0,0,0,52.38,76Z"/></g><g class="cls-7"><path class="cls-8" d="M56.35,73.41c-.36.21-.36.54,0,.74L58,75.1a1.42,1.42,0,0,0,1.27,0l1.65-.95a.39.39,0,0,0,0-.74l-1.63-1a1.44,1.44,0,0,0-1.28,0Z"/><path class="cls-9" d="M56.1,73.88h0a.59.59,0,0,0,0,.08v0l.07.07.07,0,.05,0L58,75.1l.18.08.07,0,.08,0,.11,0h.38l.14,0h0l.13,0h0l.14-.07,1.65-.95a.45.45,0,0,0,.27-.37v.57a.45.45,0,0,1-.27.37l-1.65,1a.31.31,0,0,1-.13.06h0l-.08,0h-.7l-.09,0h-.07a.58.58,0,0,1-.18-.08l-1.63-1h0l0,0-.06,0h0l-.06-.06h0s0,0,0,0,0,0,0,0l0,0h0s0,0,0,0,0,0,0-.06v-.57h0A.36.36,0,0,0,56.1,73.88Z"/></g><g class="cls-7"><path class="cls-8" d="M60.05,71.27a.39.39,0,0,0,0,.73l1.64,1A1.42,1.42,0,0,0,63,73l1.65-1a.39.39,0,0,0,0-.73l-1.64-1a1.36,1.36,0,0,0-1.27,0Z"/><path class="cls-9" d="M59.81,71.73h0a.36.36,0,0,0,0,.09h0l.07.08L60,72l0,0,1.64,1a.75.75,0,0,0,.18.07l.06,0,.09,0,.11,0h.38l.14,0h0l.12,0h0L63,73l1.65-1a.45.45,0,0,0,.26-.37c0,.19,0,.39,0,.58a.49.49,0,0,1-.27.37l-1.65,1-.13.06h0l-.08,0h-.09l-.09,0H62l-.08,0h-.07l-.18-.08-1.64-1h0l0,0s0,0-.06-.05h0l-.06-.06v0h0v0l0-.05h0s0,0,0,0a.09.09,0,0,1,0,0v-.57h0A.15.15,0,0,0,59.81,71.73Z"/></g><g class="cls-7"><path class="cls-8" d="M63.78,69.12c-.35.21-.36.54,0,.74l1.64,1a1.36,1.36,0,0,0,1.27,0l1.65-1c.35-.21.36-.53,0-.74l-1.63-1a1.44,1.44,0,0,0-1.28,0Z"/><path class="cls-9" d="M63.53,69.59h0s0,.05,0,.08h0l.07.08.07,0,.05,0,1.64,1a.75.75,0,0,0,.18.08l.06,0,.1,0,.1,0h.38l.14,0h0l.13,0h0l.13-.07,1.65-1a.45.45,0,0,0,.27-.37v.57a.44.44,0,0,1-.27.37l-1.65.95-.12.07h0l-.08,0h-.1l-.09,0h-.51l-.09,0h-.07a.75.75,0,0,1-.18-.08l-1.64-.95h0l0,0-.06,0h0l-.06-.06h0v0l0,0h0s0,0,0,0,0,0,0-.06V69.5h0A.36.36,0,0,0,63.53,69.59Z"/></g><g class="cls-7"><path class="cls-8" d="M67.49,67c-.35.2-.35.53,0,.74l1.63.94a1.38,1.38,0,0,0,1.28,0L72,67.72c.36-.21.36-.54,0-.74l-1.64-1a1.36,1.36,0,0,0-1.27,0Z"/><path class="cls-9" d="M67.25,67.44h0a.18.18,0,0,0,0,.09h0l.07.08.07.05,0,0,1.63.94a.71.71,0,0,0,.18.08l.07,0,.09,0,.11,0H70l.14,0h0a.5.5,0,0,0,.13,0h0l.14-.07L72,67.72a.47.47,0,0,0,.27-.38v.58a.47.47,0,0,1-.26.37l-1.65.95-.13.06h0l-.08,0h-.7l-.08,0-.06,0h0l-.17-.07-1.64-.95h0l0,0-.06,0h0l-.06-.06v0a0,0,0,0,0,0,0s0,0,0,0,0,0,0,0h0l0,0v-.62h0A.15.15,0,0,0,67.25,67.44Z"/></g><g class="cls-7"><path class="cls-8" d="M71.21,64.83c-.35.21-.36.54,0,.74l1.64,1a1.39,1.39,0,0,0,1.27,0l1.65-1a.39.39,0,0,0,0-.74l-1.63-.95a1.44,1.44,0,0,0-1.28,0Z"/><path class="cls-9" d="M71,65.3h0l0,.08v0l.07.07.07,0,0,0,1.64,1a.75.75,0,0,0,.18.08l.07,0,.09,0,.11,0h.35s0,0,0,0l.14,0h0l.13,0h0l.13-.07,1.65-1A.45.45,0,0,0,76,65.2v.57a.44.44,0,0,1-.27.37l-1.64,1-.13.07h0l-.08,0h-.7l-.09,0H73a.75.75,0,0,1-.18-.08l-1.64-1h0l0,0-.06,0h0L71,66h0s0,0,0,0a0,0,0,0,1,0,0l0,0h0s0,0,0,0,0,0,0-.06v-.57h0A.37.37,0,0,0,71,65.3Z"/></g><g class="cls-7"><path class="cls-8" d="M61.17,57.37c-.35.2-.35.53,0,.74l1.63,1a1.44,1.44,0,0,0,1.28,0l1.64-1c.36-.21.36-.54,0-.74l-1.64-.95a1.36,1.36,0,0,0-1.27,0Z"/><path class="cls-9" d="M60.92,57.83h0a.41.41,0,0,0,0,.09h0l.07.08.06,0,.06,0,1.63,1,.18.08.07,0,.09,0,.11,0h.37l.15,0h0l.13,0h0l.14-.06,1.64-1a.47.47,0,0,0,.27-.37v.57a.46.46,0,0,1-.26.37l-1.65,1-.13.06h0l-.08,0h-.1l-.08,0h-.52l-.09,0,0,0h0l-.17-.08-1.64-1h0l0,0-.06,0h0l0-.06v0h0l0,0a.08.08,0,0,1,0,0h0v-.66h0A.28.28,0,0,0,60.92,57.83Z"/></g><g class="cls-7"><path class="cls-8" d="M57.45,59.51c-.35.21-.35.54,0,.74l1.64,1a1.39,1.39,0,0,0,1.27,0l1.65-1c.35-.2.35-.53,0-.74l-1.63-.95a1.44,1.44,0,0,0-1.28,0Z"/><path class="cls-9" d="M57.2,60h0a.3.3,0,0,0,0,.08v0a.46.46,0,0,0,.07.07.18.18,0,0,0,.07.05.1.1,0,0,0,.05,0l1.64,1a.75.75,0,0,0,.18.08l.06,0,.09,0,.11,0h.38l.14,0h0l.13,0h0l.14-.07,1.65-1a.46.46,0,0,0,.26-.37v.57a.43.43,0,0,1-.26.37l-1.65,1-.13.07h0l-.08,0h-.7l-.08,0h-.07a.49.49,0,0,1-.18-.08l-1.64-1h0l0,0-.07,0h0l-.06-.06a0,0,0,0,0,0,0v0s0,0,0,0l0,0h0a0,0,0,0,1,0,0,.11.11,0,0,1,0-.05v-.58h0S57.2,60,57.2,60Z"/></g><g class="cls-7"><path class="cls-8" d="M53.74,61.66c-.35.2-.35.53,0,.74l1.63,1a1.44,1.44,0,0,0,1.28,0l1.64-1c.36-.21.36-.54,0-.74l-1.64-.95a1.36,1.36,0,0,0-1.27,0Z"/><path class="cls-9" d="M53.49,62.12h0a.41.41,0,0,0,0,.09h0l.07.08.06,0,.06,0,1.63,1,.18.07.07,0,.09,0,.11,0h.37l.15,0h0l.13,0h0l.14-.06,1.64-1a.47.47,0,0,0,.27-.37v.57a.45.45,0,0,1-.27.37l-1.64,1-.13.06h0l-.08,0h-.1l-.09,0h-.51l-.09,0h-.07l-.18-.08-1.63-1h0l0,0-.06,0h0l0-.06v0h0l0,0a.08.08,0,0,1,0,0h0s0,0,0,0V62h0A.28.28,0,0,0,53.49,62.12Z"/></g><g class="cls-7"><path class="cls-8" d="M50,63.82c-.35.21-.35.54,0,.74l1.63,1a1.44,1.44,0,0,0,1.28,0l1.64-1a.39.39,0,0,0,0-.74l-1.64-1a1.42,1.42,0,0,0-1.27,0Z"/><path class="cls-9" d="M49.78,64.29h0l0,.08v0a.46.46,0,0,0,.07.07l.06,0,.06,0,1.63,1,.18.08.07,0,.09,0,.11,0h.37l.15,0h0l.13,0h0l.14-.07,1.64-1a.45.45,0,0,0,.27-.37v.57a.45.45,0,0,1-.27.37l-1.64,1-.13.07h0l-.08,0h-.19s0,0,0,0H52l-.09,0h-.07l-.18-.08-1.63-1h0l-.05,0-.06,0h0l0-.06a0,0,0,0,1,0,0v0l0,0s0,0,0-.05h0a.08.08,0,0,0,0,0V64.2h0A.3.3,0,0,0,49.78,64.29Z"/></g><g class="cls-7"><path class="cls-8" d="M46.32,66a.39.39,0,0,0,0,.74l1.64,1a1.42,1.42,0,0,0,1.27,0l1.65-1c.35-.21.35-.54,0-.74l-1.64-1A1.36,1.36,0,0,0,48,65Z"/><path class="cls-9" d="M46.06,66.41h0a.36.36,0,0,0,0,.09h0l.07.08.07.05.05,0,1.64,1,.17.08.07,0,.09,0,.11,0h.38l.14,0h0l.12,0h0a.59.59,0,0,0,.14-.06l1.65-1a.45.45,0,0,0,.26-.38c0,.2,0,.39,0,.58a.45.45,0,0,1-.27.37l-1.65.95-.13.06h0l-.08,0h-.09l-.09,0h-.52l-.08,0h-.08L48,68.21l-1.64-.95h0l0,0-.06,0h0l-.06-.06s0,0,0,0a0,0,0,0,0,0,0,0,0,0,0,0,0,0l0-.06h0a1,1,0,0,1,0-.09v-.57h0S46.06,66.38,46.06,66.41Z"/></g><g class="cls-7"><path class="cls-8" d="M42.59,68.09c-.35.21-.35.54,0,.74l1.63,1a1.38,1.38,0,0,0,1.28,0l1.64-1a.39.39,0,0,0,0-.74l-1.64-1a1.42,1.42,0,0,0-1.27,0Z"/><path class="cls-9" d="M42.34,68.56h0a.2.2,0,0,0,0,.08h0a.27.27,0,0,0,.07.08l.06.06.06,0,1.63,1,.18.08.07,0,.09,0,.11,0H45s0,0,0,0l.15,0h0l.13,0h0l.14-.07,1.64-1a.45.45,0,0,0,.27-.37V69a.45.45,0,0,1-.26.37l-1.65,1-.13.06h0l-.08,0H44.9s0,0,0,0h-.31l-.09,0,0,0h0l-.17-.07-1.64-1h0l0,0-.06,0h0l-.05-.06h0s0,0,0,0l0,0,0,0h0a0,0,0,0,0,0,0v-.63h0A.28.28,0,0,0,42.34,68.56Z"/></g><g class="cls-7"><path class="cls-8" d="M38.88,70.24a.39.39,0,0,0,0,.74l1.63,1a1.42,1.42,0,0,0,1.27,0l1.65-1a.39.39,0,0,0,0-.74l-1.63-.95a1.41,1.41,0,0,0-1.28,0Z"/><path class="cls-9" d="M38.63,70.7h0l0,.09h0l.07.08.07,0,.06,0,1.63,1a.75.75,0,0,0,.18.08l.06,0,.09,0,.12,0h.37l.15,0h0l.12,0h0l.13-.06,1.65-1a.45.45,0,0,0,.27-.38v.58a.45.45,0,0,1-.27.37l-1.65,1a.52.52,0,0,1-.13.06h0l-.07,0h-.1l-.09,0h-.51l-.09,0h-.07a.75.75,0,0,1-.18-.08l-1.63-1h0l0,0s0,0-.06-.05h0l-.06-.06v0h0a0,0,0,0,0,0,0l0-.06h0s0,0,0,0a.43.43,0,0,1,0,0v-.57h0A.29.29,0,0,0,38.63,70.7Z"/></g><g class="cls-7"><path class="cls-8" d="M35.16,72.38c-.35.21-.35.54,0,.74l1.63.95a1.41,1.41,0,0,0,1.28,0l1.64-.95a.39.39,0,0,0,0-.74l-1.64-.94a1.36,1.36,0,0,0-1.27,0Z"/><path class="cls-9" d="M34.91,72.85h0s0,0,0,.08v0L35,73l.06,0,.06,0,1.63.95a.71.71,0,0,0,.18.08l.07,0,.09,0,.11,0h.38l.14,0h0l.13,0h0l.14-.07,1.64-.95a.45.45,0,0,0,.27-.37v.57a.43.43,0,0,1-.26.37l-1.65,1-.13.07h0l-.08,0,0,0h-.66l-.09,0H37a.53.53,0,0,1-.17-.08l-1.64-1h0l0,0-.06,0h0s0,0-.05-.06a0,0,0,0,1,0,0h0l0,0s0,0,0,0h0v0a.11.11,0,0,1,0,0v-.58h0A.31.31,0,0,0,34.91,72.85Z"/></g><g class="cls-7"><path class="cls-8" d="M31.45,74.53c-.35.2-.35.53,0,.74l1.63,1a1.44,1.44,0,0,0,1.28,0l1.64-1c.36-.21.36-.53,0-.74l-1.64-1a1.36,1.36,0,0,0-1.27,0Z"/><path class="cls-9" d="M31.2,75h0a.36.36,0,0,0,0,.09h0l.07.08.06,0,.06,0,1.63,1,.18.08.07,0,.09,0,.11,0h.38l.14,0h0l.13,0h0l.14-.06,1.64-1a.45.45,0,0,0,.27-.37v.57a.46.46,0,0,1-.26.37l-1.65,1-.13.06h0l-.08,0H34l-.09,0h-.52l-.09,0h-.07l-.17-.08-1.64-1h0l-.05,0-.06,0h0a.34.34,0,0,1-.06-.06s0,0,0,0a0,0,0,0,0,0,0l0,0a.14.14,0,0,0,0-.06h0a.06.06,0,0,0,0,0v-.62h0A.28.28,0,0,0,31.2,75Z"/></g><g class="cls-7"><path class="cls-8" d="M27.73,76.67c-.35.21-.35.54,0,.74l1.63,1a1.38,1.38,0,0,0,1.28,0l1.64-1a.39.39,0,0,0,0-.74l-1.64-1a1.42,1.42,0,0,0-1.27,0Z"/><path class="cls-9" d="M27.48,77.14h0a.56.56,0,0,0,.05.08v0a.23.23,0,0,0,.07.07l.06.06.06,0,1.63,1,.18.08.07,0,.09,0,.11,0h.37l.15,0h0l.13,0h0l.14-.07,1.64-1a.44.44,0,0,0,.27-.37v.57a.47.47,0,0,1-.26.38l-1.65,1-.13.06h0l-.08,0h-.07s0,0,0,0h-.5l-.08,0h0l-.09,0-.05,0h0l-.17-.07-1.64-1h0l0,0-.06,0h0l-.05-.07h0l0,0,0,0h0a0,0,0,0,0,0,0v-.63h0A.28.28,0,0,0,27.48,77.14Z"/></g><g class="cls-7"><path class="cls-8" d="M24,78.82c-.35.2-.35.53,0,.74l1.63,1a1.44,1.44,0,0,0,1.28,0l1.64-1c.36-.21.36-.54,0-.74l-1.64-.95a1.39,1.39,0,0,0-1.27,0Z"/><path class="cls-9" d="M23.77,79.28h0a.36.36,0,0,0,0,.09,0,0,0,0,0,0,0,.27.27,0,0,0,.07.08l.06,0,.06,0,1.63,1,.18.08.07,0,.09,0,.11,0h.37a.8.8,0,0,0,.15,0h0l.13,0h0l.14-.06,1.64-1a.47.47,0,0,0,.27-.37v.57a.46.46,0,0,1-.26.37l-1.65,1-.13.06h0l-.08,0H26.6l-.09,0H26l-.09,0h-.07l-.17-.08-1.64-1h0l-.05,0-.06,0h0L23.84,80v0h0l0,0s0,0,0,0h0s0,0,0,0V79.2h0A.28.28,0,0,0,23.77,79.28Z"/></g><g class="cls-7"><path class="cls-8" d="M20.31,81c-.36.21-.36.54,0,.74l1.64,1a1.36,1.36,0,0,0,1.27,0l1.65-1c.35-.2.35-.53,0-.74L23.23,80A1.44,1.44,0,0,0,22,80Z"/><path class="cls-9" d="M20.06,81.43h0a.3.3,0,0,0,0,.08v0l.07.07.07,0,.05,0,1.64,1a.58.58,0,0,0,.18.08l.06,0,.09,0,.11,0h.38l.15,0h0l.12,0h0l.13-.07,1.65-1a.46.46,0,0,0,.27-.37v.57a.44.44,0,0,1-.27.37l-1.65,1-.13.06h0l-.08,0h-.71l-.08,0-.05,0h0l-.18-.07-1.63-1h0l0,0-.06,0h0l-.06-.07h0v0a0,0,0,0,1,0,0l0,0h0s0,0,0,0a.43.43,0,0,0,0,0v-.58h0A.29.29,0,0,0,20.06,81.43Z"/></g><g class="cls-7"><path class="cls-8" d="M29.8,93.2c-.35.2-.35.53,0,.74l1.63,1a1.44,1.44,0,0,0,1.28,0l1.64-1c.36-.21.36-.54,0-.74l-1.64-1a1.36,1.36,0,0,0-1.27,0Z"/><path class="cls-9" d="M29.55,93.66h0a.18.18,0,0,0,0,.09h0l.07.08.07.05.05,0,1.63,1,.18.08.07,0,.09,0,.11,0h.38l.14,0h0l.13,0h0a.59.59,0,0,0,.14-.06l1.64-1a.47.47,0,0,0,.27-.37v.57a.44.44,0,0,1-.26.37l-1.65.95-.13.06h0l-.08,0h-.09l-.09,0h-.52l-.09,0h-.07l-.17-.08-1.64-.95h0l-.05,0-.06,0h0a.34.34,0,0,1-.06-.06v0a0,0,0,0,1,0,0s0,0,0,0,0,0,0-.06h0s0,0,0,0v-.62h0A.28.28,0,0,0,29.55,93.66Z"/></g><g class="cls-7"><path class="cls-8" d="M33.38,91.13c-.35.21-.35.54,0,.74l1.63.95a1.38,1.38,0,0,0,1.28,0l1.65-.95c.35-.2.35-.53,0-.74l-1.64-.95a1.42,1.42,0,0,0-1.27,0Z"/><path class="cls-9" d="M33.13,91.6h0a.59.59,0,0,0,0,.08v0l.07.08.07,0a.1.1,0,0,0,.05,0l1.63.95a.71.71,0,0,0,.18.08l.08,0,.08,0,.11,0h.38l.14,0h0l.12,0h0a.61.61,0,0,0,.14-.07l1.65-.95a.44.44,0,0,0,.26-.37c0,.19,0,.38,0,.57a.44.44,0,0,1-.27.37l-1.65,1-.13.06h0l-.08,0,0,0h-.54l-.08,0h0l-.09,0h-.08L35,93.4l-1.64-1h0l0,0-.06,0h0l-.06,0s0,0,0,0a0,0,0,0,0,0,0s0,0,0,0l0,0h0a0,0,0,0,1,0,0,.11.11,0,0,1,0,0v-.58h0S33.13,91.57,33.13,91.6Z"/></g><g class="cls-7"><path class="cls-8" d="M37,89.08c-.35.2-.35.53,0,.74l1.63,1a1.44,1.44,0,0,0,1.28,0l1.65-1c.35-.21.35-.54,0-.74l-1.64-1a1.42,1.42,0,0,0-1.27,0Z"/><path class="cls-9" d="M36.7,89.55h0a.36.36,0,0,0,0,.09h0l.07.08.07,0,.05,0,1.63,1,.18.08.07,0,.09,0,.11,0h.38l.14,0h0l.13,0h0l.14-.06,1.65-1a.47.47,0,0,0,.26-.38V90a.44.44,0,0,1-.26.37l-1.65,1-.13.06h0l-.08,0h-.09l-.09,0h-.52l-.09,0h0s0,0,0,0l-.17-.08-1.64-1h0l0,0-.06,0h0l-.06-.06h0s0,0,0,0l0,0a.08.08,0,0,0,0,0v0h0v0a.09.09,0,0,1,0,0v-.57h0A.34.34,0,0,0,36.7,89.55Z"/></g><g class="cls-7"><path class="cls-8" d="M40.53,87c-.35.2-.36.53,0,.73l1.64,1a1.42,1.42,0,0,0,1.27,0l1.65-1c.35-.2.36-.53,0-.73l-1.63-1a1.38,1.38,0,0,0-1.28,0Z"/><path class="cls-9" d="M40.28,87.48h0a.36.36,0,0,0,0,.09,0,0,0,0,1,0,0l.08.08s0,0,.06,0l.05,0,1.64,1,.18.08.07,0,.08,0,.11,0H43l.14,0h0l.13,0h0l.14-.06,1.65-1a.44.44,0,0,0,.27-.37V88a.45.45,0,0,1-.27.37l-1.65,1-.13.06h0l-.09,0h-.07s0,0,0,0l-.09,0H42.5l-.09,0h-.07l-.18-.08-1.64-1h0l0,0s0,0-.06-.05h0l0-.06,0,0h0v0l0-.05h0s0,0,0,0V87.4h0A.29.29,0,0,0,40.28,87.48Z"/></g><g class="cls-7"><path class="cls-8" d="M72.59,68.48a.39.39,0,0,0,0,.73l1.64,1a1.36,1.36,0,0,0,1.27,0l1.65-1a.39.39,0,0,0,0-.73l-1.63-1a1.38,1.38,0,0,0-1.28,0Z"/><path class="cls-9" d="M72.35,68.94h0a.2.2,0,0,0,0,.08v0l.07.08.07.05,0,0,1.64,1a.49.49,0,0,0,.18.08l.06,0,.09,0h.49l.14,0h0l.12,0h0l.14-.07,1.65-1a.46.46,0,0,0,.27-.37v.57a.47.47,0,0,1-.27.38l-1.65.95-.13.06h0l-.08,0h-.09l-.09,0h-.51l-.09,0,0,0h0l-.18-.08-1.64-.95h0a.08.08,0,0,1,0,0l-.07,0h0s0,0-.06-.06h0s0,0,0,0l0,0h0a0,0,0,0,1,0,0,.11.11,0,0,1,0,0v-.57h0A.29.29,0,0,0,72.35,68.94Z"/></g><g class="cls-7"><path class="cls-8" d="M76.29,66.36c-.36.21-.36.54,0,.74l1.64,1a1.42,1.42,0,0,0,1.27,0l1.65-1c.35-.2.35-.53,0-.74l-1.63-.94a1.38,1.38,0,0,0-1.28,0Z"/><path class="cls-9" d="M76,66.83h0l0,.09h0l.07.08.07,0,0,0,1.64,1a1,1,0,0,0,.18.07l.07,0,.08,0,.12,0h.37l.14,0h0l.13,0h0l.14-.06,1.65-1a.43.43,0,0,0,.26-.37c0,.19,0,.38,0,.58a.44.44,0,0,1-.27.36l-1.65,1-.13.06h0l-.09,0,0,0h0s0,0,0,0h-.6l-.09,0,0,0h0a1,1,0,0,1-.18-.07l-1.63-1h0l0,0s0,0-.06,0h0l0-.06,0,0h0s0,0,0,0l0,0h0s0,0,0,0a.11.11,0,0,1,0-.05v-.57h0A.29.29,0,0,0,76,66.83Z"/></g><g class="cls-7"><path class="cls-8" d="M80.23,64.08a.39.39,0,0,0,0,.74l1.64.94a1.36,1.36,0,0,0,1.27,0l1.65-.94c.35-.21.35-.54,0-.74l-1.63-1a1.44,1.44,0,0,0-1.28,0Z"/><path class="cls-9" d="M80,64.54h0a.2.2,0,0,0,0,.08v0l.07.08.07,0,0,0,1.64.94a.49.49,0,0,0,.18.08l.06,0,.09,0h.49l.14,0h0l.13,0a0,0,0,0,1,0,0,.61.61,0,0,0,.14-.07l1.65-.94a.47.47,0,0,0,.27-.38V65a.44.44,0,0,1-.27.37l-1.65,1L83,66.4h0l-.09,0,0,0h0l-.09,0h-.52l-.08,0H82a.75.75,0,0,1-.18-.07l-1.64-1h0l0,0s0,0-.06,0h0L80,65.23h0v0l0-.05h0a0,0,0,0,1,0,0s0,0,0,0v-.57h0A.29.29,0,0,0,80,64.54Z"/></g><path class="cls-11" d="M62.45,90.33a3,3,0,0,0,2.68,0L77,83.49c.74-.42.74-1.11,0-1.54l-7.3-4.21a3,3,0,0,0-2.68,0L55.15,84.56a.82.82,0,0,0,0,1.55Z"/><path class="cls-6" d="M4.14,83.19a1,1,0,0,1,0-1.85A2.92,2.92,0,0,1,5.6,81a3,3,0,0,1,1.47.35,1,1,0,0,1,0,1.85,3.07,3.07,0,0,1-1.47.35A3,3,0,0,1,4.14,83.19Zm.13-1.62a.84.84,0,0,0-.52.69.85.85,0,0,0,.52.7,2.75,2.75,0,0,0,1.33.31A2.79,2.79,0,0,0,6.94,83a.86.86,0,0,0,.51-.7.85.85,0,0,0-.51-.69,2.68,2.68,0,0,0-1.34-.32A2.64,2.64,0,0,0,4.27,81.57Z"/><path class="cls-12" d="M9.92,77l1.84,1.07a2.37,2.37,0,0,0,2.11,0l41.58-24a.65.65,0,0,0,0-1.22l-1.83-1.06Z"/><g class="cls-7"><polygon class="cls-13" points="11.56 39.39 7.79 37.2 7.88 70.73 11.52 73.11 11.56 39.39"/></g><path class="cls-14" d="M27.57,32.23a14.13,14.13,0,0,0,2.52-2.38,11.25,11.25,0,0,0,2.82-5.28V57.2s-4,7.77-9.57,11.5a29.32,29.32,0,0,1-11.82,4.41l0-33.72S21.28,36.91,27.57,32.23Z"/><path class="cls-15" d="M31.1,23.73l1.81.84a13.52,13.52,0,0,1-2.82,5.28,14.13,14.13,0,0,1-2.52,2.38c-6.29,4.68-16,7.16-16,7.16L7.78,37.2Z"/><path class="cls-16" d="M14.73,73.36a70.79,70.79,0,0,0,11.94-6.3,15.56,15.56,0,0,0,6.24-9.86V24.57s-.62,4-7.51,9.65a30,30,0,0,1-10.67,5.67Z"/><path class="cls-17" d="M32.91,24.57s10.65-.44,17.47-3.66,8.13-6.54,8.13-6.54V48a28.45,28.45,0,0,1-10.6,5.74,107.1,107.1,0,0,1-15,2.45Z"/><path class="cls-18" d="M20.64,39.39V71.75S32.37,67.58,32.9,57.32V24.57S31.4,33.39,20.64,39.39Z"/><path class="cls-19" d="M57.19,12.7v2.41c-1.84,2.89-4.4,4.31-9.77,6.45-6,2.39-14.51,3-14.51,3s12.89-2.86,18.22-5.94S57.19,12.7,57.19,12.7Z"/><path class="cls-20" d="M53.71,10.68l3.48,2s-.72,2.85-6.06,5.93-18.22,5.94-18.22,5.94l-1.81-.84Z"/><path class="cls-21" d="M47.42,21.56c5.37-2.14,7.93-3.56,9.77-6.45.22-.35.44-.73.65-1.13v1.19s-1.2,4-10.27,7.23a38.35,38.35,0,0,1-10.35,2.28,31.14,31.14,0,0,1-4.31-.11S41.4,24,47.42,21.56Z"/><path class="cls-15" d="M37.22,24.68c5-.17,13.51-1.4,20.62-7.06V50.91s-17.48,9.42-24.93,5.24V24.57A19.08,19.08,0,0,0,37.22,24.68Z"/><path class="cls-15" d="M37.22,24.68a19.08,19.08,0,0,1-4.31-.11A31.14,31.14,0,0,0,37.22,24.68Z"/><g class="cls-7"><polygon class="cls-22" points="7.19 36.86 7.19 37.53 54.31 10.34 54.31 9.67 7.19 36.86"/><polygon class="cls-23" points="7.19 36.86 6.7 36.58 6.7 37.24 7.19 37.53 7.19 36.86"/><polygon class="cls-24" points="54.31 9.67 53.81 9.38 6.7 36.58 7.19 36.86 54.31 9.67"/></g><polygon class="cls-22" points="7.19 37.51 7.19 37.54 7.19 71.35 8.09 70.86 7.88 70.73 7.78 37.2 7.19 37.51"/><polygon class="cls-23" points="7.19 37.37 7.19 71.35 6.71 71.07 6.7 37.18 7.19 37.37"/><polygon class="cls-22" points="54.31 10.15 54.31 11.03 53.67 10.65 54.31 10.15"/><polygon class="cls-20" points="34.06 22.2 33.58 21.94 29.47 24.3 29.88 24.64 34.06 22.2"/><polygon class="cls-22" points="33.33 21.8 32.99 21.63 28.98 23.98 29.23 24.17 33.33 21.8"/><polygon class="cls-24" points="32.81 21.55 32.48 21.38 28.47 23.74 28.72 23.93 32.81 21.55"/><path class="cls-25" d="M38.43,27.49a31.94,31.94,0,0,0,10.94-2.14,30,30,0,0,0,7.3-3.74s0,0,0-.06a0,0,0,0,0-.06,0c-.43.54-11.68,7.62-22.53,5.42,0,0,0,0,0,0s0,0,0,.05A21.87,21.87,0,0,0,38.43,27.49Z"/><path class="cls-25" d="M38.43,28.87a31.94,31.94,0,0,0,10.94-2.14A30.4,30.4,0,0,0,56.67,23a0,0,0,0,0,0-.06s0,0-.06,0c-.43.54-11.68,7.63-22.53,5.43a0,0,0,1,0,0,.08A21.89,21.89,0,0,0,38.43,28.87Z"/><path class="cls-25" d="M38.45,30.43a31.64,31.64,0,0,0,10.94-2.15,30.17,30.17,0,0,0,7.3-3.73,0,0,0,0,0,0-.07s0,0-.06,0c-.44.54-11.69,7.63-22.54,5.43a0,0,0,1,0,0,.08A22,22,0,0,0,38.45,30.43Z"/><path class="cls-25" d="M38.48,32a31.58,31.58,0,0,0,10.93-2.15,30.41,30.41,0,0,0,7.31-3.74,0,0,0,0,0,0-.06s-.05,0-.06,0c-.43.54-11.68,7.62-22.54,5.42a.07.07,0,0,0,0,0,.05.05,0,0,0,0,0A21.89,21.89,0,0,0,38.48,32Z"/><path class="cls-25" d="M38.5,33.54A31.94,31.94,0,0,0,49.44,31.4a30,30,0,0,0,7.3-3.74,0,0,0,0,0,0-.06,0,0,0,0,0-.06,0C56.24,28.15,45,35.23,34.14,33c0,0,0,0-.06,0a.07.07,0,0,0,0,0A21.87,21.87,0,0,0,38.5,33.54Z"/><path class="cls-25" d="M38.52,35.1A31.94,31.94,0,0,0,49.46,33a30.84,30.84,0,0,0,7.31-3.74s0,0,0-.06,0,0-.06,0c-.44.53-11.69,7.62-22.54,5.42a0,0,0,0,0,0,0s0,.05,0,.05A22,22,0,0,0,38.52,35.1Z"/><path class="cls-25" d="M38.55,36.66a31.58,31.58,0,0,0,10.93-2.15,30.6,30.6,0,0,0,7.31-3.73s0-.05,0-.06-.05,0-.06,0c-.43.54-11.68,7.63-22.54,5.43,0,0,0,0,0,0s0,0,0,0A21.89,21.89,0,0,0,38.55,36.66Z"/><path class="cls-25" d="M38.57,38.22a31.93,31.93,0,0,0,10.94-2.15,30.58,30.58,0,0,0,7.3-3.73s0-.05,0-.07a.06.06,0,0,0-.07,0c-.43.54-11.68,7.62-22.53,5.42,0,0-.05,0-.05,0s0,0,0,0A21.89,21.89,0,0,0,38.57,38.22Z"/><path class="cls-25" d="M38.6,39.78a31.68,31.68,0,0,0,10.93-2.15,30.41,30.41,0,0,0,7.31-3.74,0,0,0,0,0,0-.06s0,0-.06,0c-.44.54-11.69,7.62-22.54,5.42,0,0,0,0,0,0s0,0,0,.05A22,22,0,0,0,38.6,39.78Z"/><path class="cls-25" d="M38.62,41.33a31.83,31.83,0,0,0,10.93-2.14,30.41,30.41,0,0,0,7.31-3.74,0,0,0,1,0-.07-.05c-.43.54-11.69,7.62-22.54,5.42,0,0,0,0,0,0a.05.05,0,0,0,0,.06A22.63,22.63,0,0,0,38.62,41.33Z"/><path class="cls-25" d="M38.64,42.89a31.94,31.94,0,0,0,10.94-2.14A30.64,30.64,0,0,0,56.88,37a0,0,0,0,0,0-.06s0,0-.06,0c-.43.55-11.68,7.63-22.53,5.43a0,0,0,0,0-.05,0s0,.05,0,.05A21.89,21.89,0,0,0,38.64,42.89Z"/><path class="cls-25" d="M38.66,44.45A31.64,31.64,0,0,0,49.6,42.3a30.17,30.17,0,0,0,7.3-3.73s0,0,0-.06,0,0-.06,0c-.44.54-11.69,7.62-22.54,5.43a0,0,0,1,0,0,.08A21.89,21.89,0,0,0,38.66,44.45Z"/><path class="cls-25" d="M38.69,46a31.58,31.58,0,0,0,10.93-2.15,30.17,30.17,0,0,0,7.31-3.74,0,0,0,0,0,0-.06s-.05,0-.06,0c-.43.54-11.68,7.62-22.54,5.42a0,0,0,0,0,0,.09A21.89,21.89,0,0,0,38.69,46Z"/><path class="cls-25" d="M38.71,47.56a31.94,31.94,0,0,0,10.94-2.14A30,30,0,0,0,57,41.68a0,0,0,0,0,0-.06s0,0-.06,0c-.43.54-11.68,7.62-22.53,5.42a.05.05,0,0,0-.06,0,.07.07,0,0,0,0,0A21.87,21.87,0,0,0,38.71,47.56Z"/><path class="cls-25" d="M38.73,49.12A31.89,31.89,0,0,0,49.67,47,30.84,30.84,0,0,0,57,43.24s0-.05,0-.06,0,0-.07,0c-.43.55-11.68,7.63-22.53,5.43a0,0,0,0,0,0,0,0,0,0,0,0,0,.06A22.71,22.71,0,0,0,38.73,49.12Z"/><path class="cls-25" d="M38.76,50.68a31.58,31.58,0,0,0,10.93-2.15A30.6,30.6,0,0,0,57,44.8a.06.06,0,0,0,0-.07s-.05,0-.06,0c-.43.54-11.68,7.63-22.53,5.43a0,0,0,0,0-.06,0s0,0,0,0A21.89,21.89,0,0,0,38.76,50.68Z"/><path class="cls-25" d="M38.78,52.24a31.93,31.93,0,0,0,10.94-2.15A30.22,30.22,0,0,0,57,46.35a0,0,0,0,0,0-.06.06.06,0,0,0-.07,0c-.43.54-11.68,7.63-22.53,5.42a0,0,0,0,0-.05,0,0,0,0,0,0,0,.05A21.89,21.89,0,0,0,38.78,52.24Z"/><path class="cls-25" d="M38.81,53.79a31.88,31.88,0,0,0,10.93-2.14A30,30,0,0,0,57,47.91a0,0,0,0,0,0-.06s0,0-.06,0c-.44.54-11.69,7.62-22.54,5.42a.05.05,0,0,0,0,0s0,0,0,0A22,22,0,0,0,38.81,53.79Z"/><path class="cls-25" d="M22.4,40.72l0,0h0a17.09,17.09,0,0,0,8.61-7.34,22.79,22.79,0,0,0,1.83-3.64v-.23A23.16,23.16,0,0,1,31,33.36a16.94,16.94,0,0,1-8.56,7.3S22.4,40.69,22.4,40.72Z"/><path class="cls-25" d="M22.24,42.27s0,0,0,0h0A15.31,15.31,0,0,0,31,35.63,21.67,21.67,0,0,0,32.9,32.1v-.24A21.65,21.65,0,0,1,31,35.58a15.26,15.26,0,0,1-8.7,6.64A0,0,0,0,0,22.24,42.27Z"/><path class="cls-25" d="M22.24,44.31s0,0,0,0h0A15.33,15.33,0,0,0,31,37.67a21.27,21.27,0,0,0,1.86-3.53V33.9A21.32,21.32,0,0,1,31,37.63a15.21,15.21,0,0,1-8.7,6.63S22.23,44.29,22.24,44.31Z"/><path class="cls-25" d="M22.24,46.36s0,0,0,0h0A15.31,15.31,0,0,0,31,39.72a21.31,21.31,0,0,0,1.86-3.54V36A21.65,21.65,0,0,1,31,39.67a15.26,15.26,0,0,1-8.7,6.64A0,0,0,0,0,22.24,46.36Z"/><path class="cls-25" d="M22.24,48.4s0,0,0,0h0A15.27,15.27,0,0,0,31,41.76a21.27,21.27,0,0,0,1.86-3.53V38A21.29,21.29,0,0,1,31,41.71a15.22,15.22,0,0,1-8.7,6.64S22.23,48.38,22.24,48.4Z"/><path class="cls-25" d="M22.24,50.45s0,0,0,0h0A15.31,15.31,0,0,0,31,43.81a21.71,21.71,0,0,0,1.86-3.54V40A21.65,21.65,0,0,1,31,43.76a15.3,15.3,0,0,1-8.7,6.64A0,0,0,0,0,22.24,50.45Z"/><path class="cls-25" d="M22.24,52.49s0,0,0,0h0A15.31,15.31,0,0,0,31,45.85a21.67,21.67,0,0,0,1.86-3.53v-.24A21.65,21.65,0,0,1,31,45.8a15.22,15.22,0,0,1-8.7,6.64A0,0,0,0,0,22.24,52.49Z"/><path class="cls-25" d="M22.24,54.54s0,0,0,0h0A15.36,15.36,0,0,0,31,47.9a21.71,21.71,0,0,0,1.86-3.54v-.23A21.65,21.65,0,0,1,31,47.85a15.25,15.25,0,0,1-8.7,6.63A0,0,0,0,0,22.24,54.54Z"/><path class="cls-25" d="M22.24,56.58s0,0,0,0h0A15.31,15.31,0,0,0,31,49.94a21.67,21.67,0,0,0,1.86-3.53v-.24A21.65,21.65,0,0,1,31,49.89a15.22,15.22,0,0,1-8.7,6.64A0,0,0,0,0,22.24,56.58Z"/><path class="cls-25" d="M22.24,58.63s0,0,0,0h0A15.29,15.29,0,0,0,31,52a21.27,21.27,0,0,0,1.86-3.53v-.23A21.65,21.65,0,0,1,31,51.94a15.25,15.25,0,0,1-8.7,6.63A0,0,0,0,0,22.24,58.63Z"/><path class="cls-25" d="M22.24,60.67s0,0,0,0h0A15.31,15.31,0,0,0,31,54,22.09,22.09,0,0,0,32.9,50.5v-.24A21.65,21.65,0,0,1,31,54a15.26,15.26,0,0,1-8.7,6.64A0,0,0,0,0,22.24,60.67Z"/><path class="cls-25" d="M22.24,62.71s0,0,0,0h0A15.33,15.33,0,0,0,31,56.07a21.27,21.27,0,0,0,1.86-3.53v-.23A21.65,21.65,0,0,1,31,56a15.25,15.25,0,0,1-8.7,6.63S22.23,62.69,22.24,62.71Z"/><path class="cls-25" d="M22.24,64.76s0,0,0,0h0A15.31,15.31,0,0,0,31,58.12a22.09,22.09,0,0,0,1.86-3.53v-.24A21.65,21.65,0,0,1,31,58.07a15.21,15.21,0,0,1-8.7,6.63S22.23,64.74,22.24,64.76Z"/><path class="cls-25" d="M22.32,66.74a.05.05,0,0,0,0,0h0a15.31,15.31,0,0,0,8.75-6.67,20.78,20.78,0,0,0,1.78-3.35v-.22a22.28,22.28,0,0,1-1.85,3.52,15.24,15.24,0,0,1-8.7,6.63S22.31,66.72,22.32,66.74Z"/></g></g></svg>