<svg xmlns="http://www.w3.org/2000/svg" viewBox="0 0 124.73 120.18"><defs><style>.cls-1{fill:#ebebeb;}.cls-2{fill:#879acb;}.cls-3{fill:#3757a9;}.cls-4{fill:#fff;}</style></defs><g id="Camada_2" data-name="Camada 2"><g id="Camada_1-2" data-name="Camada 1"><rect class="cls-1" x="11.28" y="19.59" width="102.18" height="81" rx="7" transform="translate(-23.46 48.52) rotate(-36.26)"/><rect class="cls-2" x="12.28" y="19.59" width="102.18" height="81" rx="7" transform="translate(-15.52 22.63) rotate(-18.08)"/><rect class="cls-3" x="12.04" y="21.16" width="102.18" height="81" rx="7"/><path class="cls-4" d="M73.63,82.57A30.71,30.71,0,0,1,60.4,85.24c-13.89,0-22.93-9.42-22.93-23.5s9.7-24.46,24.74-24.46a28,28,0,0,1,11.61,2.38l-1.91,6.47a19.38,19.38,0,0,0-9.7-2.19c-10.56,0-16.27,7.8-16.27,17.42,0,10.65,6.85,17.22,16,17.22A23.74,23.74,0,0,0,72.2,76.29Z"/><path class="cls-4" d="M80.48,79.34c0-3.52,2.37-6,5.71-6s5.61,2.48,5.61,6-2.19,6-5.71,6C82.76,85.33,80.48,82.76,80.48,79.34Z"/></g></g></svg>