<svg xmlns="http://www.w3.org/2000/svg" xmlns:xlink="http://www.w3.org/1999/xlink" viewBox="0 0 74.63 81.79"><defs><style>.cls-1{fill:url(#Gradiente_sem_nome);}.cls-2{isolation:isolate;}.cls-3{fill:#fff;}.cls-4{fill:none;}</style><linearGradient id="Gradiente_sem_nome" x1="-2.59" y1="83.05" x2="77.21" y2="3.25" gradientTransform="matrix(1, 0, 0, -1, 0, 84.04)" gradientUnits="userSpaceOnUse"><stop offset="0" stop-color="#a60000"/><stop offset="1" stop-color="#ff3c00"/></linearGradient></defs><g id="Camada_2" data-name="Camada 2"><g id="Camada_1-2" data-name="Camada 1"><path class="cls-1" d="M37.31,0c6.15,0,12.55,5.53,18.46,8.94s13.89,6.18,17,11.51,1.49,13.63,1.49,20.45S75.81,56,72.73,61.34s-11.06,8.11-17,11.52-12.31,8.93-18.46,8.93-12.54-5.53-18.45-8.93S5,66.67,1.9,61.34.41,47.71.41,40.9-1.18,25.77,1.9,20.45s11.06-8.1,17-11.51S31.16,0,37.31,0Z"/><g class="cls-2"><path class="cls-3" d="M55.16,22.16V32.83H49l-.33-4.48H41.3V56.56l4.29.83V62.2H29V57.39l4.29-.83V28.35H25.93l-.33,4.48H19.47V22.16Z"/></g><path class="cls-4" d="M37.31,0,55.77,8.94l17,11.51L74.22,40.9,72.73,61.34l-17,11.52L37.31,81.79,18.86,72.86,1.9,61.34.41,40.9,1.9,20.45l17-11.51Z"/></g></g></svg>